{"glyphs":{"0":{"ha":636,"x_min":0,"x_max":0,"o":"m 228 -8 b 665 765 436 -8 665 435 b 606 967 665 822 658 893 b 458 1065 567 1021 510 1065 b 4 247 289 1065 4 557 b 115 32 4 150 32 88 b 228 -8 153 7 189 -8 z m 150 153 b 514 960 150 468 307 817 b 525 843 521 932 525 893 b 151 117 525 490 347 149 b 150 153 150 129 150 140 z "},"1":{"ha":553,"x_min":0,"x_max":0,"o":"m 333 -17 b 607 974 424 340 513 658 b 614 1007 614 996 614 1004 b 485 1058 614 1022 557 1051 b 43 610 389 888 203 674 b 118 501 43 581 76 501 b 389 728 163 501 286 604 b 210 68 333 532 275 317 b 204 35 204 46 204 38 b 333 -17 204 19 261 -10 z "},"2":{"ha":651,"x_min":0,"x_max":0,"o":"m 32 -7 b 214 3 96 0 143 3 b 535 -4 350 3 424 1 b 554 99 546 24 554 67 b 546 126 554 111 553 122 b 313 139 532 135 464 139 b 181 136 263 139 217 138 b 656 817 451 356 656 597 b 596 994 656 871 643 925 b 489 1071 560 1049 531 1071 b 114 683 328 1071 114 740 b 218 593 114 654 169 606 b 528 954 304 772 400 882 b 531 908 529 942 531 928 b 40 189 531 649 319 425 b -53 89 -40 121 -53 101 b 32 -7 -53 65 -7 10 z "},"3":{"ha":654,"x_min":0,"x_max":0,"o":"m 219 -12 b 585 296 422 -12 585 119 b 543 442 585 354 569 400 b 494 499 528 465 513 485 b 646 819 592 579 646 713 b 588 994 646 871 633 925 b 481 1071 550 1051 521 1071 b 113 710 321 1071 113 767 b 217 621 113 681 168 633 b 521 956 300 788 396 890 b 525 904 524 943 525 926 b 196 481 525 733 439 539 b 147 426 158 471 147 464 b 169 333 147 399 153 343 b 422 381 240 358 329 381 b 489 375 443 381 465 379 b 228 126 482 253 372 126 b 15 214 128 126 50 182 b -36 114 -10 194 -36 144 b 219 -12 -36 50 85 -12 z "},"4":{"ha":726,"x_min":0,"x_max":0,"o":"m 465 -17 b 540 258 490 78 515 169 b 681 256 583 258 631 257 b 694 335 686 278 694 311 b 685 365 694 350 692 361 b 572 376 676 371 633 375 b 744 988 631 588 688 788 b 751 1021 751 1010 751 1018 b 631 1072 751 1036 700 1065 b 586 921 615 1022 601 972 b 507 949 576 936 542 946 b 13 354 311 572 126 401 b -17 285 -12 344 -17 335 b -12 243 -17 268 -15 253 b 335 261 75 256 175 261 l 401 261 b 350 68 385 199 367 135 b 344 35 344 46 344 38 b 465 -17 344 19 396 -10 z m 242 369 b 540 765 311 428 461 597 b 432 375 506 643 469 514 b 242 369 372 374 307 372 z "},"5":{"ha":633,"x_min":0,"x_max":0,"o":"m 213 -12 b 574 328 425 -12 574 139 b 532 476 574 389 558 435 b 351 575 494 536 442 575 b 250 563 322 575 292 571 b 389 926 300 681 344 801 b 481 929 419 928 454 929 b 667 924 528 929 603 926 b 681 1008 674 942 681 972 b 669 1050 681 1031 678 1044 b 518 1063 653 1061 578 1063 b 299 1049 382 1063 317 1056 b 249 949 286 1044 276 1032 b 114 601 214 842 160 701 b 74 490 86 540 74 504 b 161 403 74 472 93 449 b 346 435 217 421 283 435 b 468 394 396 435 442 426 b 229 132 456 251 371 132 b 21 217 133 132 56 186 b -31 111 -4 197 -31 142 b 213 -12 -31 49 82 -12 z "},"6":{"ha":683,"x_min":0,"x_max":0,"o":"m 268 -17 b 614 365 443 -17 614 168 b 569 515 614 424 599 469 b 393 625 521 592 458 625 b 239 568 342 625 289 604 b 544 965 347 840 435 919 b 554 872 551 938 554 904 b 526 707 554 810 543 747 b 640 671 543 694 621 671 b 697 833 681 671 697 771 b 624 1004 697 900 676 954 b 494 1065 583 1043 538 1065 b 36 289 290 1065 36 583 b 85 89 36 199 58 133 b 268 -17 126 21 189 -17 z m 161 131 b 397 493 165 331 257 493 b 514 458 433 493 472 482 l 514 440 b 236 114 514 289 379 114 b 161 131 213 114 185 119 z "},"7":{"ha":644,"x_min":0,"x_max":0,"o":"m 217 -11 b 461 472 286 139 367 297 b 608 467 504 471 553 469 b 626 563 618 493 626 533 b 618 593 626 575 625 589 b 532 603 610 599 576 601 b 711 922 588 704 647 810 b 732 983 724 944 732 968 b 644 1061 732 1011 701 1029 b 403 1049 586 1053 535 1049 b 146 1058 332 1049 240 1051 b 129 960 138 1032 129 989 b 140 928 129 943 132 933 b 358 915 153 919 274 915 b 554 921 401 915 478 917 b 376 603 497 824 439 718 b 129 581 244 600 143 590 b 107 486 118 572 107 522 b 110 456 107 472 108 461 b 306 469 188 463 249 468 b 115 101 244 356 182 232 b 99 54 106 83 99 63 b 217 -11 99 31 164 -4 z "},"8":{"ha":657,"x_min":0,"x_max":0,"o":"m 243 -10 b 600 314 460 -10 600 165 b 494 474 600 406 557 450 b 693 846 610 583 693 732 b 660 964 693 892 681 925 b 540 1064 611 1054 574 1064 b 114 564 364 1064 114 760 b 156 446 114 507 128 476 b -1 193 61 390 -1 297 b 243 -10 -1 54 106 -10 z m 97 213 b 349 372 128 294 238 372 b 508 274 419 372 469 344 b 247 140 451 200 344 140 b 97 213 183 140 133 164 z m 250 511 b 569 939 247 671 365 843 b 576 897 574 928 576 914 b 250 511 576 724 414 503 z "},"9":{"ha":603,"x_min":0,"x_max":0,"o":"m 171 -17 b 607 568 422 -17 543 264 b 638 808 626 663 638 740 b 592 996 638 883 624 944 b 496 1068 558 1050 521 1068 b 74 494 353 1068 74 729 b 150 354 74 429 99 389 b 251 317 183 332 221 317 b 439 429 301 317 378 358 b 179 122 368 217 286 122 b 8 197 107 122 36 165 b -43 97 -17 178 -43 128 b 171 -17 -43 40 58 -17 z m 193 421 b 521 956 193 594 346 857 b 526 925 526 944 526 935 b 218 418 526 771 376 418 b 193 421 210 418 201 419 z "}," ":{"ha":250,"x_min":0,"x_max":0,"o":""},"A":{"ha":719,"x_min":0,"x_max":0,"o":"m 625 975 b 617 1025 624 999 622 1017 b 513 1072 606 1043 543 1067 b 103 356 376 857 243 624 b -7 342 42 350 -1 346 b -29 239 -18 335 -29 279 b -26 210 -29 228 -28 217 b 31 215 -10 211 10 214 b -26 101 13 178 -7 140 b -43 54 -35 83 -43 63 b 81 -11 -43 31 28 -4 b 199 228 118 67 157 147 b 492 243 294 233 400 239 b 486 28 489 132 486 53 b 490 0 486 13 488 4 b 521 -10 494 -7 507 -10 b 632 21 556 -10 610 8 b 640 332 639 121 640 225 b 625 975 640 531 636 744 z m 269 365 b 490 761 343 501 418 638 b 496 532 493 685 496 600 b 494 375 496 476 496 424 b 269 365 426 372 346 368 z "},"Á":{"ha":719,"x_min":0,"x_max":0,"o":"m 688 1324 b 465 1193 610 1275 533 1231 b 542 1106 472 1161 515 1106 b 735 1193 572 1106 681 1153 b 761 1225 757 1210 761 1218 b 688 1324 761 1244 714 1310 z m -43 54 b 81 -11 -43 31 28 -4 b 199 228 118 67 157 147 b 492 243 294 233 400 239 b 486 28 489 132 486 53 b 490 0 486 13 488 4 b 521 -10 494 -7 507 -10 b 632 21 556 -10 610 8 b 640 332 639 121 640 225 b 625 975 640 531 636 744 b 617 1025 624 999 622 1017 b 513 1072 606 1043 543 1067 b 103 356 376 857 243 624 b -7 342 42 350 -1 346 b -29 239 -18 335 -29 279 b -26 210 -29 228 -28 217 b 31 215 -10 211 10 214 b -26 101 13 178 -7 140 b -43 54 -35 83 -43 63 z m 269 365 b 490 761 343 501 418 638 b 496 532 493 685 496 600 b 494 375 496 476 496 424 b 269 365 426 372 346 368 z "},"Ă":{"ha":719,"x_min":0,"x_max":0,"o":"m 672 1289 b 597 1213 654 1239 628 1213 b 553 1274 568 1213 553 1232 b 460 1290 553 1290 515 1297 b 589 1122 439 1213 472 1122 b 765 1264 725 1122 764 1235 b 672 1289 765 1276 729 1292 z m -43 54 b 81 -11 -43 31 28 -4 b 199 228 118 67 157 147 b 492 243 294 233 400 239 b 486 28 489 132 486 53 b 490 0 486 13 488 4 b 521 -10 494 -7 507 -10 b 632 21 556 -10 610 8 b 640 332 639 121 640 225 b 625 975 640 531 636 744 b 617 1025 624 999 622 1017 b 513 1072 606 1043 543 1067 b 103 356 376 857 243 624 b -7 342 42 350 -1 346 b -29 239 -18 335 -29 279 b -26 210 -29 228 -28 217 b 31 215 -10 211 10 214 b -26 101 13 178 -7 140 b -43 54 -35 83 -43 63 z m 269 365 b 490 761 343 501 418 638 b 496 532 493 685 496 600 b 494 375 496 476 496 424 b 269 365 426 372 346 368 z "},"Â":{"ha":719,"x_min":0,"x_max":0,"o":"m 614 1315 b 379 1199 538 1271 465 1236 b 443 1106 381 1174 414 1106 b 589 1176 474 1106 535 1136 b 700 1097 629 1135 675 1097 b 785 1176 726 1097 775 1149 b 614 1315 725 1219 668 1267 z m -43 54 b 81 -11 -43 31 28 -4 b 199 228 118 67 157 147 b 492 243 294 233 400 239 b 486 28 489 132 486 53 b 490 0 486 13 488 4 b 521 -10 494 -7 507 -10 b 632 21 556 -10 610 8 b 640 332 639 121 640 225 b 625 975 640 531 636 744 b 617 1025 624 999 622 1017 b 513 1072 606 1043 543 1067 b 103 356 376 857 243 624 b -7 342 42 350 -1 346 b -29 239 -18 335 -29 279 b -26 210 -29 228 -28 217 b 31 215 -10 211 10 214 b -26 101 13 178 -7 140 b -43 54 -35 83 -43 63 z m 269 365 b 490 761 343 501 418 638 b 496 532 493 685 496 600 b 494 375 496 476 496 424 b 269 365 426 372 346 368 z "},"Ä":{"ha":719,"x_min":0,"x_max":0,"o":"m 535 1110 l 560 1196 b 572 1243 569 1225 572 1239 b 446 1313 572 1267 510 1297 l 421 1228 b 408 1179 411 1197 408 1183 b 535 1110 408 1157 472 1125 z m -43 54 b 81 -11 -43 31 28 -4 b 199 228 118 67 157 147 b 492 243 294 233 400 239 b 486 28 489 132 486 53 b 490 0 486 13 488 4 b 521 -10 494 -7 507 -10 b 632 21 556 -10 610 8 b 640 332 639 121 640 225 b 625 975 640 531 636 744 b 617 1025 624 999 622 1017 b 513 1072 606 1043 543 1067 b 103 356 376 857 243 624 b -7 342 42 350 -1 346 b -29 239 -18 335 -29 279 b -26 210 -29 228 -28 217 b 31 215 -10 211 10 214 b -26 101 13 178 -7 140 b -43 54 -35 83 -43 63 z m 269 365 b 490 761 343 501 418 638 b 496 532 493 685 496 600 b 494 375 496 476 496 424 b 269 365 426 372 346 368 z m 626 1163 b 753 1093 626 1140 690 1108 l 778 1179 b 790 1226 788 1208 790 1222 b 664 1296 790 1250 728 1281 l 639 1211 b 626 1163 629 1181 626 1167 z "},"À":{"ha":719,"x_min":0,"x_max":0,"o":"m 504 1324 b 431 1225 478 1310 431 1244 b 457 1193 431 1218 436 1208 b 629 1106 511 1153 601 1106 b 706 1193 656 1106 699 1161 b 504 1324 643 1231 575 1275 z m -43 54 b 81 -11 -43 31 28 -4 b 199 228 118 67 157 147 b 492 243 294 233 400 239 b 486 28 489 132 486 53 b 490 0 486 13 488 4 b 521 -10 494 -7 507 -10 b 632 21 556 -10 610 8 b 640 332 639 121 640 225 b 625 975 640 531 636 744 b 617 1025 624 999 622 1017 b 513 1072 606 1043 543 1067 b 103 356 376 857 243 624 b -7 342 42 350 -1 346 b -29 239 -18 335 -29 279 b -26 210 -29 228 -28 217 b 31 215 -10 211 10 214 b -26 101 13 178 -7 140 b -43 54 -35 83 -43 63 z m 269 365 b 490 761 343 501 418 638 b 496 532 493 685 496 600 b 494 375 496 476 496 424 b 269 365 426 372 346 368 z "},"Ā":{"ha":719,"x_min":0,"x_max":0,"o":"m 756 1225 b 438 1213 726 1244 463 1232 b 418 1103 422 1201 410 1135 b 746 1113 544 1117 629 1122 b 756 1225 758 1147 774 1214 z m -43 54 b 81 -11 -43 31 28 -4 b 199 228 118 67 157 147 b 492 243 294 233 400 239 b 486 28 489 132 486 53 b 490 0 486 13 488 4 b 521 -10 494 -7 507 -10 b 632 21 556 -10 610 8 b 640 332 639 121 640 225 b 625 975 640 531 636 744 b 617 1025 624 999 622 1017 b 513 1072 606 1043 543 1067 b 103 356 376 857 243 624 b -7 342 42 350 -1 346 b -29 239 -18 335 -29 279 b -26 210 -29 228 -28 217 b 31 215 -10 211 10 214 b -26 101 13 178 -7 140 b -43 54 -35 83 -43 63 z m 269 365 b 490 761 343 501 418 638 b 496 532 493 685 496 600 b 494 375 496 476 496 424 b 269 365 426 372 346 368 z "},"Ą":{"ha":719,"x_min":0,"x_max":0,"o":"m 640 332 b 625 975 640 531 636 744 b 617 1025 624 999 622 1017 b 513 1072 606 1043 543 1067 b 103 356 376 857 243 624 b -7 342 42 350 -1 346 b -29 239 -18 335 -29 279 b -26 210 -29 228 -28 217 b 31 215 -10 211 10 214 b -26 101 13 178 -7 140 b -43 54 -35 83 -43 63 b 81 -11 -43 31 28 -4 b 199 228 118 67 157 147 b 492 243 294 233 400 239 b 486 43 490 149 488 78 b 296 -175 325 -62 296 -121 b 307 -222 296 -186 299 -204 b 444 -318 331 -276 389 -318 b 574 -250 508 -318 574 -285 b 550 -158 574 -228 558 -165 b 431 -211 522 -187 469 -211 b 374 -190 408 -211 389 -204 b 625 11 406 -144 483 -86 b 632 21 631 15 632 18 b 640 332 639 121 640 225 z m 269 365 b 490 761 343 501 418 638 b 496 532 493 685 496 600 b 494 375 496 476 496 424 b 269 365 426 372 346 368 z "},"Å":{"ha":719,"x_min":0,"x_max":0,"o":"m 650 1418 b 488 1196 576 1418 488 1293 b 579 1111 488 1147 532 1111 b 736 1326 654 1111 736 1225 b 650 1418 736 1372 699 1418 z m -43 54 b 81 -11 -43 31 28 -4 b 199 228 118 67 157 147 b 492 243 294 233 400 239 b 486 28 489 132 486 53 b 490 0 486 13 488 4 b 521 -10 494 -7 507 -10 b 632 21 556 -10 610 8 b 640 332 639 121 640 225 b 625 975 640 531 636 744 b 617 1025 624 999 622 1017 b 513 1072 606 1043 543 1067 b 103 356 376 857 243 624 b -7 342 42 350 -1 346 b -29 239 -18 335 -29 279 b -26 210 -29 228 -28 217 b 31 215 -10 211 10 214 b -26 101 13 178 -7 140 b -43 54 -35 83 -43 63 z m 269 365 b 490 761 343 501 418 638 b 496 532 493 685 496 600 b 494 375 496 476 496 424 b 269 365 426 372 346 368 z m 567 1200 l 567 1204 b 660 1343 567 1249 601 1321 b 665 1322 664 1338 665 1332 b 576 1199 665 1279 619 1199 b 567 1200 574 1199 569 1199 z "},"Ã":{"ha":799,"x_min":0,"x_max":0,"o":"m 768 1278 b 700 1246 746 1250 721 1246 b 578 1299 667 1246 615 1299 b 410 1175 518 1299 410 1203 b 460 1142 410 1168 432 1146 b 532 1182 482 1169 511 1182 b 654 1129 565 1182 613 1129 b 818 1244 714 1129 818 1217 b 768 1278 818 1250 796 1274 z m -33 54 b 90 -11 -33 31 38 -4 b 208 228 128 67 167 147 b 501 243 304 233 410 239 b 496 28 499 132 496 53 b 500 0 496 13 497 4 b 531 -10 504 -7 517 -10 b 642 21 565 -10 619 8 b 650 332 649 121 650 225 b 635 975 650 531 646 744 b 626 1025 633 999 632 1017 b 522 1072 615 1043 553 1067 b 113 356 386 857 253 624 b 3 342 51 350 8 346 b -19 239 -8 335 -19 279 b -17 210 -19 228 -18 217 b 40 215 0 211 19 214 b -17 101 22 178 3 140 b -33 54 -25 83 -33 63 z m 279 365 b 500 761 353 501 428 638 b 506 532 503 685 506 600 b 504 375 506 476 506 424 b 279 365 436 372 356 368 z "},"Æ":{"ha":1106,"x_min":0,"x_max":0,"o":"m 960 926 b 1165 921 1028 926 1100 924 b 1185 1022 1176 947 1185 990 b 1176 1050 1185 1036 1183 1046 b 1007 1063 1163 1058 1094 1063 b 753 1049 847 1063 771 1056 b 739 1038 749 1047 744 1044 b 706 1049 726 1044 713 1049 b 651 1006 690 1049 676 1035 b 217 436 508 836 350 628 b 13 411 103 425 22 417 b -3 318 1 404 -3 351 b 0 281 -3 299 -1 288 b 119 294 22 283 64 289 l 53 192 b -19 50 -10 92 -19 64 b 100 -17 -19 28 1 4 b 300 314 157 92 225 204 b 532 332 376 321 457 326 b 467 85 511 253 489 171 b 461 51 463 68 461 57 b 550 -4 461 36 507 7 b 775 3 582 0 683 3 b 1011 -4 828 3 878 1 b 1031 99 1022 24 1031 67 b 1022 126 1031 113 1029 122 b 789 139 1008 135 940 139 b 631 135 726 139 671 138 b 683 338 647 200 664 268 b 839 342 740 340 800 342 b 965 339 876 342 917 342 b 979 443 969 354 979 407 b 972 472 979 457 979 469 b 900 478 965 476 939 478 b 719 472 856 478 792 475 b 847 924 760 618 803 771 b 960 926 879 925 918 926 z m 389 442 b 658 792 476 563 568 681 b 565 456 631 693 599 579 b 389 442 507 451 447 446 z "},"B":{"ha":701,"x_min":0,"x_max":0,"o":"m 478 424 b 706 819 626 529 706 679 b 651 985 706 879 692 924 b 539 1068 610 1049 581 1068 b 418 1017 500 1068 461 1050 l 418 1021 b 288 1072 418 1036 360 1065 b 219 839 265 997 242 919 b 50 581 158 767 99 678 b 32 535 35 550 32 542 b 106 439 32 514 57 479 b 13 88 75 328 44 211 b 7 54 8 71 7 57 b 65 8 7 40 39 22 b 257 -10 121 -1 188 -10 b 629 226 458 -10 629 61 b 575 356 629 285 608 321 b 478 424 549 383 518 406 z m 175 138 b 224 321 190 196 206 257 b 274 322 240 322 257 322 b 519 226 385 322 482 303 b 274 129 497 164 413 129 b 175 138 231 129 200 133 z m 256 444 b 346 765 285 550 315 658 b 581 953 415 854 490 908 b 585 904 583 940 585 925 b 256 444 585 704 449 492 z "},"C":{"ha":656,"x_min":0,"x_max":0,"o":"m 646 953 b 489 1069 596 1024 539 1069 b 13 244 307 1069 13 553 b 118 39 13 146 43 89 b 274 -12 172 3 222 -12 b 581 167 403 -12 581 88 b 514 264 581 197 554 232 b 251 132 447 192 343 132 b 164 150 221 132 190 139 b 543 965 164 467 328 824 b 556 872 551 938 556 901 b 474 607 556 775 508 664 b 583 560 493 585 563 560 b 696 813 643 560 696 726 b 646 953 696 871 672 915 z "},"Ć":{"ha":656,"x_min":0,"x_max":0,"o":"m 660 1324 b 438 1193 582 1275 506 1231 b 514 1106 444 1161 488 1106 b 707 1193 544 1106 653 1153 b 733 1225 729 1210 733 1218 b 660 1324 733 1244 686 1310 z m 13 244 b 118 39 13 146 43 89 b 274 -12 172 3 222 -12 b 581 167 403 -12 581 88 b 514 264 581 197 554 232 b 251 132 447 192 343 132 b 164 150 221 132 190 139 b 543 965 164 467 328 824 b 556 872 551 938 556 901 b 474 607 556 775 508 664 b 583 560 493 585 563 560 b 696 813 643 560 696 726 b 646 953 696 871 672 915 b 489 1069 596 1024 539 1069 b 13 244 307 1069 13 553 z "},"Č":{"ha":656,"x_min":0,"x_max":0,"o":"m 746 1214 b 682 1307 744 1239 711 1307 b 536 1236 651 1307 590 1276 b 425 1315 496 1278 450 1315 b 340 1236 399 1315 350 1264 b 511 1097 400 1193 457 1146 b 746 1214 588 1142 660 1176 z m 13 244 b 118 39 13 146 43 89 b 274 -12 172 3 222 -12 b 581 167 403 -12 581 88 b 514 264 581 197 554 232 b 251 132 447 192 343 132 b 164 150 221 132 190 139 b 543 965 164 467 328 824 b 556 872 551 938 556 901 b 474 607 556 775 508 664 b 583 560 493 585 563 560 b 696 813 643 560 696 726 b 646 953 696 871 672 915 b 489 1069 596 1024 539 1069 b 13 244 307 1069 13 553 z "},"Ç":{"ha":656,"x_min":0,"x_max":0,"o":"m 646 953 b 489 1069 596 1024 539 1069 b 13 244 307 1069 13 553 b 118 39 13 146 43 89 b 190 1 143 22 167 10 b 142 -112 167 -44 149 -85 b 261 -206 207 -150 243 -182 b 208 -222 246 -217 229 -222 b 89 -169 169 -222 117 -199 b 65 -264 81 -176 65 -242 b 194 -332 65 -299 131 -332 b 336 -236 250 -332 313 -290 b 347 -189 344 -218 347 -200 b 264 -68 347 -142 311 -99 b 294 -11 272 -50 282 -31 b 581 167 421 -3 581 92 b 514 264 581 197 554 232 b 251 132 447 192 343 132 b 164 150 221 132 190 139 b 543 965 164 467 328 824 b 556 872 551 938 556 901 b 474 607 556 775 508 664 b 583 560 493 585 563 560 b 696 813 643 560 696 726 b 646 953 696 871 672 915 z "},"Ċ":{"ha":656,"x_min":0,"x_max":0,"o":"m 622 1106 l 649 1196 b 661 1246 658 1228 661 1242 b 529 1319 661 1269 596 1303 l 501 1229 b 489 1178 492 1197 489 1183 b 622 1106 489 1154 556 1121 z m 13 244 b 118 39 13 146 43 89 b 274 -12 172 3 222 -12 b 581 167 403 -12 581 88 b 514 264 581 197 554 232 b 251 132 447 192 343 132 b 164 150 221 132 190 139 b 543 965 164 467 328 824 b 556 872 551 938 556 901 b 474 607 556 775 508 664 b 583 560 493 585 563 560 b 696 813 643 560 696 726 b 646 953 696 871 672 915 b 489 1069 596 1024 539 1069 b 13 244 307 1069 13 553 z "},"D":{"ha":736,"x_min":0,"x_max":0,"o":"m 672 990 b 551 1068 636 1049 606 1068 b 419 1021 513 1068 472 1057 b 289 1072 419 1036 361 1065 b 221 839 267 996 243 918 b 51 581 160 767 100 678 b 33 535 36 550 33 543 b 107 439 33 514 58 478 b 14 85 76 325 44 206 b 8 51 10 68 8 54 b 67 6 8 38 40 19 b 238 -12 122 -4 189 -12 b 733 714 521 -12 733 283 b 672 990 733 851 713 924 z m 176 135 b 346 768 228 339 285 554 b 574 950 425 853 493 907 b 594 735 588 879 594 803 b 243 126 594 425 456 126 b 176 135 221 126 197 129 z "},"Ð":{"ha":824,"x_min":0,"x_max":0,"o":"m 685 990 b 564 1068 649 1049 618 1068 b 432 1021 525 1068 485 1057 b 301 1072 432 1036 374 1065 b 233 839 279 996 256 918 b 64 581 172 767 113 678 b 46 535 49 550 46 543 b 119 439 46 514 71 478 b 100 367 113 415 107 390 b 36 356 69 364 43 361 b 14 261 25 347 14 297 b 17 231 14 247 15 236 l 65 235 b 26 85 53 185 39 135 b 21 51 22 68 21 54 b 79 6 21 38 53 19 b 250 -12 135 -4 201 -12 b 746 714 533 -12 746 283 b 685 990 746 851 725 924 z m 189 135 l 215 240 b 335 235 256 240 294 238 b 353 332 344 261 353 301 b 344 361 353 346 351 357 b 250 371 335 367 297 369 b 358 768 283 501 321 635 b 586 950 438 853 506 907 b 607 735 600 879 607 803 b 256 126 607 425 468 126 b 189 135 233 126 210 129 z "},"Ď":{"ha":736,"x_min":0,"x_max":0,"o":"m 729 1214 b 665 1307 728 1239 694 1307 b 519 1236 635 1307 574 1276 b 408 1315 479 1278 433 1315 b 324 1236 382 1315 333 1264 b 494 1097 383 1193 440 1146 b 729 1214 571 1142 643 1176 z m 8 51 b 67 6 8 38 40 19 b 238 -12 122 -4 189 -12 b 733 714 521 -12 733 283 b 672 990 733 851 713 924 b 551 1068 636 1049 606 1068 b 419 1021 513 1068 472 1057 b 289 1072 419 1036 361 1065 b 221 839 267 996 243 918 b 51 581 160 767 100 678 b 33 535 36 550 33 543 b 107 439 33 514 58 478 b 14 85 76 325 44 206 b 8 51 10 68 8 54 z m 176 135 b 346 768 228 339 285 554 b 574 950 425 853 493 907 b 594 735 588 879 594 803 b 243 126 594 425 456 126 b 176 135 221 126 197 129 z "},"Đ":{"ha":824,"x_min":0,"x_max":0,"o":"m 685 990 b 564 1068 649 1049 618 1068 b 432 1021 525 1068 485 1057 b 301 1072 432 1036 374 1065 b 233 839 279 996 256 918 b 64 581 172 767 113 678 b 46 535 49 550 46 543 b 119 439 46 514 71 478 b 100 367 113 415 107 390 b 36 356 69 364 43 361 b 14 261 25 347 14 297 b 17 231 14 247 15 236 l 65 235 b 26 85 53 185 39 135 b 21 51 22 68 21 54 b 79 6 21 38 53 19 b 250 -12 135 -4 201 -12 b 746 714 533 -12 746 283 b 685 990 746 851 725 924 z m 189 135 l 215 240 b 335 235 256 240 294 238 b 353 332 344 261 353 301 b 344 361 353 346 351 357 b 250 371 335 367 297 369 b 358 768 283 501 321 635 b 586 950 438 853 506 907 b 607 735 600 879 607 803 b 256 126 607 425 468 126 b 189 135 233 126 210 129 z "},"E":{"ha":646,"x_min":0,"x_max":0,"o":"m 500 926 b 706 921 568 926 640 924 b 725 1022 717 947 725 990 b 717 1050 725 1036 724 1046 b 547 1063 703 1058 635 1063 b 293 1049 388 1063 311 1056 b 254 979 282 1044 269 1032 b 118 504 217 856 171 694 b 28 489 69 500 35 494 b 6 394 17 481 6 431 b 8 364 6 381 7 369 b 82 369 35 365 60 368 l 7 85 b 1 51 3 68 1 57 b 90 -4 1 36 47 7 b 315 3 122 0 224 3 b 551 -4 368 3 418 1 b 571 99 563 24 571 67 b 563 126 571 113 569 122 b 329 139 549 135 481 139 b 171 135 267 139 211 138 b 235 378 190 213 211 294 b 306 379 258 379 282 379 b 493 374 360 379 418 378 b 511 471 503 400 511 442 b 503 501 511 483 510 497 b 349 513 490 510 425 513 b 271 511 322 513 296 513 b 388 924 307 646 347 785 b 500 926 419 925 458 926 z "},"É":{"ha":646,"x_min":0,"x_max":0,"o":"m 472 1106 b 665 1193 503 1106 611 1153 b 692 1225 688 1210 692 1218 b 618 1324 692 1244 644 1310 b 396 1193 540 1275 464 1231 b 472 1106 403 1161 446 1106 z m 1 51 b 90 -4 1 36 47 7 b 315 3 122 0 224 3 b 551 -4 368 3 418 1 b 571 99 563 24 571 67 b 563 126 571 113 569 122 b 329 139 549 135 481 139 b 171 135 267 139 211 138 b 235 378 190 213 211 294 b 306 379 258 379 282 379 b 493 374 360 379 418 378 b 511 471 503 400 511 442 b 503 501 511 483 510 497 b 349 513 490 510 425 513 b 271 511 322 513 296 513 b 388 924 307 646 347 785 b 500 926 419 925 458 926 b 706 921 568 926 640 924 b 725 1022 717 947 725 990 b 717 1050 725 1036 724 1046 b 547 1063 703 1058 635 1063 b 293 1049 388 1063 311 1056 b 254 979 282 1044 269 1032 b 118 504 217 856 171 694 b 28 489 69 500 35 494 b 6 394 17 481 6 431 b 8 364 6 381 7 369 b 82 369 35 365 60 368 l 7 85 b 1 51 3 68 1 57 z "},"Ě":{"ha":646,"x_min":0,"x_max":0,"o":"m 704 1214 b 640 1307 703 1239 669 1307 b 494 1236 610 1307 549 1276 b 383 1315 454 1278 408 1315 b 299 1236 357 1315 308 1264 b 469 1097 358 1193 415 1146 b 704 1214 546 1142 618 1176 z m 1 51 b 90 -4 1 36 47 7 b 315 3 122 0 224 3 b 551 -4 368 3 418 1 b 571 99 563 24 571 67 b 563 126 571 113 569 122 b 329 139 549 135 481 139 b 171 135 267 139 211 138 b 235 378 190 213 211 294 b 306 379 258 379 282 379 b 493 374 360 379 418 378 b 511 471 503 400 511 442 b 503 501 511 483 510 497 b 349 513 490 510 425 513 b 271 511 322 513 296 513 b 388 924 307 646 347 785 b 500 926 419 925 458 926 b 706 921 568 926 640 924 b 725 1022 717 947 725 990 b 717 1050 725 1036 724 1046 b 547 1063 703 1058 635 1063 b 293 1049 388 1063 311 1056 b 254 979 282 1044 269 1032 b 118 504 217 856 171 694 b 28 489 69 500 35 494 b 6 394 17 481 6 431 b 8 364 6 381 7 369 b 82 369 35 365 60 368 l 7 85 b 1 51 3 68 1 57 z "},"Ê":{"ha":646,"x_min":0,"x_max":0,"o":"m 374 1106 b 519 1176 404 1106 465 1136 b 631 1097 560 1135 606 1097 b 715 1176 657 1097 706 1149 b 544 1315 656 1219 599 1267 b 310 1199 468 1271 396 1236 b 374 1106 311 1174 344 1106 z m 1 51 b 90 -4 1 36 47 7 b 315 3 122 0 224 3 b 551 -4 368 3 418 1 b 571 99 563 24 571 67 b 563 126 571 113 569 122 b 329 139 549 135 481 139 b 171 135 267 139 211 138 b 235 378 190 213 211 294 b 306 379 258 379 282 379 b 493 374 360 379 418 378 b 511 471 503 400 511 442 b 503 501 511 483 510 497 b 349 513 490 510 425 513 b 271 511 322 513 296 513 b 388 924 307 646 347 785 b 500 926 419 925 458 926 b 706 921 568 926 640 924 b 725 1022 717 947 725 990 b 717 1050 725 1036 724 1046 b 547 1063 703 1058 635 1063 b 293 1049 388 1063 311 1056 b 254 979 282 1044 269 1032 b 118 504 217 856 171 694 b 28 489 69 500 35 494 b 6 394 17 481 6 431 b 8 364 6 381 7 369 b 82 369 35 365 60 368 l 7 85 b 1 51 3 68 1 57 z "},"Ë":{"ha":646,"x_min":0,"x_max":0,"o":"m 465 1110 l 490 1196 b 503 1243 500 1225 503 1239 b 376 1313 503 1267 440 1297 l 351 1228 b 339 1179 342 1197 339 1183 b 465 1110 339 1157 403 1125 z m 1 51 b 90 -4 1 36 47 7 b 315 3 122 0 224 3 b 551 -4 368 3 418 1 b 571 99 563 24 571 67 b 563 126 571 113 569 122 b 329 139 549 135 481 139 b 171 135 267 139 211 138 b 235 378 190 213 211 294 b 306 379 258 379 282 379 b 493 374 360 379 418 378 b 511 471 503 400 511 442 b 503 501 511 483 510 497 b 349 513 490 510 425 513 b 271 511 322 513 296 513 b 388 924 307 646 347 785 b 500 926 419 925 458 926 b 706 921 568 926 640 924 b 725 1022 717 947 725 990 b 717 1050 725 1036 724 1046 b 547 1063 703 1058 635 1063 b 293 1049 388 1063 311 1056 b 254 979 282 1044 269 1032 b 118 504 217 856 171 694 b 28 489 69 500 35 494 b 6 394 17 481 6 431 b 8 364 6 381 7 369 b 82 369 35 365 60 368 l 7 85 b 1 51 3 68 1 57 z m 557 1163 b 683 1093 557 1140 621 1108 l 708 1179 b 721 1226 718 1208 721 1222 b 594 1296 721 1250 658 1281 l 569 1211 b 557 1163 560 1181 557 1167 z "},"Ė":{"ha":646,"x_min":0,"x_max":0,"o":"m 581 1106 l 607 1196 b 619 1246 617 1228 619 1242 b 488 1319 619 1269 554 1303 l 460 1229 b 447 1178 450 1197 447 1183 b 581 1106 447 1154 514 1121 z m 1 51 b 90 -4 1 36 47 7 b 315 3 122 0 224 3 b 551 -4 368 3 418 1 b 571 99 563 24 571 67 b 563 126 571 113 569 122 b 329 139 549 135 481 139 b 171 135 267 139 211 138 b 235 378 190 213 211 294 b 306 379 258 379 282 379 b 493 374 360 379 418 378 b 511 471 503 400 511 442 b 503 501 511 483 510 497 b 349 513 490 510 425 513 b 271 511 322 513 296 513 b 388 924 307 646 347 785 b 500 926 419 925 458 926 b 706 921 568 926 640 924 b 725 1022 717 947 725 990 b 717 1050 725 1036 724 1046 b 547 1063 703 1058 635 1063 b 293 1049 388 1063 311 1056 b 254 979 282 1044 269 1032 b 118 504 217 856 171 694 b 28 489 69 500 35 494 b 6 394 17 481 6 431 b 8 364 6 381 7 369 b 82 369 35 365 60 368 l 7 85 b 1 51 3 68 1 57 z "},"È":{"ha":646,"x_min":0,"x_max":0,"o":"m 388 1193 b 560 1106 442 1153 532 1106 b 636 1193 586 1106 629 1161 b 435 1324 574 1231 506 1275 b 361 1225 408 1310 361 1244 b 388 1193 361 1218 367 1208 z m 1 51 b 90 -4 1 36 47 7 b 315 3 122 0 224 3 b 551 -4 368 3 418 1 b 571 99 563 24 571 67 b 563 126 571 113 569 122 b 329 139 549 135 481 139 b 171 135 267 139 211 138 b 235 378 190 213 211 294 b 306 379 258 379 282 379 b 493 374 360 379 418 378 b 511 471 503 400 511 442 b 503 501 511 483 510 497 b 349 513 490 510 425 513 b 271 511 322 513 296 513 b 388 924 307 646 347 785 b 500 926 419 925 458 926 b 706 921 568 926 640 924 b 725 1022 717 947 725 990 b 717 1050 725 1036 724 1046 b 547 1063 703 1058 635 1063 b 293 1049 388 1063 311 1056 b 254 979 282 1044 269 1032 b 118 504 217 856 171 694 b 28 489 69 500 35 494 b 6 394 17 481 6 431 b 8 364 6 381 7 369 b 82 369 35 365 60 368 l 7 85 b 1 51 3 68 1 57 z "},"Ē":{"ha":646,"x_min":0,"x_max":0,"o":"m 676 1113 b 686 1225 689 1147 704 1214 b 368 1213 657 1244 393 1232 b 349 1103 353 1201 340 1135 b 676 1113 475 1117 560 1122 z m 1 51 b 90 -4 1 36 47 7 b 315 3 122 0 224 3 b 551 -4 368 3 418 1 b 571 99 563 24 571 67 b 563 126 571 113 569 122 b 329 139 549 135 481 139 b 171 135 267 139 211 138 b 235 378 190 213 211 294 b 306 379 258 379 282 379 b 493 374 360 379 418 378 b 511 471 503 400 511 442 b 503 501 511 483 510 497 b 349 513 490 510 425 513 b 271 511 322 513 296 513 b 388 924 307 646 347 785 b 500 926 419 925 458 926 b 706 921 568 926 640 924 b 725 1022 717 947 725 990 b 717 1050 725 1036 724 1046 b 547 1063 703 1058 635 1063 b 293 1049 388 1063 311 1056 b 254 979 282 1044 269 1032 b 118 504 217 856 171 694 b 28 489 69 500 35 494 b 6 394 17 481 6 431 b 8 364 6 381 7 369 b 82 369 35 365 60 368 l 7 85 b 1 51 3 68 1 57 z "},"Ę":{"ha":646,"x_min":0,"x_max":0,"o":"m 500 926 b 706 921 568 926 640 924 b 725 1022 717 947 725 990 b 717 1050 725 1036 724 1046 b 547 1063 703 1058 635 1063 b 293 1049 388 1063 311 1056 b 254 979 282 1044 269 1032 b 118 504 217 856 171 694 b 28 489 69 500 35 494 b 6 394 17 481 6 431 b 8 364 6 381 7 369 b 82 369 35 365 60 368 l 7 85 b 1 51 3 68 1 57 b 90 -4 1 36 47 7 b 315 3 122 0 224 3 l 356 3 b 224 -175 246 -78 224 -128 b 235 -222 224 -186 226 -204 b 372 -318 258 -276 317 -318 b 501 -250 436 -318 501 -285 b 478 -158 501 -228 486 -165 b 358 -211 450 -187 397 -211 b 301 -190 336 -211 317 -204 b 532 -3 332 -146 404 -92 b 551 -4 538 -4 544 -4 b 558 17 554 3 557 10 b 560 21 560 18 560 19 b 571 99 567 46 571 75 b 563 126 571 113 569 122 b 329 139 549 135 481 139 b 171 135 267 139 211 138 b 235 378 190 213 211 294 b 306 379 258 379 282 379 b 493 374 360 379 418 378 b 511 471 503 400 511 442 b 503 501 511 483 510 497 b 349 513 490 510 425 513 b 271 511 322 513 296 513 b 388 924 307 646 347 785 b 500 926 419 925 458 926 z "},"F":{"ha":600,"x_min":0,"x_max":0,"o":"m 499 926 b 704 921 567 926 639 924 b 724 1022 715 947 724 990 b 715 1050 724 1036 722 1046 b 546 1063 701 1058 633 1063 b 292 1049 386 1063 310 1056 b 253 979 281 1044 268 1032 b 114 493 215 853 168 690 b 26 478 67 489 33 483 b 4 383 15 469 4 419 b 7 353 4 369 6 358 b 78 358 32 354 56 357 b 1 68 54 268 28 171 b -4 35 -4 46 -4 38 b 129 -17 -4 19 57 -10 b 229 367 163 115 196 243 b 304 368 254 368 279 368 b 492 363 358 368 417 367 b 510 460 501 389 510 431 b 501 490 510 472 508 486 b 347 501 489 499 424 501 b 265 500 319 501 292 501 b 386 924 306 644 344 785 b 499 926 418 925 457 926 z "},"G":{"ha":676,"x_min":0,"x_max":0,"o":"m 494 650 b 606 603 514 628 582 603 b 703 815 660 603 703 740 b 651 954 703 867 683 910 b 489 1069 601 1025 542 1069 b 13 244 308 1069 13 553 b 124 35 13 146 43 89 b 249 -11 174 1 217 -11 b 424 86 297 -11 368 18 b 419 58 421 74 419 63 b 535 -10 419 33 469 4 b 613 315 558 56 613 275 b 492 411 613 360 547 400 b 164 108 413 232 319 117 b 550 969 150 438 321 825 b 563 885 557 949 563 921 b 494 650 563 793 526 700 z "},"Ğ":{"ha":676,"x_min":0,"x_max":0,"o":"m 561 1122 b 738 1264 697 1122 736 1235 b 644 1289 738 1276 701 1292 b 569 1213 626 1239 600 1213 b 525 1274 540 1213 525 1232 b 432 1290 525 1290 488 1297 b 561 1122 411 1213 444 1122 z m 13 244 b 124 35 13 146 43 89 b 249 -11 174 1 217 -11 b 424 86 297 -11 368 18 b 419 58 421 74 419 63 b 535 -10 419 33 469 4 b 613 315 558 56 613 275 b 492 411 613 360 547 400 b 164 108 413 232 319 117 b 550 969 150 438 321 825 b 563 885 557 949 563 921 b 494 650 563 793 526 700 b 606 603 514 628 582 603 b 703 815 660 603 703 740 b 651 954 703 867 683 910 b 489 1069 601 1025 542 1069 b 13 244 308 1069 13 553 z "},"Ģ":{"ha":676,"x_min":0,"x_max":0,"o":"m 494 650 b 606 603 514 628 582 603 b 703 815 660 603 703 740 b 651 954 703 867 683 910 b 489 1069 601 1025 542 1069 b 13 244 308 1069 13 553 b 124 35 13 146 43 89 b 249 -11 174 1 217 -11 b 424 86 297 -11 368 18 b 419 58 421 74 419 63 b 535 -10 419 33 469 4 b 613 315 558 56 613 275 b 492 411 613 360 547 400 b 164 108 413 232 319 117 b 550 969 150 438 321 825 b 563 885 557 949 563 921 b 494 650 563 793 526 700 z m 104 -278 b 203 -337 104 -297 157 -329 b 308 -125 264 -262 308 -144 b 207 -64 308 -103 253 -72 b 104 -278 149 -208 104 -260 z "},"Ġ":{"ha":676,"x_min":0,"x_max":0,"o":"m 622 1106 l 649 1196 b 661 1246 658 1228 661 1242 b 529 1319 661 1269 596 1303 l 501 1229 b 489 1178 492 1197 489 1183 b 622 1106 489 1154 556 1121 z m 13 244 b 124 35 13 146 43 89 b 249 -11 174 1 217 -11 b 424 86 297 -11 368 18 b 419 58 421 74 419 63 b 535 -10 419 33 469 4 b 613 315 558 56 613 275 b 492 411 613 360 547 400 b 164 108 413 232 319 117 b 550 969 150 438 321 825 b 563 885 557 949 563 921 b 494 650 563 793 526 700 b 606 603 514 628 582 603 b 703 815 660 603 703 740 b 651 954 703 867 683 910 b 489 1069 601 1025 542 1069 b 13 244 308 1069 13 553 z "},"H":{"ha":779,"x_min":0,"x_max":0,"o":"m 724 1072 b 565 513 672 899 621 717 b 239 494 458 507 331 501 b 379 988 285 663 331 825 b 386 1021 386 1010 386 1018 b 253 1072 386 1036 325 1065 b -24 68 167 782 81 469 b -29 35 -29 46 -29 38 b 104 -17 -29 19 32 -10 b 201 356 136 113 168 236 b 528 376 296 364 417 371 b 447 68 503 279 475 176 b 442 35 442 46 442 38 b 575 -17 442 19 503 -10 b 850 988 667 346 754 668 b 857 1021 857 1010 857 1018 b 724 1072 857 1036 796 1065 z "},"Ħ":{"ha":806,"x_min":0,"x_max":0,"o":"m 871 815 b 863 838 871 826 868 833 b 813 844 857 840 839 843 l 854 988 b 861 1021 861 1010 861 1018 b 728 1072 861 1036 800 1065 l 663 850 b 342 847 564 851 444 851 l 383 988 b 390 1021 390 1010 390 1018 b 257 1072 390 1036 329 1065 l 189 839 b 110 825 146 835 117 831 b 88 750 99 817 88 775 b 90 733 88 743 89 738 b 160 736 114 735 138 736 b -19 68 104 538 46 321 b -25 35 -25 46 -25 38 b 108 -17 -25 19 36 -10 b 206 356 140 113 172 236 b 532 376 300 364 421 371 b 451 68 507 279 479 176 b 446 35 446 46 446 38 b 579 -17 446 19 507 -10 b 783 746 647 254 714 504 b 853 743 807 744 829 744 b 871 815 861 758 871 796 z m 243 494 b 311 743 265 579 289 661 b 635 749 422 747 529 749 b 569 513 613 672 592 594 b 243 494 463 507 335 501 z "},"I":{"ha":333,"x_min":0,"x_max":0,"o":"m 117 -17 b 392 988 208 346 296 668 b 399 1021 399 1010 399 1018 b 265 1072 399 1036 338 1065 b -11 68 179 782 93 469 b -17 35 -17 46 -17 38 b 117 -17 -17 19 44 -10 z "},"Í":{"ha":333,"x_min":0,"x_max":0,"o":"m 321 1106 b 514 1193 351 1106 460 1153 b 540 1225 536 1210 540 1218 b 467 1324 540 1244 493 1310 b 244 1193 389 1275 313 1231 b 321 1106 251 1161 294 1106 z m -17 35 b 117 -17 -17 19 44 -10 b 392 988 208 346 296 668 b 399 1021 399 1010 399 1018 b 265 1072 399 1036 338 1065 b -11 68 179 782 93 469 b -17 35 -17 46 -17 38 z "},"Î":{"ha":333,"x_min":0,"x_max":0,"o":"m 393 1315 b 158 1199 317 1271 244 1236 b 222 1106 160 1174 193 1106 b 368 1176 253 1106 314 1136 b 479 1097 408 1135 454 1097 b 564 1176 506 1097 554 1149 b 393 1315 504 1219 447 1267 z m -17 35 b 117 -17 -17 19 44 -10 b 392 988 208 346 296 668 b 399 1021 399 1010 399 1018 b 265 1072 399 1036 338 1065 b -11 68 179 782 93 469 b -17 35 -17 46 -17 38 z "},"Ï":{"ha":333,"x_min":0,"x_max":0,"o":"m 225 1313 l 200 1228 b 188 1179 190 1197 188 1183 b 314 1110 188 1157 251 1125 l 339 1196 b 351 1243 349 1225 351 1239 b 225 1313 351 1267 289 1297 z m -17 35 b 117 -17 -17 19 44 -10 b 392 988 208 346 296 668 b 399 1021 399 1010 399 1018 b 265 1072 399 1036 338 1065 b -11 68 179 782 93 469 b -17 35 -17 46 -17 38 z m 406 1163 b 532 1093 406 1140 469 1108 l 557 1179 b 569 1226 567 1208 569 1222 b 443 1296 569 1250 507 1281 l 418 1211 b 406 1163 408 1181 406 1167 z "},"İ":{"ha":333,"x_min":0,"x_max":0,"o":"m 329 1319 l 301 1229 b 289 1178 292 1197 289 1183 b 422 1106 289 1154 356 1121 l 449 1196 b 461 1246 458 1228 461 1242 b 329 1319 461 1269 396 1303 z m -17 35 b 117 -17 -17 19 44 -10 b 392 988 208 346 296 668 b 399 1021 399 1010 399 1018 b 265 1072 399 1036 338 1065 b -11 68 179 782 93 469 b -17 35 -17 46 -17 38 z "},"Ì":{"ha":333,"x_min":0,"x_max":0,"o":"m 236 1193 b 408 1106 290 1153 381 1106 b 485 1193 435 1106 478 1161 b 283 1324 422 1231 354 1275 b 210 1225 257 1310 210 1244 b 236 1193 210 1218 215 1208 z m -17 35 b 117 -17 -17 19 44 -10 b 392 988 208 346 296 668 b 399 1021 399 1010 399 1018 b 265 1072 399 1036 338 1065 b -11 68 179 782 93 469 b -17 35 -17 46 -17 38 z "},"Ī":{"ha":333,"x_min":0,"x_max":0,"o":"m 197 1103 b 525 1113 324 1117 408 1122 b 535 1225 538 1147 553 1214 b 217 1213 506 1244 242 1232 b 197 1103 201 1201 189 1135 z m -17 35 b 117 -17 -17 19 44 -10 b 392 988 208 346 296 668 b 399 1021 399 1010 399 1018 b 265 1072 399 1036 338 1065 b -11 68 179 782 93 469 b -17 35 -17 46 -17 38 z "},"Į":{"ha":333,"x_min":0,"x_max":0,"o":"m 399 1021 b 265 1072 399 1036 338 1065 b -11 68 179 782 93 469 b -17 39 -15 51 -17 43 b -200 -175 -172 -64 -200 -121 b -189 -222 -200 -186 -197 -204 b -51 -318 -165 -276 -107 -318 b 78 -250 13 -318 78 -285 b 54 -158 78 -228 63 -165 b -65 -211 26 -187 -26 -211 b -122 -190 -87 -211 -107 -204 b 93 -14 -93 -147 -25 -96 l 117 -17 b 122 7 118 -8 121 -1 l 129 11 b 136 22 135 15 136 18 b 129 32 136 25 133 28 b 392 988 217 375 300 682 b 399 1021 399 1010 399 1018 z "},"J":{"ha":578,"x_min":0,"x_max":0,"o":"m 576 1061 b 411 1049 532 1053 472 1049 b 225 1058 346 1049 279 1053 b 208 957 217 1029 208 999 b 219 925 208 940 211 931 b 347 913 233 917 286 913 b 493 918 396 913 450 915 l 457 775 b 143 106 343 325 246 176 b 136 190 138 131 136 160 b 181 457 136 292 160 406 b 69 496 161 471 92 496 b -11 226 26 496 -11 338 b 58 50 -11 168 -3 108 b 188 -14 100 11 151 -14 b 572 654 290 -14 442 174 l 640 906 b 656 988 649 938 656 974 b 576 1061 656 1024 610 1047 z "},"K":{"ha":693,"x_min":0,"x_max":0,"o":"m 857 981 b 736 1056 836 1006 774 1056 b 715 1043 731 1056 724 1053 b 240 488 560 856 404 671 b 383 988 288 658 335 824 b 390 1021 390 1010 390 1018 b 257 1072 390 1036 329 1065 b -19 68 171 782 85 469 b -25 35 -25 46 -25 38 b 108 -17 -25 19 36 -10 b 204 356 140 113 172 235 b 471 -51 290 208 390 57 b 508 -82 490 -78 500 -82 b 638 -26 528 -82 617 -49 b 347 396 533 111 439 251 b 857 981 522 589 690 782 z m 232 457 b 235 468 233 460 235 464 l 239 464 z "},"Ķ":{"ha":693,"x_min":0,"x_max":0,"o":"m 857 981 b 736 1056 836 1006 774 1056 b 715 1043 731 1056 724 1053 b 240 488 560 856 404 671 b 383 988 288 658 335 824 b 390 1021 390 1010 390 1018 b 257 1072 390 1036 329 1065 b -19 68 171 782 85 469 b -25 35 -25 46 -25 38 b 108 -17 -25 19 36 -10 b 204 356 140 113 172 235 b 471 -51 290 208 390 57 b 508 -82 490 -78 500 -82 b 638 -26 528 -82 617 -49 b 347 396 533 111 439 251 b 857 981 522 589 690 782 z m 118 -278 b 217 -337 118 -297 171 -329 b 322 -125 278 -262 322 -144 b 221 -64 322 -103 267 -72 b 118 -278 163 -208 118 -260 z m 232 457 b 235 468 233 460 235 464 l 239 464 z "},"L":{"ha":614,"x_min":0,"x_max":0,"o":"m 63 -4 b 288 3 96 0 196 3 b 525 -4 340 3 388 1 b 543 101 532 15 543 67 b 535 129 543 117 542 125 b 301 142 521 138 461 142 b 143 139 239 142 185 142 b 378 988 210 397 290 694 b 385 1021 385 1010 385 1018 b 251 1072 385 1036 324 1065 b -21 85 165 782 79 469 b -26 51 -25 68 -26 57 b 63 -4 -26 36 19 7 z "},"Ĺ":{"ha":614,"x_min":0,"x_max":0,"o":"m 357 1106 b 550 1193 388 1106 496 1153 b 576 1225 572 1210 576 1218 b 503 1324 576 1244 529 1310 b 281 1193 425 1275 349 1231 b 357 1106 288 1161 331 1106 z m -26 51 b 63 -4 -26 36 19 7 b 288 3 96 0 196 3 b 525 -4 340 3 388 1 b 543 101 532 15 543 67 b 535 129 543 117 542 125 b 301 142 521 138 461 142 b 143 139 239 142 185 142 b 378 988 210 397 290 694 b 385 1021 385 1010 385 1018 b 251 1072 385 1036 324 1065 b -21 85 165 782 79 469 b -26 51 -25 68 -26 57 z "},"Ľ":{"ha":614,"x_min":0,"x_max":0,"o":"m 63 -4 b 288 3 96 0 196 3 b 525 -4 340 3 388 1 b 543 101 532 15 543 67 b 535 129 543 117 542 125 b 301 142 521 138 461 142 b 143 139 239 142 185 142 b 378 988 210 397 290 694 b 385 1021 385 1010 385 1018 b 251 1072 385 1036 324 1065 b -21 85 165 782 79 469 b -26 51 -25 68 -26 57 b 63 -4 -26 36 19 7 z m 417 856 b 515 796 417 836 469 804 b 621 1008 576 871 621 989 b 519 1069 621 1031 565 1061 b 417 856 461 925 417 874 z "},"Ļ":{"ha":614,"x_min":0,"x_max":0,"o":"m 63 -4 b 288 3 96 0 196 3 b 525 -4 340 3 388 1 b 543 101 532 15 543 67 b 535 129 543 117 542 125 b 301 142 521 138 461 142 b 143 139 239 142 185 142 b 378 988 210 397 290 694 b 385 1021 385 1010 385 1018 b 251 1072 385 1036 324 1065 b -21 85 165 782 79 469 b -26 51 -25 68 -26 57 b 63 -4 -26 36 19 7 z m 96 -278 b 194 -337 96 -297 149 -329 b 300 -125 256 -262 300 -144 b 199 -64 300 -103 244 -72 b 96 -278 140 -208 96 -260 z "},"Ł":{"ha":614,"x_min":0,"x_max":0,"o":"m 535 129 b 301 142 521 138 461 142 b 143 139 239 142 185 142 b 249 538 175 264 211 399 b 501 624 333 569 417 599 b 490 708 504 642 496 690 b 475 726 486 719 481 725 b 286 669 460 729 379 704 b 378 988 315 775 346 882 b 385 1021 385 1010 385 1018 b 251 1072 385 1036 324 1065 b 118 606 207 925 164 771 b -33 529 39 572 -25 542 b -25 440 -40 517 -33 464 b -17 425 -22 433 -18 429 b 81 468 17 440 49 454 b -21 85 49 347 14 221 b -26 51 -25 68 -26 57 b 63 -4 -26 36 19 7 b 288 3 96 0 196 3 b 525 -4 340 3 388 1 b 543 101 532 15 543 67 b 535 129 543 117 542 125 z "},"M":{"ha":958,"x_min":0,"x_max":0,"o":"m 881 1072 b 411 225 726 786 572 507 b 413 954 413 408 413 700 b 403 1021 413 1003 411 1013 b 260 1072 386 1036 325 1058 b -24 68 160 738 65 403 b -29 35 -29 46 -29 38 b 104 -17 -29 19 32 -10 b 285 661 163 210 221 435 b 278 100 281 474 279 288 b 288 51 278 74 282 58 b 429 -15 301 32 375 0 b 782 621 550 197 665 408 b 626 68 728 438 675 251 b 621 35 621 46 621 38 b 754 -17 621 19 682 -10 b 1029 988 842 318 933 653 b 1036 1021 1036 1010 1036 1018 b 881 1072 1036 1036 954 1065 z "},"N":{"ha":783,"x_min":0,"x_max":0,"o":"m 724 1058 b 515 292 653 785 586 535 b 415 950 469 542 432 810 b 401 994 413 978 407 988 b 250 1058 385 1015 310 1046 b -24 68 165 772 79 464 b -29 35 -29 46 -29 38 b 104 -17 -29 19 32 -10 b 303 721 171 244 236 486 b 415 97 328 513 367 306 b 432 53 421 71 425 60 b 578 -11 450 35 513 3 b 851 974 663 275 749 578 b 857 1007 857 996 857 1004 b 724 1058 857 1022 796 1051 z "},"Ń":{"ha":783,"x_min":0,"x_max":0,"o":"m 521 1106 b 714 1193 551 1106 660 1153 b 740 1225 736 1210 740 1218 b 667 1324 740 1244 693 1310 b 444 1193 589 1275 513 1231 b 521 1106 451 1161 494 1106 z m -29 35 b 104 -17 -29 19 32 -10 b 303 721 171 244 236 486 b 415 97 328 513 367 306 b 432 53 421 71 425 60 b 578 -11 450 35 513 3 b 851 974 663 275 749 578 b 857 1007 857 996 857 1004 b 724 1058 857 1022 796 1051 b 515 292 653 785 586 535 b 415 950 469 542 432 810 b 401 994 413 978 407 988 b 250 1058 385 1015 310 1046 b -24 68 165 772 79 464 b -29 35 -29 46 -29 38 z "},"Ň":{"ha":783,"x_min":0,"x_max":0,"o":"m 753 1214 b 689 1307 751 1239 718 1307 b 543 1236 658 1307 597 1276 b 432 1315 503 1278 457 1315 b 347 1236 406 1315 357 1264 b 518 1097 407 1193 464 1146 b 753 1214 594 1142 667 1176 z m -29 35 b 104 -17 -29 19 32 -10 b 303 721 171 244 236 486 b 415 97 328 513 367 306 b 432 53 421 71 425 60 b 578 -11 450 35 513 3 b 851 974 663 275 749 578 b 857 1007 857 996 857 1004 b 724 1058 857 1022 796 1051 b 515 292 653 785 586 535 b 415 950 469 542 432 810 b 401 994 413 978 407 988 b 250 1058 385 1015 310 1046 b -24 68 165 772 79 464 b -29 35 -29 46 -29 38 z "},"Ņ":{"ha":783,"x_min":0,"x_max":0,"o":"m 724 1058 b 515 292 653 785 586 535 b 415 950 469 542 432 810 b 401 994 413 978 407 988 b 250 1058 385 1015 310 1046 b -24 68 165 772 79 464 b -29 35 -29 46 -29 38 b 104 -17 -29 19 32 -10 b 303 721 171 244 236 486 b 415 97 328 513 367 306 b 432 53 421 71 425 60 b 578 -11 450 35 513 3 b 851 974 663 275 749 578 b 857 1007 857 996 857 1004 b 724 1058 857 1022 796 1051 z m 136 -278 b 235 -337 136 -297 189 -329 b 340 -125 296 -262 340 -144 b 239 -64 340 -103 285 -72 b 136 -278 181 -208 136 -260 z "},"Ŋ":{"ha":783,"x_min":0,"x_max":0,"o":"m 724 1058 b 515 292 653 785 586 535 b 415 950 469 542 432 810 b 401 994 413 978 407 988 b 250 1058 385 1015 310 1046 b -24 68 165 772 79 464 b -29 35 -29 46 -29 38 b 104 -17 -29 19 32 -10 b 303 721 171 244 236 486 b 415 97 328 513 367 306 b 432 53 421 71 425 60 b 461 33 438 47 447 40 b 275 -211 404 -143 347 -211 b 160 -160 221 -211 188 -192 b 115 -243 140 -176 115 -215 b 289 -336 115 -289 185 -336 b 578 -11 419 -336 510 -243 b 851 974 663 275 749 578 b 857 1007 857 996 857 1004 b 724 1058 857 1022 796 1051 z "},"Ñ":{"ha":783,"x_min":0,"x_max":0,"o":"m 429 1142 b 501 1182 451 1169 481 1182 b 624 1129 535 1182 582 1129 b 788 1244 683 1129 788 1217 b 738 1278 788 1250 765 1274 b 669 1246 715 1250 690 1246 b 547 1299 636 1246 585 1299 b 379 1175 488 1299 379 1203 b 429 1142 379 1168 401 1146 z m -29 35 b 104 -17 -29 19 32 -10 b 303 721 171 244 236 486 b 415 97 328 513 367 306 b 432 53 421 71 425 60 b 578 -11 450 35 513 3 b 851 974 663 275 749 578 b 857 1007 857 996 857 1004 b 724 1058 857 1022 796 1051 b 515 292 653 785 586 535 b 415 950 469 542 432 810 b 401 994 413 978 407 988 b 250 1058 385 1015 310 1046 b -24 68 165 772 79 464 b -29 35 -29 46 -29 38 z "},"O":{"ha":679,"x_min":0,"x_max":0,"o":"m 640 963 b 481 1069 596 1025 532 1069 b 13 242 306 1069 13 551 b 121 33 13 144 40 88 b 250 -14 168 1 211 -14 b 697 769 463 -14 697 439 b 640 963 697 826 690 893 z m 158 108 b 543 969 144 438 315 825 b 557 847 553 942 557 901 b 158 108 557 486 367 126 z "},"Ó":{"ha":679,"x_min":0,"x_max":0,"o":"m 668 1324 b 446 1193 590 1275 514 1231 b 522 1106 453 1161 496 1106 b 715 1193 553 1106 661 1153 b 742 1225 738 1210 742 1218 b 668 1324 742 1244 694 1310 z m 13 242 b 121 33 13 144 40 88 b 250 -14 168 1 211 -14 b 697 769 463 -14 697 439 b 640 963 697 826 690 893 b 481 1069 596 1025 532 1069 b 13 242 306 1069 13 551 z m 158 108 b 543 969 144 438 315 825 b 557 847 553 942 557 901 b 158 108 557 486 367 126 z "},"Ô":{"ha":679,"x_min":0,"x_max":0,"o":"m 594 1315 b 360 1199 518 1271 446 1236 b 424 1106 361 1174 394 1106 b 569 1176 454 1106 515 1136 b 681 1097 610 1135 656 1097 b 765 1176 707 1097 756 1149 b 594 1315 706 1219 649 1267 z m 13 242 b 121 33 13 144 40 88 b 250 -14 168 1 211 -14 b 697 769 463 -14 697 439 b 640 963 697 826 690 893 b 481 1069 596 1025 532 1069 b 13 242 306 1069 13 551 z m 158 108 b 543 969 144 438 315 825 b 557 847 553 942 557 901 b 158 108 557 486 367 126 z "},"Ö":{"ha":679,"x_min":0,"x_max":0,"o":"m 515 1110 l 540 1196 b 553 1243 550 1225 553 1239 b 426 1313 553 1267 490 1297 l 401 1228 b 389 1179 392 1197 389 1183 b 515 1110 389 1157 453 1125 z m 13 242 b 121 33 13 144 40 88 b 250 -14 168 1 211 -14 b 697 769 463 -14 697 439 b 640 963 697 826 690 893 b 481 1069 596 1025 532 1069 b 13 242 306 1069 13 551 z m 158 108 b 543 969 144 438 315 825 b 557 847 553 942 557 901 b 158 108 557 486 367 126 z m 607 1163 b 733 1093 607 1140 671 1108 l 758 1179 b 771 1226 768 1208 771 1222 b 644 1296 771 1250 708 1281 l 619 1211 b 607 1163 610 1181 607 1167 z "},"Ò":{"ha":679,"x_min":0,"x_max":0,"o":"m 438 1193 b 610 1106 492 1153 582 1106 b 686 1193 636 1106 679 1161 b 485 1324 624 1231 556 1275 b 411 1225 458 1310 411 1244 b 438 1193 411 1218 417 1208 z m 13 242 b 121 33 13 144 40 88 b 250 -14 168 1 211 -14 b 697 769 463 -14 697 439 b 640 963 697 826 690 893 b 481 1069 596 1025 532 1069 b 13 242 306 1069 13 551 z m 158 108 b 543 969 144 438 315 825 b 557 847 553 942 557 901 b 158 108 557 486 367 126 z "},"Ő":{"ha":679,"x_min":0,"x_max":0,"o":"m 500 1119 b 596 1206 526 1119 572 1172 b 615 1247 610 1225 615 1239 b 546 1324 615 1261 574 1319 b 426 1168 506 1268 465 1215 b 500 1119 436 1142 471 1119 z m 13 242 b 121 33 13 144 40 88 b 250 -14 168 1 211 -14 b 697 769 463 -14 697 439 b 640 963 697 826 690 893 b 481 1069 596 1025 532 1069 b 13 242 306 1069 13 551 z m 158 108 b 543 969 144 438 315 825 b 557 847 553 942 557 901 b 158 108 557 486 367 126 z m 592 1154 b 667 1106 603 1128 638 1106 b 761 1192 693 1106 738 1158 b 782 1233 775 1213 782 1225 b 711 1310 782 1247 739 1306 b 592 1154 671 1254 632 1201 z "},"Ō":{"ha":679,"x_min":0,"x_max":0,"o":"m 736 1225 b 418 1213 707 1244 443 1232 b 399 1103 403 1201 390 1135 b 726 1113 525 1117 610 1122 b 736 1225 739 1147 754 1214 z m 13 242 b 121 33 13 144 40 88 b 250 -14 168 1 211 -14 b 697 769 463 -14 697 439 b 640 963 697 826 690 893 b 481 1069 596 1025 532 1069 b 13 242 306 1069 13 551 z m 158 108 b 543 969 144 438 315 825 b 557 847 553 942 557 901 b 158 108 557 486 367 126 z "},"Ø":{"ha":679,"x_min":0,"x_max":0,"o":"m 658 940 l 685 988 b 701 1021 699 1010 701 1018 b 610 1072 701 1036 672 1065 l 583 1026 b 483 1069 550 1053 514 1069 b 15 242 308 1069 15 551 b 58 90 15 178 28 131 l 46 68 b 31 35 33 46 31 38 b 122 -17 31 19 60 -10 l 143 21 b 253 -14 183 -3 219 -14 b 700 769 465 -14 700 439 b 658 940 700 819 694 879 z m 167 261 b 546 969 200 549 353 846 b 550 953 549 964 550 958 z m 188 113 l 558 783 b 188 113 539 460 372 153 z "},"Õ":{"ha":835,"x_min":0,"x_max":0,"o":"m 751 1278 b 683 1246 729 1250 704 1246 b 561 1299 650 1246 599 1299 b 393 1175 501 1299 393 1203 b 443 1142 393 1168 415 1146 b 515 1182 465 1169 494 1182 b 638 1129 549 1182 596 1129 b 801 1244 697 1129 801 1217 b 751 1278 801 1250 779 1274 z m 25 242 b 133 33 25 144 53 88 b 263 -14 181 1 224 -14 b 710 769 475 -14 710 439 b 653 963 710 826 703 893 b 493 1069 608 1025 544 1069 b 25 242 318 1069 25 551 z m 171 108 b 556 969 157 438 328 825 b 569 847 565 942 569 901 b 171 108 569 486 379 126 z "},"Œ":{"ha":985,"x_min":0,"x_max":0,"o":"m 1044 921 b 1064 1022 1056 947 1064 990 b 1056 1050 1064 1036 1063 1046 b 861 1063 1042 1058 974 1063 b 553 1046 688 1063 596 1057 b 481 1069 528 1061 503 1069 b 13 242 306 1069 13 551 b 121 33 13 144 40 88 b 250 -14 168 1 211 -14 b 364 25 288 -14 326 0 b 429 -4 381 14 406 1 b 654 3 461 0 563 3 b 890 -4 707 3 757 1 b 910 99 901 24 910 67 b 901 126 910 113 908 122 b 668 139 888 135 819 139 b 475 133 586 139 517 136 b 613 379 528 201 575 286 l 644 379 b 832 374 699 379 757 378 b 850 471 842 400 850 442 b 842 501 850 483 849 497 b 688 513 829 510 764 513 l 658 513 b 697 769 683 600 697 689 b 664 924 697 815 693 868 b 839 926 714 925 775 926 b 1044 921 907 926 979 924 z m 158 108 b 543 969 144 438 315 825 b 557 847 553 942 557 901 b 158 108 557 486 367 126 z "},"P":{"ha":644,"x_min":0,"x_max":0,"o":"m 647 985 b 536 1068 606 1049 576 1068 b 418 1017 499 1068 461 1050 l 418 1021 b 288 1072 418 1036 360 1065 b 219 839 265 997 242 919 b 50 581 158 767 99 678 b 32 535 35 550 32 542 b 106 439 32 514 57 478 b 8 68 75 322 42 200 b 3 35 3 46 3 38 b 136 -17 3 19 64 -10 b 207 256 160 76 183 168 b 261 250 225 251 243 250 b 701 814 490 250 701 561 b 647 985 701 879 688 924 z m 240 382 b 346 764 275 513 310 639 b 576 951 415 853 489 907 b 581 901 579 938 581 922 b 240 382 581 675 439 411 z "},"Þ":{"ha":644,"x_min":0,"x_max":0,"o":"m 621 860 b 504 943 579 924 550 943 b 383 899 464 943 424 928 l 410 988 b 417 1021 417 1010 417 1018 b 283 1072 417 1036 356 1065 b 178 704 249 954 214 833 b 24 456 122 633 71 549 b 6 410 8 425 6 417 b 72 319 6 390 28 357 b 7 68 51 239 29 156 b 1 35 1 46 1 38 b 135 -17 1 19 63 -10 l 172 133 b 235 125 194 128 214 125 b 675 689 464 125 675 436 b 621 860 675 754 661 799 z m 206 257 b 304 625 238 383 271 506 b 550 828 378 717 456 778 b 554 776 553 815 554 799 b 206 257 554 547 408 278 z "},"Q":{"ha":679,"x_min":0,"x_max":0,"o":"m 697 769 b 640 963 697 826 690 893 b 481 1069 596 1025 532 1069 b 13 242 306 1069 13 551 b 121 33 13 144 40 88 b 231 -12 161 7 197 -8 l 289 -122 b 329 -144 297 -137 303 -144 b 438 -110 367 -144 419 -125 l 363 25 b 697 769 538 142 697 497 z m 158 108 b 543 969 144 438 315 825 b 557 847 553 942 557 901 b 158 108 557 486 367 126 z "},"R":{"ha":688,"x_min":0,"x_max":0,"o":"m 329 314 b 706 817 536 356 706 597 b 651 985 706 879 692 924 b 539 1068 610 1049 581 1068 b 418 1017 500 1068 461 1050 l 418 1021 b 288 1072 418 1036 360 1065 b 219 839 265 997 242 919 b 50 581 158 767 99 678 b 32 535 35 550 32 542 b 106 439 32 514 57 478 b 8 68 75 322 42 200 b 3 35 3 46 3 38 b 136 -17 3 19 64 -10 b 203 242 158 72 181 158 b 507 -68 288 143 404 24 b 529 -82 517 -78 524 -82 b 653 -6 549 -82 635 -29 b 329 314 571 68 435 200 z m 247 413 b 346 765 281 532 313 650 b 581 953 417 854 490 908 b 585 904 583 940 585 925 b 247 413 585 689 444 458 z "},"Ŕ":{"ha":688,"x_min":0,"x_max":0,"o":"m 643 1324 b 421 1193 565 1275 489 1231 b 497 1106 428 1161 471 1106 b 690 1193 528 1106 636 1153 b 717 1225 713 1210 717 1218 b 643 1324 717 1244 669 1310 z m 3 35 b 136 -17 3 19 64 -10 b 203 242 158 72 181 158 b 507 -68 288 143 404 24 b 529 -82 517 -78 524 -82 b 653 -6 549 -82 635 -29 b 329 314 571 68 435 200 b 706 817 536 356 706 597 b 651 985 706 879 692 924 b 539 1068 610 1049 581 1068 b 418 1017 500 1068 461 1050 l 418 1021 b 288 1072 418 1036 360 1065 b 219 839 265 997 242 919 b 50 581 158 767 99 678 b 32 535 35 550 32 542 b 106 439 32 514 57 478 b 8 68 75 322 42 200 b 3 35 3 46 3 38 z m 247 413 b 346 765 281 532 313 650 b 581 953 417 854 490 908 b 585 904 583 940 585 925 b 247 413 585 689 444 458 z "},"Ř":{"ha":688,"x_min":0,"x_max":0,"o":"m 729 1214 b 665 1307 728 1239 694 1307 b 519 1236 635 1307 574 1276 b 408 1315 479 1278 433 1315 b 324 1236 382 1315 333 1264 b 494 1097 383 1193 440 1146 b 729 1214 571 1142 643 1176 z m 3 35 b 136 -17 3 19 64 -10 b 203 242 158 72 181 158 b 507 -68 288 143 404 24 b 529 -82 517 -78 524 -82 b 653 -6 549 -82 635 -29 b 329 314 571 68 435 200 b 706 817 536 356 706 597 b 651 985 706 879 692 924 b 539 1068 610 1049 581 1068 b 418 1017 500 1068 461 1050 l 418 1021 b 288 1072 418 1036 360 1065 b 219 839 265 997 242 919 b 50 581 158 767 99 678 b 32 535 35 550 32 542 b 106 439 32 514 57 478 b 8 68 75 322 42 200 b 3 35 3 46 3 38 z m 247 413 b 346 765 281 532 313 650 b 581 953 417 854 490 908 b 585 904 583 940 585 925 b 247 413 585 689 444 458 z "},"Ŗ":{"ha":688,"x_min":0,"x_max":0,"o":"m 329 314 b 706 817 536 356 706 597 b 651 985 706 879 692 924 b 539 1068 610 1049 581 1068 b 418 1017 500 1068 461 1050 l 418 1021 b 288 1072 418 1036 360 1065 b 219 839 265 997 242 919 b 50 581 158 767 99 678 b 32 535 35 550 32 542 b 106 439 32 514 57 478 b 8 68 75 322 42 200 b 3 35 3 46 3 38 b 136 -17 3 19 64 -10 b 203 242 158 72 181 158 b 507 -68 288 143 404 24 b 529 -82 517 -78 524 -82 b 653 -6 549 -82 635 -29 b 329 314 571 68 435 200 z m 128 -278 b 226 -337 128 -297 181 -329 b 332 -125 288 -262 332 -144 b 231 -64 332 -103 276 -72 b 128 -278 172 -208 128 -260 z m 247 413 b 346 765 281 532 313 650 b 581 953 417 854 490 908 b 585 904 583 940 585 925 b 247 413 585 689 444 458 z "},"S":{"ha":615,"x_min":0,"x_max":0,"o":"m 575 1010 b 489 1074 540 1056 515 1074 b 82 575 375 1074 143 739 b 71 528 74 554 71 543 b 100 436 71 500 81 461 b 443 242 300 357 400 293 b 268 132 407 167 344 132 b 15 236 185 132 79 169 b -39 128 -11 215 -39 158 b 238 -12 -39 60 99 -12 b 521 174 365 -12 468 53 b 549 285 540 218 549 260 b 231 539 549 396 385 476 b 504 928 304 685 390 824 l 504 926 b 438 669 504 846 469 717 b 554 624 460 647 533 624 b 643 844 606 624 643 778 b 575 1010 643 903 614 960 z "},"Ś":{"ha":615,"x_min":0,"x_max":0,"o":"m 643 1324 b 421 1193 565 1275 489 1231 b 497 1106 428 1161 471 1106 b 690 1193 528 1106 636 1153 b 717 1225 713 1210 717 1218 b 643 1324 717 1244 669 1310 z m -39 128 b 238 -12 -39 60 99 -12 b 521 174 365 -12 468 53 b 549 285 540 218 549 260 b 231 539 549 396 385 476 b 504 928 304 685 390 824 l 504 926 b 438 669 504 846 469 717 b 554 624 460 647 533 624 b 643 844 606 624 643 778 b 575 1010 643 903 614 960 b 489 1074 540 1056 515 1074 b 82 575 375 1074 143 739 b 71 528 74 554 71 543 b 100 436 71 500 81 461 b 443 242 300 357 400 293 b 268 132 407 167 344 132 b 15 236 185 132 79 169 b -39 128 -11 215 -39 158 z "},"Š":{"ha":615,"x_min":0,"x_max":0,"o":"m 729 1214 b 665 1307 728 1239 694 1307 b 519 1236 635 1307 574 1276 b 408 1315 479 1278 433 1315 b 324 1236 382 1315 333 1264 b 494 1097 383 1193 440 1146 b 729 1214 571 1142 643 1176 z m -39 128 b 238 -12 -39 60 99 -12 b 521 174 365 -12 468 53 b 549 285 540 218 549 260 b 231 539 549 396 385 476 b 504 928 304 685 390 824 l 504 926 b 438 669 504 846 469 717 b 554 624 460 647 533 624 b 643 844 606 624 643 778 b 575 1010 643 903 614 960 b 489 1074 540 1056 515 1074 b 82 575 375 1074 143 739 b 71 528 74 554 71 543 b 100 436 71 500 81 461 b 443 242 300 357 400 293 b 268 132 407 167 344 132 b 15 236 185 132 79 169 b -39 128 -11 215 -39 158 z "},"Ş":{"ha":615,"x_min":0,"x_max":0,"o":"m 575 1010 b 489 1074 540 1056 515 1074 b 82 575 375 1074 143 739 b 71 528 74 554 71 543 b 100 436 71 500 81 461 b 443 242 300 357 400 293 b 268 132 407 167 344 132 b 15 236 185 132 79 169 b -39 128 -11 215 -39 158 b 153 -4 -39 74 47 17 b 107 -112 131 -49 114 -86 b 226 -206 172 -150 208 -182 b 174 -222 211 -217 194 -222 b 54 -169 135 -222 82 -199 b 31 -264 46 -176 31 -242 b 160 -332 31 -299 96 -332 b 301 -236 215 -332 278 -290 b 313 -189 310 -218 313 -200 b 229 -68 313 -142 276 -99 b 260 -12 238 -50 247 -31 b 521 174 376 -4 471 60 b 549 285 540 218 549 260 b 231 539 549 396 385 476 b 504 928 304 685 390 824 l 504 926 b 438 669 504 846 469 717 b 554 624 460 647 533 624 b 643 844 606 624 643 778 b 575 1010 643 903 614 960 z "},"Ș":{"ha":615,"x_min":0,"x_max":0,"o":"m 575 1010 b 489 1074 540 1056 515 1074 b 82 575 375 1074 143 739 b 71 528 74 554 71 543 b 100 436 71 500 81 461 b 443 242 300 357 400 293 b 268 132 407 167 344 132 b 15 236 185 132 79 169 b -39 128 -11 215 -39 158 b 238 -12 -39 60 99 -12 b 521 174 365 -12 468 53 b 549 285 540 218 549 260 b 231 539 549 396 385 476 b 504 928 304 685 390 824 l 504 926 b 438 669 504 846 469 717 b 554 624 460 647 533 624 b 643 844 606 624 643 778 b 575 1010 643 903 614 960 z m 49 -278 b 147 -337 49 -297 101 -329 b 253 -125 208 -262 253 -144 b 151 -64 253 -103 197 -72 b 49 -278 93 -208 49 -260 z "},"ẞ":{"ha":836,"x_min":0,"x_max":0,"o":"m 582 519 b 793 879 697 611 793 757 b 763 994 793 913 786 953 b 626 1074 728 1054 683 1074 b 418 1021 564 1074 490 1058 b 288 1072 418 1036 360 1065 b 219 839 265 997 242 919 b 50 581 158 767 99 678 b 32 535 35 550 32 542 b 106 439 32 514 57 478 b 8 68 75 322 42 200 b 3 35 3 46 3 38 b 136 -17 3 19 64 -10 b 354 796 210 274 281 538 b 669 953 454 883 543 908 b 671 926 671 944 671 935 b 396 528 671 776 549 632 b 425 436 396 500 406 461 b 672 263 557 369 631 311 b 508 132 640 175 579 132 b 285 236 444 132 349 169 b 231 128 258 215 231 158 b 478 -12 231 60 361 -12 b 749 174 593 -12 696 53 b 776 290 768 218 776 260 b 582 519 776 388 692 453 z "},"T":{"ha":626,"x_min":0,"x_max":0,"o":"m 756 1024 b 747 1050 756 1036 754 1046 b 511 1063 735 1058 665 1063 b 135 1036 354 1063 164 1056 b 111 940 122 1028 111 990 b 114 907 111 922 113 914 b 361 924 186 917 272 922 b 128 68 289 675 214 401 b 122 35 122 46 122 38 b 256 -17 122 19 183 -10 b 514 924 340 322 425 625 b 736 918 622 924 679 921 b 756 1024 747 944 756 990 z "},"Ŧ":{"ha":626,"x_min":0,"x_max":0,"o":"m 736 918 b 756 1024 747 944 756 990 b 747 1050 756 1036 754 1046 b 511 1063 735 1058 665 1063 b 135 1036 354 1063 164 1056 b 111 940 122 1028 111 990 b 114 907 111 922 113 914 b 361 924 186 917 272 922 b 265 585 331 817 299 704 b 65 564 165 582 79 575 b 43 478 54 556 43 503 b 46 461 43 471 44 465 b 235 472 111 465 174 469 b 128 68 201 347 165 214 b 122 35 122 46 122 38 b 256 -17 122 19 183 -10 b 386 476 299 156 342 318 b 600 471 458 476 529 475 b 618 554 608 486 618 535 b 610 576 618 565 615 572 b 417 588 597 585 514 588 b 514 924 449 701 481 813 b 736 918 622 924 679 921 z "},"Ť":{"ha":626,"x_min":0,"x_max":0,"o":"m 693 1214 b 629 1307 692 1239 658 1307 b 483 1236 599 1307 538 1276 b 372 1315 443 1278 397 1315 b 288 1236 346 1315 297 1264 b 458 1097 347 1193 404 1146 b 693 1214 535 1142 607 1176 z m 111 940 b 114 907 111 922 113 914 b 361 924 186 917 272 922 b 128 68 289 675 214 401 b 122 35 122 46 122 38 b 256 -17 122 19 183 -10 b 514 924 340 322 425 625 b 736 918 622 924 679 921 b 756 1024 747 944 756 990 b 747 1050 756 1036 754 1046 b 511 1063 735 1058 665 1063 b 135 1036 354 1063 164 1056 b 111 940 122 1028 111 990 z "},"Ţ":{"ha":626,"x_min":0,"x_max":0,"o":"m 256 -17 b 514 924 340 322 425 625 b 736 918 622 924 679 921 b 756 1024 747 944 756 990 b 747 1050 756 1036 754 1046 b 511 1063 735 1058 665 1063 b 135 1036 354 1063 164 1056 b 111 940 122 1028 111 990 b 114 907 111 922 113 914 b 361 924 186 917 272 922 b 128 68 289 675 214 401 b 122 35 122 46 122 38 b 144 14 122 29 131 22 b 88 -114 115 -39 96 -83 b 207 -207 153 -151 189 -183 b 154 -224 192 -218 175 -224 b 35 -171 115 -224 63 -200 b 11 -265 26 -178 11 -243 b 140 -333 11 -300 76 -333 b 282 -237 196 -333 258 -292 b 293 -190 290 -219 293 -201 b 210 -69 293 -143 257 -100 b 239 -15 218 -51 228 -33 b 256 -17 244 -15 250 -17 z "},"Ț":{"ha":626,"x_min":0,"x_max":0,"o":"m 756 1024 b 747 1050 756 1036 754 1046 b 511 1063 735 1058 665 1063 b 135 1036 354 1063 164 1056 b 111 940 122 1028 111 990 b 114 907 111 922 113 914 b 361 924 186 917 272 922 b 128 68 289 675 214 401 b 122 35 122 46 122 38 b 256 -17 122 19 183 -10 b 514 924 340 322 425 625 b 736 918 622 924 679 921 b 756 1024 747 944 756 990 z m 26 -278 b 125 -337 26 -297 79 -329 b 231 -125 186 -262 231 -144 b 129 -64 231 -103 175 -72 b 26 -278 71 -208 26 -260 z "},"U":{"ha":715,"x_min":0,"x_max":0,"o":"m 668 1058 l 576 750 b 181 104 439 289 338 115 b 372 953 160 282 228 496 b 383 997 382 982 383 992 b 253 1061 383 1018 322 1047 b 26 204 111 632 26 372 b 113 31 26 144 38 82 b 251 -14 150 6 199 -14 b 692 632 418 -14 554 181 l 781 925 b 799 993 794 969 799 988 b 668 1058 799 1014 733 1043 z "},"Ú":{"ha":715,"x_min":0,"x_max":0,"o":"m 499 1106 b 692 1193 529 1106 638 1153 b 718 1225 714 1210 718 1218 b 644 1324 718 1244 671 1310 b 422 1193 567 1275 490 1231 b 499 1106 429 1161 472 1106 z m 26 204 b 113 31 26 144 38 82 b 251 -14 150 6 199 -14 b 692 632 418 -14 554 181 l 781 925 b 799 993 794 969 799 988 b 668 1058 799 1014 733 1043 l 576 750 b 181 104 439 289 338 115 b 372 953 160 282 228 496 b 383 997 382 982 383 992 b 253 1061 383 1018 322 1047 b 26 204 111 632 26 372 z "},"Û":{"ha":715,"x_min":0,"x_max":0,"o":"m 400 1106 b 546 1176 431 1106 492 1136 b 657 1097 586 1135 632 1097 b 742 1176 683 1097 732 1149 b 571 1315 682 1219 625 1267 b 336 1199 494 1271 422 1236 b 400 1106 338 1174 371 1106 z m 26 204 b 113 31 26 144 38 82 b 251 -14 150 6 199 -14 b 692 632 418 -14 554 181 l 781 925 b 799 993 794 969 799 988 b 668 1058 799 1014 733 1043 l 576 750 b 181 104 439 289 338 115 b 372 953 160 282 228 496 b 383 997 382 982 383 992 b 253 1061 383 1018 322 1047 b 26 204 111 632 26 372 z "},"Ü":{"ha":715,"x_min":0,"x_max":0,"o":"m 492 1110 l 517 1196 b 529 1243 526 1225 529 1239 b 403 1313 529 1267 467 1297 l 378 1228 b 365 1179 368 1197 365 1183 b 492 1110 365 1157 429 1125 z m 26 204 b 113 31 26 144 38 82 b 251 -14 150 6 199 -14 b 692 632 418 -14 554 181 l 781 925 b 799 993 794 969 799 988 b 668 1058 799 1014 733 1043 l 576 750 b 181 104 439 289 338 115 b 372 953 160 282 228 496 b 383 997 382 982 383 992 b 253 1061 383 1018 322 1047 b 26 204 111 632 26 372 z m 583 1163 b 710 1093 583 1140 647 1108 l 735 1179 b 747 1226 744 1208 747 1222 b 621 1296 747 1250 685 1281 l 596 1211 b 583 1163 586 1181 583 1167 z "},"Ù":{"ha":715,"x_min":0,"x_max":0,"o":"m 414 1193 b 586 1106 468 1153 558 1106 b 663 1193 613 1106 656 1161 b 461 1324 600 1231 532 1275 b 388 1225 435 1310 388 1244 b 414 1193 388 1218 393 1208 z m 26 204 b 113 31 26 144 38 82 b 251 -14 150 6 199 -14 b 692 632 418 -14 554 181 l 781 925 b 799 993 794 969 799 988 b 668 1058 799 1014 733 1043 l 576 750 b 181 104 439 289 338 115 b 372 953 160 282 228 496 b 383 997 382 982 383 992 b 253 1061 383 1018 322 1047 b 26 204 111 632 26 372 z "},"Ű":{"ha":715,"x_min":0,"x_max":0,"o":"m 476 1119 b 572 1206 503 1119 549 1172 b 592 1247 586 1225 592 1239 b 522 1324 592 1261 550 1319 b 403 1168 482 1268 442 1215 b 476 1119 413 1142 447 1119 z m 26 204 b 113 31 26 144 38 82 b 251 -14 150 6 199 -14 b 692 632 418 -14 554 181 l 781 925 b 799 993 794 969 799 988 b 668 1058 799 1014 733 1043 l 576 750 b 181 104 439 289 338 115 b 372 953 160 282 228 496 b 383 997 382 982 383 992 b 253 1061 383 1018 322 1047 b 26 204 111 632 26 372 z m 568 1154 b 643 1106 579 1128 614 1106 b 738 1192 669 1106 714 1158 b 758 1233 751 1213 758 1225 b 688 1310 758 1247 715 1306 b 568 1154 647 1254 608 1201 z "},"Ū":{"ha":715,"x_min":0,"x_max":0,"o":"m 703 1113 b 713 1225 715 1147 731 1214 b 394 1213 683 1244 419 1232 b 375 1103 379 1201 367 1135 b 703 1113 501 1117 586 1122 z m 26 204 b 113 31 26 144 38 82 b 251 -14 150 6 199 -14 b 692 632 418 -14 554 181 l 781 925 b 799 993 794 969 799 988 b 668 1058 799 1014 733 1043 l 576 750 b 181 104 439 289 338 115 b 372 953 160 282 228 496 b 383 997 382 982 383 992 b 253 1061 383 1018 322 1047 b 26 204 111 632 26 372 z "},"Ų":{"ha":715,"x_min":0,"x_max":0,"o":"m 668 1058 l 576 750 b 181 104 439 289 338 115 b 372 953 160 282 228 496 b 383 997 382 982 383 992 b 253 1061 383 1018 322 1047 b 26 204 111 632 26 372 b 113 31 26 144 38 82 b 160 6 126 21 143 13 b 24 -175 46 -78 24 -128 b 35 -222 24 -186 26 -204 b 172 -318 58 -276 117 -318 b 301 -250 236 -318 301 -285 b 278 -158 301 -228 286 -165 b 158 -211 250 -187 197 -211 b 101 -190 136 -211 117 -204 b 353 11 133 -144 211 -86 l 357 15 b 692 632 478 83 585 279 l 781 925 b 799 993 794 969 799 988 b 668 1058 799 1014 733 1043 z "},"Ů":{"ha":715,"x_min":0,"x_max":0,"o":"m 536 1111 b 693 1326 611 1111 693 1225 b 607 1418 693 1372 656 1418 b 444 1196 533 1418 444 1293 b 536 1111 444 1147 489 1111 z m 26 204 b 113 31 26 144 38 82 b 251 -14 150 6 199 -14 b 692 632 418 -14 554 181 l 781 925 b 799 993 794 969 799 988 b 668 1058 799 1014 733 1043 l 576 750 b 181 104 439 289 338 115 b 372 953 160 282 228 496 b 383 997 382 982 383 992 b 253 1061 383 1018 322 1047 b 26 204 111 632 26 372 z m 524 1200 l 524 1204 b 617 1343 524 1249 558 1321 b 622 1322 621 1338 622 1332 b 533 1199 622 1279 576 1199 b 524 1200 531 1199 526 1199 z "},"V":{"ha":685,"x_min":0,"x_max":0,"o":"m 683 1058 b 278 294 563 806 415 529 b 272 524 275 371 272 456 b 282 1028 272 782 282 985 b 278 1056 282 1043 281 1051 b 247 1065 274 1063 261 1065 b 136 1035 213 1065 158 1047 b 128 724 129 935 128 831 b 143 81 128 525 132 311 b 151 31 144 57 146 39 b 256 -17 163 13 225 -11 b 790 946 431 261 603 569 b 807 993 799 964 807 985 b 683 1058 807 1017 736 1051 z "},"W":{"ha":1038,"x_min":0,"x_max":0,"o":"m 1036 1058 l 678 329 b 724 906 688 521 703 715 b 726 951 725 925 726 940 b 711 1004 726 989 718 997 b 582 1057 694 1019 647 1042 b 236 335 463 821 346 581 b 279 1021 244 564 258 793 b 272 1051 281 1042 276 1047 b 246 1058 269 1056 261 1058 b 135 1029 221 1058 172 1047 b 88 82 110 714 93 397 b 90 33 88 56 88 39 b 222 -15 100 13 165 -3 b 576 746 335 243 453 497 b 531 92 563 597 531 179 b 535 33 531 60 533 38 b 664 -15 544 13 608 -3 l 1143 946 b 1160 993 1153 964 1160 985 b 1036 1058 1160 1017 1089 1051 z "},"Ẃ":{"ha":1038,"x_min":0,"x_max":0,"o":"m 625 1106 b 818 1193 656 1106 764 1153 b 844 1225 840 1210 844 1218 b 771 1324 844 1244 797 1310 b 549 1193 693 1275 617 1231 b 625 1106 556 1161 599 1106 z m 88 82 b 90 33 88 56 88 39 b 222 -15 100 13 165 -3 b 576 746 335 243 453 497 b 531 92 563 597 531 179 b 535 33 531 60 533 38 b 664 -15 544 13 608 -3 l 1143 946 b 1160 993 1153 964 1160 985 b 1036 1058 1160 1017 1089 1051 l 678 329 b 724 906 688 521 703 715 b 726 951 725 925 726 940 b 711 1004 726 989 718 997 b 582 1057 694 1019 647 1042 b 236 335 463 821 346 581 b 279 1021 244 564 258 793 b 272 1051 281 1042 276 1047 b 246 1058 269 1056 261 1058 b 135 1029 221 1058 172 1047 b 88 82 110 714 93 397 z "},"Ŵ":{"ha":1038,"x_min":0,"x_max":0,"o":"m 526 1106 b 672 1176 557 1106 618 1136 b 783 1097 713 1135 758 1097 b 868 1176 810 1097 858 1149 b 697 1315 808 1219 751 1267 b 463 1199 621 1271 549 1236 b 526 1106 464 1174 497 1106 z m 88 82 b 90 33 88 56 88 39 b 222 -15 100 13 165 -3 b 576 746 335 243 453 497 b 531 92 563 597 531 179 b 535 33 531 60 533 38 b 664 -15 544 13 608 -3 l 1143 946 b 1160 993 1153 964 1160 985 b 1036 1058 1160 1017 1089 1051 l 678 329 b 724 906 688 521 703 715 b 726 951 725 925 726 940 b 711 1004 726 989 718 997 b 582 1057 694 1019 647 1042 b 236 335 463 821 346 581 b 279 1021 244 564 258 793 b 272 1051 281 1042 276 1047 b 246 1058 269 1056 261 1058 b 135 1029 221 1058 172 1047 b 88 82 110 714 93 397 z "},"Ẅ":{"ha":1038,"x_min":0,"x_max":0,"o":"m 618 1110 l 643 1196 b 656 1243 653 1225 656 1239 b 529 1313 656 1267 593 1297 l 504 1228 b 492 1179 494 1197 492 1183 b 618 1110 492 1157 556 1125 z m 88 82 b 90 33 88 56 88 39 b 222 -15 100 13 165 -3 b 576 746 335 243 453 497 b 531 92 563 597 531 179 b 535 33 531 60 533 38 b 664 -15 544 13 608 -3 l 1143 946 b 1160 993 1153 964 1160 985 b 1036 1058 1160 1017 1089 1051 l 678 329 b 724 906 688 521 703 715 b 726 951 725 925 726 940 b 711 1004 726 989 718 997 b 582 1057 694 1019 647 1042 b 236 335 463 821 346 581 b 279 1021 244 564 258 793 b 272 1051 281 1042 276 1047 b 246 1058 269 1056 261 1058 b 135 1029 221 1058 172 1047 b 88 82 110 714 93 397 z m 710 1163 b 836 1093 710 1140 774 1108 l 861 1179 b 874 1226 871 1208 874 1222 b 747 1296 874 1250 811 1281 l 722 1211 b 710 1163 713 1181 710 1167 z "},"Ẁ":{"ha":1038,"x_min":0,"x_max":0,"o":"m 540 1193 b 713 1106 594 1153 685 1106 b 789 1193 739 1106 782 1161 b 588 1324 726 1231 658 1275 b 514 1225 561 1310 514 1244 b 540 1193 514 1218 519 1208 z m 88 82 b 90 33 88 56 88 39 b 222 -15 100 13 165 -3 b 576 746 335 243 453 497 b 531 92 563 597 531 179 b 535 33 531 60 533 38 b 664 -15 544 13 608 -3 l 1143 946 b 1160 993 1153 964 1160 985 b 1036 1058 1160 1017 1089 1051 l 678 329 b 724 906 688 521 703 715 b 726 951 725 925 726 940 b 711 1004 726 989 718 997 b 582 1057 694 1019 647 1042 b 236 335 463 821 346 581 b 279 1021 244 564 258 793 b 272 1051 281 1042 276 1047 b 246 1058 269 1056 261 1058 b 135 1029 221 1058 172 1047 b 88 82 110 714 93 397 z "},"X":{"ha":671,"x_min":0,"x_max":0,"o":"m 786 972 b 685 1061 786 999 735 1049 b 406 669 590 931 497 799 b 328 994 381 779 354 889 b 311 1044 324 1011 317 1036 b 265 1058 303 1056 283 1058 b 167 1038 233 1058 194 1050 b 289 546 211 869 253 707 b -43 132 176 408 65 269 b -72 86 -64 106 -72 94 b 31 -6 -72 64 -24 19 b 328 372 128 119 226 246 b 386 60 349 269 368 165 b 401 6 392 26 396 11 b 446 -8 410 -4 425 -8 b 543 13 475 -8 513 -3 b 444 494 514 165 481 329 l 761 922 b 786 972 783 951 786 965 z "},"Y":{"ha":678,"x_min":0,"x_max":0,"o":"m 801 992 b 682 1057 801 1019 733 1050 b 333 461 518 747 419 576 b 274 999 301 593 274 789 b 265 1053 274 1035 269 1049 b 238 1060 263 1056 253 1060 b 128 1031 213 1060 164 1049 b 232 307 135 729 182 454 b 181 92 215 235 199 163 b 172 47 174 64 172 51 b 304 -17 174 26 238 -3 b 368 283 326 82 347 183 b 786 944 486 419 604 596 b 801 992 796 963 801 983 z "},"Ý":{"ha":678,"x_min":0,"x_max":0,"o":"m 433 1106 b 626 1193 464 1106 572 1153 b 653 1225 649 1210 653 1218 b 579 1324 653 1244 606 1310 b 357 1193 501 1275 425 1231 b 433 1106 364 1161 407 1106 z m 128 1031 b 232 307 135 729 182 454 b 181 92 215 235 199 163 b 172 47 174 64 172 51 b 304 -17 174 26 238 -3 b 368 283 326 82 347 183 b 786 944 486 419 604 596 b 801 992 796 963 801 983 b 682 1057 801 1019 733 1050 b 333 461 518 747 419 576 b 274 999 301 593 274 789 b 265 1053 274 1035 269 1049 b 238 1060 263 1056 253 1060 b 128 1031 213 1060 164 1049 z "},"Ŷ":{"ha":678,"x_min":0,"x_max":0,"o":"m 335 1106 b 481 1176 365 1106 426 1136 b 592 1097 521 1135 567 1097 b 676 1176 618 1097 667 1149 b 506 1315 617 1219 560 1267 b 271 1199 429 1271 357 1236 b 335 1106 272 1174 306 1106 z m 128 1031 b 232 307 135 729 182 454 b 181 92 215 235 199 163 b 172 47 174 64 172 51 b 304 -17 174 26 238 -3 b 368 283 326 82 347 183 b 786 944 486 419 604 596 b 801 992 796 963 801 983 b 682 1057 801 1019 733 1050 b 333 461 518 747 419 576 b 274 999 301 593 274 789 b 265 1053 274 1035 269 1049 b 238 1060 263 1056 253 1060 b 128 1031 213 1060 164 1049 z "},"Ÿ":{"ha":678,"x_min":0,"x_max":0,"o":"m 426 1110 l 451 1196 b 464 1243 461 1225 464 1239 b 338 1313 464 1267 401 1297 l 313 1228 b 300 1179 303 1197 300 1183 b 426 1110 300 1157 364 1125 z m 128 1031 b 232 307 135 729 182 454 b 181 92 215 235 199 163 b 172 47 174 64 172 51 b 304 -17 174 26 238 -3 b 368 283 326 82 347 183 b 786 944 486 419 604 596 b 801 992 796 963 801 983 b 682 1057 801 1019 733 1050 b 333 461 518 747 419 576 b 274 999 301 593 274 789 b 265 1053 274 1035 269 1049 b 238 1060 263 1056 253 1060 b 128 1031 213 1060 164 1049 z m 518 1163 b 644 1093 518 1140 582 1108 l 669 1179 b 682 1226 679 1208 682 1222 b 556 1296 682 1250 619 1281 l 531 1211 b 518 1163 521 1181 518 1167 z "},"Ỳ":{"ha":678,"x_min":0,"x_max":0,"o":"m 349 1193 b 521 1106 403 1153 493 1106 b 597 1193 547 1106 590 1161 b 396 1324 535 1231 467 1275 b 322 1225 369 1310 322 1244 b 349 1193 322 1218 328 1208 z m 128 1031 b 232 307 135 729 182 454 b 181 92 215 235 199 163 b 172 47 174 64 172 51 b 304 -17 174 26 238 -3 b 368 283 326 82 347 183 b 786 944 486 419 604 596 b 801 992 796 963 801 983 b 682 1057 801 1019 733 1050 b 333 461 518 747 419 576 b 274 999 301 593 274 789 b 265 1053 274 1035 269 1049 b 238 1060 263 1056 253 1060 b 128 1031 213 1060 164 1049 z "},"Z":{"ha":681,"x_min":0,"x_max":0,"o":"m 742 975 b 639 1061 742 1003 696 1029 b 425 1049 581 1053 529 1049 b 168 1058 354 1049 263 1051 b 151 957 160 1032 151 986 b 163 925 151 940 154 931 b 381 913 175 917 296 913 b 544 918 422 913 475 914 b -43 131 363 644 133 336 b -72 86 -62 107 -72 94 b 35 -7 -72 65 -21 21 b 283 3 99 0 158 3 b 590 -4 397 3 479 1 b 610 99 601 24 610 67 b 601 126 610 113 608 122 b 368 139 588 135 519 139 b 146 132 271 139 199 136 b 717 922 325 363 557 674 b 742 975 736 951 742 965 z "},"Ź":{"ha":681,"x_min":0,"x_max":0,"o":"m 444 1106 b 638 1193 475 1106 583 1153 b 664 1225 660 1210 664 1218 b 590 1324 664 1244 617 1310 b 368 1193 513 1275 436 1231 b 444 1106 375 1161 418 1106 z m -72 86 b 35 -7 -72 65 -21 21 b 283 3 99 0 158 3 b 590 -4 397 3 479 1 b 610 99 601 24 610 67 b 601 126 610 113 608 122 b 368 139 588 135 519 139 b 146 132 271 139 199 136 b 717 922 325 363 557 674 b 742 975 736 951 742 965 b 639 1061 742 1003 696 1029 b 425 1049 581 1053 529 1049 b 168 1058 354 1049 263 1051 b 151 957 160 1032 151 986 b 163 925 151 940 154 931 b 381 913 175 917 296 913 b 544 918 422 913 475 914 b -43 131 363 644 133 336 b -72 86 -62 107 -72 94 z "},"Ž":{"ha":681,"x_min":0,"x_max":0,"o":"m 676 1214 b 613 1307 675 1239 642 1307 b 467 1236 582 1307 521 1276 b 356 1315 426 1278 381 1315 b 271 1236 329 1315 281 1264 b 442 1097 331 1193 388 1146 b 676 1214 518 1142 590 1176 z m -72 86 b 35 -7 -72 65 -21 21 b 283 3 99 0 158 3 b 590 -4 397 3 479 1 b 610 99 601 24 610 67 b 601 126 610 113 608 122 b 368 139 588 135 519 139 b 146 132 271 139 199 136 b 717 922 325 363 557 674 b 742 975 736 951 742 965 b 639 1061 742 1003 696 1029 b 425 1049 581 1053 529 1049 b 168 1058 354 1049 263 1051 b 151 957 160 1032 151 986 b 163 925 151 940 154 931 b 381 913 175 917 296 913 b 544 918 422 913 475 914 b -43 131 363 644 133 336 b -72 86 -62 107 -72 94 z "},"Ż":{"ha":681,"x_min":0,"x_max":0,"o":"m 553 1106 l 579 1196 b 592 1246 589 1228 592 1242 b 460 1319 592 1269 526 1303 l 432 1229 b 419 1178 422 1197 419 1183 b 553 1106 419 1154 486 1121 z m -72 86 b 35 -7 -72 65 -21 21 b 283 3 99 0 158 3 b 590 -4 397 3 479 1 b 610 99 601 24 610 67 b 601 126 610 113 608 122 b 368 139 588 135 519 139 b 146 132 271 139 199 136 b 717 922 325 363 557 674 b 742 975 736 951 742 965 b 639 1061 742 1003 696 1029 b 425 1049 581 1053 529 1049 b 168 1058 354 1049 263 1051 b 151 957 160 1032 151 986 b 163 925 151 940 154 931 b 381 913 175 917 296 913 b 544 918 422 913 475 914 b -43 131 363 644 133 336 b -72 86 -62 107 -72 94 z "},"a":{"ha":739,"x_min":0,"x_max":0,"o":"m 679 238 b 604 292 672 251 646 271 b 426 121 564 218 493 151 b 471 254 432 169 451 211 l 515 353 b 521 372 519 361 521 368 b 500 407 521 381 514 393 l 499 410 b 556 653 533 497 556 583 b 511 779 556 692 549 724 b 431 846 475 832 453 846 b -22 174 304 846 -22 401 b 54 33 -22 114 0 71 b 154 -4 88 11 125 -4 b 301 86 199 -4 250 31 b 358 18 315 56 338 33 b 422 -7 383 1 404 -7 b 679 238 492 -7 711 172 z m 103 103 b 450 724 104 301 294 599 b 451 703 451 717 451 710 b 103 103 451 521 258 110 z "},"á":{"ha":739,"x_min":0,"x_max":0,"o":"m 403 874 b 575 957 428 874 522 919 b 608 993 599 974 608 985 b 551 1092 608 1008 575 1078 b 343 961 482 1043 408 999 b 403 874 343 929 375 874 z m -22 174 b 54 33 -22 114 0 71 b 154 -4 88 11 125 -4 b 301 86 199 -4 250 31 b 358 18 315 56 338 33 b 422 -7 383 1 404 -7 b 679 238 492 -7 711 172 b 604 292 672 251 646 271 b 426 121 564 218 493 151 b 471 254 432 169 451 211 l 515 353 b 521 372 519 361 521 368 b 500 407 521 381 514 393 l 499 410 b 556 653 533 497 556 583 b 511 779 556 692 549 724 b 431 846 475 832 453 846 b -22 174 304 846 -22 401 z m 103 103 b 450 724 104 301 294 599 b 451 703 451 717 451 710 b 103 103 451 521 258 110 z "},"ă":{"ha":739,"x_min":0,"x_max":0,"o":"m 544 1061 b 469 985 526 1011 500 985 b 425 1046 440 985 425 1004 b 332 1063 425 1063 388 1069 b 461 894 311 985 344 894 b 638 1036 597 894 636 1007 b 544 1061 638 1049 601 1064 z m -22 174 b 54 33 -22 114 0 71 b 154 -4 88 11 125 -4 b 301 86 199 -4 250 31 b 358 18 315 56 338 33 b 422 -7 383 1 404 -7 b 679 238 492 -7 711 172 b 604 292 672 251 646 271 b 426 121 564 218 493 151 b 471 254 432 169 451 211 l 515 353 b 521 372 519 361 521 368 b 500 407 521 381 514 393 l 499 410 b 556 653 533 497 556 583 b 511 779 556 692 549 724 b 431 846 475 832 453 846 b -22 174 304 846 -22 401 z m 103 103 b 450 724 104 301 294 599 b 451 703 451 717 451 710 b 103 103 451 521 258 110 z "},"â":{"ha":739,"x_min":0,"x_max":0,"o":"m 336 896 b 468 971 354 896 417 932 b 561 888 504 925 543 888 b 643 975 588 888 635 943 b 500 1106 592 1014 543 1058 b 282 983 428 1060 349 1018 b 336 896 282 951 308 896 z m -22 174 b 54 33 -22 114 0 71 b 154 -4 88 11 125 -4 b 301 86 199 -4 250 31 b 358 18 315 56 338 33 b 422 -7 383 1 404 -7 b 679 238 492 -7 711 172 b 604 292 672 251 646 271 b 426 121 564 218 493 151 b 471 254 432 169 451 211 l 515 353 b 521 372 519 361 521 368 b 500 407 521 381 514 393 l 499 410 b 556 653 533 497 556 583 b 511 779 556 692 549 724 b 431 846 475 832 453 846 b -22 174 304 846 -22 401 z m 103 103 b 450 724 104 301 294 599 b 451 703 451 717 451 710 b 103 103 451 521 258 110 z "},"ä":{"ha":739,"x_min":0,"x_max":0,"o":"m 321 1069 l 299 993 b 288 951 290 967 288 956 b 399 890 288 932 343 904 l 421 965 b 432 1008 429 992 432 1004 b 321 1069 432 1028 376 1056 z m -22 174 b 54 33 -22 114 0 71 b 154 -4 88 11 125 -4 b 301 86 199 -4 250 31 b 358 18 315 56 338 33 b 422 -7 383 1 404 -7 b 679 238 492 -7 711 172 b 604 292 672 251 646 271 b 426 121 564 218 493 151 b 471 254 432 169 451 211 l 515 353 b 521 372 519 361 521 368 b 500 407 521 381 514 393 l 499 410 b 556 653 533 497 556 583 b 511 779 556 692 549 724 b 431 846 475 832 453 846 b -22 174 304 846 -22 401 z m 103 103 b 450 724 104 301 294 599 b 451 703 451 717 451 710 b 103 103 451 521 258 110 z m 506 915 b 617 854 506 896 561 868 l 639 929 b 650 972 647 956 650 968 b 539 1033 650 992 594 1019 l 517 957 b 506 915 508 931 506 919 z "},"à":{"ha":739,"x_min":0,"x_max":0,"o":"m 364 960 b 515 874 408 922 490 874 b 592 961 542 874 585 929 b 411 1092 533 999 471 1043 b 338 993 385 1078 338 1013 b 364 960 338 986 343 978 z m -22 174 b 54 33 -22 114 0 71 b 154 -4 88 11 125 -4 b 301 86 199 -4 250 31 b 358 18 315 56 338 33 b 422 -7 383 1 404 -7 b 679 238 492 -7 711 172 b 604 292 672 251 646 271 b 426 121 564 218 493 151 b 471 254 432 169 451 211 l 515 353 b 521 372 519 361 521 368 b 500 407 521 381 514 393 l 499 410 b 556 653 533 497 556 583 b 511 779 556 692 549 724 b 431 846 475 832 453 846 b -22 174 304 846 -22 401 z m 103 103 b 450 724 104 301 294 599 b 451 703 451 717 451 710 b 103 103 451 521 258 110 z "},"ā":{"ha":739,"x_min":0,"x_max":0,"o":"m 293 914 b 611 924 419 928 494 933 b 621 1031 624 958 639 1019 b 313 1018 592 1050 338 1038 b 293 914 297 1007 285 946 z m -22 174 b 54 33 -22 114 0 71 b 154 -4 88 11 125 -4 b 301 86 199 -4 250 31 b 358 18 315 56 338 33 b 422 -7 383 1 404 -7 b 679 238 492 -7 711 172 b 604 292 672 251 646 271 b 426 121 564 218 493 151 b 471 254 432 169 451 211 l 515 353 b 521 372 519 361 521 368 b 500 407 521 381 514 393 l 499 410 b 556 653 533 497 556 583 b 511 779 556 692 549 724 b 431 846 475 832 453 846 b -22 174 304 846 -22 401 z m 103 103 b 450 724 104 301 294 599 b 451 703 451 717 451 710 b 103 103 451 521 258 110 z "},"ą":{"ha":739,"x_min":0,"x_max":0,"o":"m 521 38 b 679 238 606 96 701 193 b 604 292 672 251 646 271 b 426 121 564 218 493 151 b 471 254 432 169 451 211 l 515 353 b 521 372 519 361 521 368 b 500 407 521 381 514 393 l 499 410 b 556 653 533 497 556 583 b 511 779 556 692 549 724 b 431 846 475 832 453 846 b -22 174 304 846 -22 401 b 54 33 -22 114 0 71 b 154 -4 88 11 125 -4 b 301 86 199 -4 250 31 b 338 35 311 65 324 49 b 188 -175 217 -57 188 -126 b 199 -222 188 -186 190 -204 b 336 -318 222 -276 281 -318 b 465 -250 400 -318 465 -285 b 442 -158 465 -228 450 -165 b 322 -211 414 -187 361 -211 b 264 -189 299 -211 279 -204 b 521 38 297 -135 379 -60 z m 103 103 b 450 724 104 301 294 599 b 451 703 451 717 451 710 b 103 103 451 521 258 110 z "},"å":{"ha":739,"x_min":0,"x_max":0,"o":"m 429 860 b 588 1075 506 860 588 974 b 503 1167 588 1121 550 1167 b 339 944 428 1167 339 1042 b 429 860 339 896 383 860 z m -22 174 b 54 33 -22 114 0 71 b 154 -4 88 11 125 -4 b 301 86 199 -4 250 31 b 358 18 315 56 338 33 b 422 -7 383 1 404 -7 b 679 238 492 -7 711 172 b 604 292 672 251 646 271 b 426 121 564 218 493 151 b 471 254 432 169 451 211 l 515 353 b 521 372 519 361 521 368 b 500 407 521 381 514 393 l 499 410 b 556 653 533 497 556 583 b 511 779 556 692 549 724 b 431 846 475 832 453 846 b -22 174 304 846 -22 401 z m 103 103 b 450 724 104 301 294 599 b 451 703 451 717 451 710 b 103 103 451 521 258 110 z m 415 944 l 415 950 b 514 1096 415 996 453 1072 b 519 1074 518 1090 519 1083 b 425 943 519 1026 471 943 b 415 944 422 943 419 943 z "},"ã":{"ha":739,"x_min":0,"x_max":0,"o":"m 647 1054 b 575 1010 625 1026 593 1010 b 465 1067 547 1010 503 1067 b 304 957 419 1067 304 981 b 368 910 304 950 340 914 b 440 954 390 938 422 954 b 549 897 474 954 507 897 b 711 1007 599 897 711 983 b 647 1054 711 1014 675 1050 z m -22 174 b 54 33 -22 114 0 71 b 154 -4 88 11 125 -4 b 301 86 199 -4 250 31 b 358 18 315 56 338 33 b 422 -7 383 1 404 -7 b 679 238 492 -7 711 172 b 604 292 672 251 646 271 b 426 121 564 218 493 151 b 471 254 432 169 451 211 l 515 353 b 521 372 519 361 521 368 b 500 407 521 381 514 393 l 499 410 b 556 653 533 497 556 583 b 511 779 556 692 549 724 b 431 846 475 832 453 846 b -22 174 304 846 -22 401 z m 103 103 b 450 724 104 301 294 599 b 451 703 451 717 451 710 b 103 103 451 521 258 110 z "},"æ":{"ha":878,"x_min":0,"x_max":0,"o":"m 757 211 b 542 119 726 175 633 119 b 475 132 514 119 492 124 b 878 656 681 264 878 465 b 831 783 878 692 871 724 b 753 846 797 832 778 846 b 533 686 700 846 615 781 b 497 758 528 707 515 731 b 386 842 456 822 426 842 b 133 604 304 842 133 707 b 238 511 133 546 189 511 b 426 725 288 618 364 683 b 433 669 431 710 433 690 b 379 458 433 611 418 535 b -29 158 114 456 -29 271 b 47 33 -29 114 -7 71 b 163 -4 81 11 118 -4 b 350 60 222 -4 285 22 b 367 42 354 53 361 47 b 524 -7 406 10 460 -7 b 801 129 649 -7 801 56 b 757 211 801 158 776 194 z m 96 103 b 329 339 97 192 179 325 b 304 197 314 290 304 242 b 306 164 304 185 304 174 b 96 103 238 125 176 104 z m 440 246 b 772 726 469 378 633 613 b 774 696 772 717 774 706 b 440 246 774 535 615 363 z "},"b":{"ha":694,"x_min":0,"x_max":0,"o":"m 681 779 b 600 846 644 832 622 846 b 347 629 540 846 442 758 l 447 960 b 458 1004 456 988 458 999 b 347 1063 458 1026 372 1061 b 71 92 249 739 156 415 b 61 47 64 64 61 53 b 165 -11 61 25 138 -8 b 183 51 171 10 176 31 b 318 -8 222 10 278 -8 b 725 653 504 -8 725 417 b 681 779 725 692 718 724 z m 228 172 b 619 725 321 399 472 621 b 621 703 621 718 621 711 b 307 119 621 513 414 119 b 228 172 285 119 253 136 z "},"c":{"ha":563,"x_min":0,"x_max":0,"o":"m 443 267 b 192 118 411 228 283 118 b 103 146 160 118 126 129 b 401 725 131 336 260 600 b 403 706 403 718 403 713 b 343 497 403 643 369 542 b 431 450 363 475 407 450 b 518 636 482 450 518 579 b 461 782 518 682 494 733 b 381 846 426 832 404 846 b -21 178 244 846 -21 401 b 56 33 -21 114 1 71 b 189 -7 92 8 146 -7 b 488 185 308 -7 488 108 b 443 267 488 214 463 250 z "},"ć":{"ha":563,"x_min":0,"x_max":0,"o":"m 501 1092 b 293 961 432 1043 358 999 b 353 874 293 929 325 874 b 525 957 378 874 472 919 b 558 993 549 974 558 985 b 501 1092 558 1008 525 1078 z m -21 178 b 56 33 -21 114 1 71 b 189 -7 92 8 146 -7 b 488 185 308 -7 488 108 b 443 267 488 214 463 250 b 192 118 411 228 283 118 b 103 146 160 118 126 129 b 401 725 131 336 260 600 b 403 706 403 718 403 713 b 343 497 403 643 369 542 b 431 450 363 475 407 450 b 518 636 482 450 518 579 b 461 782 518 682 494 733 b 381 846 426 832 404 846 b -21 178 244 846 -21 401 z "},"č":{"ha":563,"x_min":0,"x_max":0,"o":"m 417 875 b 635 997 489 921 568 963 b 581 1085 635 1029 608 1085 b 449 1010 563 1085 500 1049 b 356 1093 413 1056 374 1093 b 274 1006 329 1093 282 1038 b 417 875 325 967 374 922 z m -21 178 b 56 33 -21 114 1 71 b 189 -7 92 8 146 -7 b 488 185 308 -7 488 108 b 443 267 488 214 463 250 b 192 118 411 228 283 118 b 103 146 160 118 126 129 b 401 725 131 336 260 600 b 403 706 403 718 403 713 b 343 497 403 643 369 542 b 431 450 363 475 407 450 b 518 636 482 450 518 579 b 461 782 518 682 494 733 b 381 846 426 832 404 846 b -21 178 244 846 -21 401 z "},"ç":{"ha":563,"x_min":0,"x_max":0,"o":"m 443 267 b 192 118 411 228 283 118 b 103 146 160 118 126 129 b 401 725 131 336 260 600 b 403 706 403 718 403 713 b 343 497 403 643 369 542 b 431 450 363 475 407 450 b 518 636 482 450 518 579 b 461 782 518 682 494 733 b 381 846 426 832 404 846 b -21 178 244 846 -21 401 b 56 33 -21 114 1 71 b 135 0 78 18 107 7 b 88 -112 111 -46 94 -85 b 210 -206 153 -150 190 -181 b 154 -225 194 -218 176 -225 b 35 -172 115 -225 63 -201 b 11 -264 26 -179 11 -242 b 140 -332 11 -299 76 -332 b 278 -236 196 -332 254 -290 b 289 -189 286 -218 289 -200 b 207 -65 289 -142 254 -97 b 242 0 217 -44 228 -24 b 488 185 356 25 488 119 b 443 267 488 214 463 250 z "},"ċ":{"ha":563,"x_min":0,"x_max":0,"o":"m 465 882 l 489 961 b 500 1006 497 989 500 1001 b 383 1069 500 1026 442 1056 l 360 990 b 349 946 351 963 349 950 b 465 882 349 925 407 896 z m -21 178 b 56 33 -21 114 1 71 b 189 -7 92 8 146 -7 b 488 185 308 -7 488 108 b 443 267 488 214 463 250 b 192 118 411 228 283 118 b 103 146 160 118 126 129 b 401 725 131 336 260 600 b 403 706 403 718 403 713 b 343 497 403 643 369 542 b 431 450 363 475 407 450 b 518 636 482 450 518 579 b 461 782 518 682 494 733 b 381 846 426 832 404 846 b -21 178 244 846 -21 401 z "},"d":{"ha":764,"x_min":0,"x_max":0,"o":"m 721 1004 b 610 1063 721 1026 635 1061 l 522 763 b 511 779 519 768 515 774 b 431 846 475 832 453 846 b -22 174 304 846 -22 401 b 54 33 -22 114 0 71 b 154 -4 88 11 125 -4 b 347 140 211 -4 282 54 l 342 122 b 333 72 338 106 333 81 b 383 18 333 54 357 36 b 389 15 385 17 386 15 b 447 -7 411 0 431 -7 b 704 238 517 -7 736 172 b 629 292 697 251 671 271 b 468 129 592 224 531 163 l 710 960 b 721 1004 718 988 721 999 z m 103 103 b 450 724 104 301 293 599 b 451 703 451 717 451 710 b 103 103 451 521 258 110 z "},"ð":{"ha":725,"x_min":0,"x_max":0,"o":"m 472 1076 l 417 986 b 519 750 521 914 540 861 b 458 790 494 782 476 790 b 24 174 332 790 24 382 b 100 33 24 114 46 71 b 200 -4 133 11 171 -4 b 590 547 322 -4 507 253 b 472 1076 676 850 665 989 z m 149 103 b 478 668 150 283 324 547 b 479 647 479 661 479 654 b 149 103 479 465 296 108 z "},"ď":{"ha":764,"x_min":0,"x_max":0,"o":"m 785 1110 b 726 881 754 976 726 896 b 824 808 726 851 776 821 b 889 1035 871 936 889 1017 b 785 1110 889 1069 828 1097 z m -22 174 b 54 33 -22 114 0 71 b 154 -4 88 11 125 -4 b 347 140 211 -4 282 54 l 342 122 b 333 72 338 106 333 81 b 383 18 333 54 357 36 b 389 15 385 17 386 15 b 447 -7 411 0 431 -7 b 704 238 517 -7 736 172 b 629 292 697 251 671 271 b 468 129 592 224 531 163 l 710 960 b 721 1004 718 988 721 999 b 610 1063 721 1026 635 1061 l 522 763 b 511 779 519 768 515 774 b 431 846 475 832 453 846 b -22 174 304 846 -22 401 z m 103 103 b 450 724 104 301 293 599 b 451 703 451 717 451 710 b 103 103 451 521 258 110 z "},"đ":{"ha":764,"x_min":0,"x_max":0,"o":"m 781 886 b 799 950 789 901 799 931 b 790 972 799 961 796 968 b 717 982 783 976 756 981 b 721 1004 719 994 721 1000 b 610 1063 721 1026 635 1061 l 586 982 b 357 960 482 979 372 971 b 335 893 346 951 335 918 b 338 876 335 886 336 881 b 560 890 424 883 493 889 l 522 763 b 511 779 519 768 515 774 b 431 846 475 832 453 846 b -22 174 304 846 -22 401 b 54 33 -22 114 0 71 b 154 -4 88 11 125 -4 b 347 140 211 -4 282 54 l 342 122 b 333 72 338 106 333 81 b 383 18 333 54 357 36 b 389 15 385 17 386 15 b 447 -7 411 0 431 -7 b 704 238 517 -7 736 172 b 629 292 697 251 671 271 b 468 129 592 224 531 163 l 690 890 b 781 886 718 890 749 889 z m 103 103 b 450 724 104 301 293 599 b 451 703 451 717 451 710 b 103 103 451 521 258 110 z "},"e":{"ha":556,"x_min":0,"x_max":0,"o":"m 435 211 b 219 119 404 175 311 119 b 153 132 192 119 169 124 b 556 656 358 264 556 465 b 508 783 556 692 549 724 b 431 846 475 832 456 846 b -18 197 301 846 -18 457 b 44 42 -18 128 6 76 b 201 -7 83 10 138 -7 b 479 129 326 -7 479 56 b 435 211 479 158 454 194 z m 118 246 b 450 726 147 378 311 613 b 451 696 450 717 451 706 b 118 246 451 535 293 363 z "},"é":{"ha":556,"x_min":0,"x_max":0,"o":"m 544 1092 b 336 961 475 1043 401 999 b 396 874 336 929 368 874 b 568 957 421 874 515 919 b 601 993 592 974 601 985 b 544 1092 601 1008 568 1078 z m -18 197 b 44 42 -18 128 6 76 b 201 -7 83 10 138 -7 b 479 129 326 -7 479 56 b 435 211 479 158 454 194 b 219 119 404 175 311 119 b 153 132 192 119 169 124 b 556 656 358 264 556 465 b 508 783 556 692 549 724 b 431 846 475 832 456 846 b -18 197 301 846 -18 457 z m 118 246 b 450 726 147 378 311 613 b 451 696 450 717 451 706 b 118 246 451 535 293 363 z "},"ě":{"ha":556,"x_min":0,"x_max":0,"o":"m 460 875 b 678 997 532 921 611 963 b 624 1085 678 1029 651 1085 b 492 1010 606 1085 543 1049 b 399 1093 456 1056 417 1093 b 317 1006 372 1093 325 1038 b 460 875 368 967 417 922 z m -18 197 b 44 42 -18 128 6 76 b 201 -7 83 10 138 -7 b 479 129 326 -7 479 56 b 435 211 479 158 454 194 b 219 119 404 175 311 119 b 153 132 192 119 169 124 b 556 656 358 264 556 465 b 508 783 556 692 549 724 b 431 846 475 832 456 846 b -18 197 301 846 -18 457 z m 118 246 b 450 726 147 378 311 613 b 451 696 450 717 451 706 b 118 246 451 535 293 363 z "},"ê":{"ha":556,"x_min":0,"x_max":0,"o":"m 493 1106 b 275 983 421 1060 342 1018 b 329 896 275 951 301 896 b 461 971 347 896 410 932 b 554 888 497 925 536 888 b 636 975 581 888 628 943 b 493 1106 585 1014 536 1058 z m -18 197 b 44 42 -18 128 6 76 b 201 -7 83 10 138 -7 b 479 129 326 -7 479 56 b 435 211 479 158 454 194 b 219 119 404 175 311 119 b 153 132 192 119 169 124 b 556 656 358 264 556 465 b 508 783 556 692 549 724 b 431 846 475 832 456 846 b -18 197 301 846 -18 457 z m 118 246 b 450 726 147 378 311 613 b 451 696 450 717 451 706 b 118 246 451 535 293 363 z "},"ë":{"ha":556,"x_min":0,"x_max":0,"o":"m 392 890 l 414 965 b 425 1008 422 992 425 1004 b 314 1069 425 1028 369 1056 l 292 993 b 281 951 283 967 281 956 b 392 890 281 932 336 904 z m -18 197 b 44 42 -18 128 6 76 b 201 -7 83 10 138 -7 b 479 129 326 -7 479 56 b 435 211 479 158 454 194 b 219 119 404 175 311 119 b 153 132 192 119 169 124 b 556 656 358 264 556 465 b 508 783 556 692 549 724 b 431 846 475 832 456 846 b -18 197 301 846 -18 457 z m 118 246 b 450 726 147 378 311 613 b 451 696 450 717 451 706 b 118 246 451 535 293 363 z m 499 915 b 610 854 499 896 554 868 l 632 929 b 643 972 640 956 643 968 b 532 1033 643 992 588 1019 l 510 957 b 499 915 501 931 499 919 z "},"ė":{"ha":556,"x_min":0,"x_max":0,"o":"m 508 882 l 532 961 b 543 1006 540 989 543 1001 b 426 1069 543 1026 485 1056 l 403 990 b 392 946 394 963 392 950 b 508 882 392 925 450 896 z m -18 197 b 44 42 -18 128 6 76 b 201 -7 83 10 138 -7 b 479 129 326 -7 479 56 b 435 211 479 158 454 194 b 219 119 404 175 311 119 b 153 132 192 119 169 124 b 556 656 358 264 556 465 b 508 783 556 692 549 724 b 431 846 475 832 456 846 b -18 197 301 846 -18 457 z m 118 246 b 450 726 147 378 311 613 b 451 696 450 717 451 706 b 118 246 451 535 293 363 z "},"è":{"ha":556,"x_min":0,"x_max":0,"o":"m 357 960 b 508 874 401 922 483 874 b 585 961 535 874 578 929 b 404 1092 526 999 464 1043 b 331 993 378 1078 331 1013 b 357 960 331 986 336 978 z m -18 197 b 44 42 -18 128 6 76 b 201 -7 83 10 138 -7 b 479 129 326 -7 479 56 b 435 211 479 158 454 194 b 219 119 404 175 311 119 b 153 132 192 119 169 124 b 556 656 358 264 556 465 b 508 783 556 692 549 724 b 431 846 475 832 456 846 b -18 197 301 846 -18 457 z m 118 246 b 450 726 147 378 311 613 b 451 696 450 717 451 706 b 118 246 451 535 293 363 z "},"ē":{"ha":556,"x_min":0,"x_max":0,"o":"m 614 1031 b 306 1018 585 1050 331 1038 b 286 914 290 1007 278 946 b 604 924 413 928 488 933 b 614 1031 617 958 632 1019 z m -18 197 b 44 42 -18 128 6 76 b 201 -7 83 10 138 -7 b 479 129 326 -7 479 56 b 435 211 479 158 454 194 b 219 119 404 175 311 119 b 153 132 192 119 169 124 b 556 656 358 264 556 465 b 508 783 556 692 549 724 b 431 846 475 832 456 846 b -18 197 301 846 -18 457 z m 118 246 b 450 726 147 378 311 613 b 451 696 450 717 451 706 b 118 246 451 535 293 363 z "},"ę":{"ha":556,"x_min":0,"x_max":0,"o":"m 435 211 b 219 119 404 175 311 119 b 153 132 192 119 169 124 b 556 656 358 264 556 465 b 508 783 556 692 549 724 b 431 846 475 832 456 846 b -18 197 301 846 -18 457 b 44 42 -18 128 6 76 b 165 -6 76 15 117 0 b 64 -175 85 -78 64 -133 b 75 -222 64 -186 67 -204 b 213 -318 99 -276 157 -318 b 342 -250 276 -318 342 -285 b 318 -158 342 -228 326 -165 b 199 -211 290 -187 238 -211 b 140 -189 175 -211 156 -204 b 400 40 174 -135 257 -60 b 479 129 447 64 479 96 b 435 211 479 158 454 194 z m 118 246 b 450 726 147 378 311 613 b 451 696 450 717 451 706 b 118 246 451 535 293 363 z "},"f":{"ha":676,"x_min":0,"x_max":0,"o":"m 475 -86 b 183 -182 396 -86 261 -133 l 188 -114 b 435 6 267 -74 346 -36 b 478 40 476 25 478 25 b 444 138 478 65 458 124 b 206 24 357 96 279 60 b 217 89 208 44 213 67 b 711 942 479 272 711 665 b 654 1101 711 1011 692 1058 b 597 1133 633 1128 617 1133 b 101 164 383 1133 183 607 b -69 89 46 126 -12 100 b -10 -1 -60 46 -42 -1 b 79 18 18 -1 47 6 l 71 -43 b -54 -108 31 -64 -11 -85 b -96 -146 -94 -129 -96 -131 b -67 -247 -96 -171 -81 -233 b 63 -178 -22 -224 19 -200 b 64 -271 61 -211 63 -243 l 64 -287 b 188 -346 68 -310 138 -343 b 546 -196 239 -257 431 -194 b 536 -104 549 -150 544 -117 b 475 -86 528 -92 506 -86 z m 260 283 b 622 1043 347 631 497 965 b 621 1033 622 1040 621 1038 b 260 283 606 803 453 493 z "},"g":{"ha":596,"x_min":0,"x_max":0,"o":"m 536 840 l 518 772 l 514 779 b 433 846 481 833 456 846 b -19 174 307 846 -19 401 b 57 33 -19 114 3 71 b 157 -4 90 11 128 -4 b 339 126 211 -4 276 49 b 38 -211 267 -61 164 -211 b -108 -160 -10 -211 -81 -192 b -153 -242 -128 -176 -153 -215 b 35 -336 -153 -289 -74 -336 b 539 368 310 -336 431 -56 l 633 739 b 642 782 640 767 642 776 b 536 840 642 804 563 838 z m 106 103 b 453 724 107 301 297 599 b 454 703 454 717 454 710 b 106 103 454 521 261 110 z "},"ğ":{"ha":596,"x_min":0,"x_max":0,"o":"m 476 894 b 653 1036 613 894 651 1007 b 560 1061 653 1049 617 1064 b 485 985 542 1011 515 985 b 440 1046 456 985 440 1004 b 347 1063 440 1063 403 1069 b 476 894 326 985 360 894 z m -153 -242 b 35 -336 -153 -289 -74 -336 b 539 368 310 -336 431 -56 l 633 739 b 642 782 640 767 642 776 b 536 840 642 804 563 838 l 518 772 l 514 779 b 433 846 481 833 456 846 b -19 174 307 846 -19 401 b 57 33 -19 114 3 71 b 157 -4 90 11 128 -4 b 339 126 211 -4 276 49 b 38 -211 267 -61 164 -211 b -108 -160 -10 -211 -81 -192 b -153 -242 -128 -176 -153 -215 z m 106 103 b 453 724 107 301 297 599 b 454 703 454 717 454 710 b 106 103 454 521 261 110 z "},"ģ":{"ha":596,"x_min":0,"x_max":0,"o":"m 488 874 b 571 1081 544 1025 569 1065 b 485 1147 572 1106 522 1133 b 397 940 433 1050 399 960 b 488 874 396 913 453 886 z m -153 -242 b 35 -336 -153 -289 -74 -336 b 539 368 310 -336 431 -56 l 633 739 b 642 782 640 767 642 776 b 536 840 642 804 563 838 l 518 772 l 514 779 b 433 846 481 833 456 846 b -19 174 307 846 -19 401 b 57 33 -19 114 3 71 b 157 -4 90 11 128 -4 b 339 126 211 -4 276 49 b 38 -211 267 -61 164 -211 b -108 -160 -10 -211 -81 -192 b -153 -242 -128 -176 -153 -215 z m 106 103 b 453 724 107 301 297 599 b 454 703 454 717 454 710 b 106 103 454 521 261 110 z "},"ġ":{"ha":596,"x_min":0,"x_max":0,"o":"m 531 882 l 554 961 b 565 1006 563 989 565 1001 b 449 1069 565 1026 507 1056 l 425 990 b 414 946 417 963 414 950 b 531 882 414 925 472 896 z m -153 -242 b 35 -336 -153 -289 -74 -336 b 539 368 310 -336 431 -56 l 633 739 b 642 782 640 767 642 776 b 536 840 642 804 563 838 l 518 772 l 514 779 b 433 846 481 833 456 846 b -19 174 307 846 -19 401 b 57 33 -19 114 3 71 b 157 -4 90 11 128 -4 b 339 126 211 -4 276 49 b 38 -211 267 -61 164 -211 b -108 -160 -10 -211 -81 -192 b -153 -242 -128 -176 -153 -215 z m 106 103 b 453 724 107 301 297 599 b 454 703 454 717 454 710 b 106 103 454 521 261 110 z "},"h":{"ha":761,"x_min":0,"x_max":0,"o":"m 701 238 b 626 292 694 251 668 271 b 482 139 593 231 538 174 l 500 190 l 631 553 b 643 625 651 610 651 614 b 558 674 631 642 590 668 b 276 389 499 628 381 519 b 447 960 332 579 389 769 b 458 1004 456 988 458 999 b 347 1063 458 1026 372 1061 b 71 92 249 739 156 415 b 61 47 64 64 61 53 b 165 -11 61 25 138 -8 b 453 418 250 175 332 290 l 340 93 b 333 63 336 79 333 68 b 381 18 333 51 335 50 b 444 -7 406 1 426 -7 b 701 238 514 -7 733 172 z "},"ħ":{"ha":772,"x_min":0,"x_max":0,"o":"m 713 238 b 638 292 706 251 679 271 b 493 139 604 231 549 174 l 511 190 l 642 553 b 654 625 663 610 663 614 b 569 674 642 642 601 668 b 288 389 510 628 392 519 b 438 890 336 557 386 724 b 494 892 457 892 475 892 b 647 886 542 892 590 890 b 665 950 656 901 665 931 b 657 972 665 961 663 968 b 521 983 646 979 590 983 l 465 983 b 469 1004 468 994 469 1000 b 358 1063 469 1026 383 1061 b 332 976 350 1033 340 1006 b 224 960 276 972 232 967 b 201 893 213 951 201 918 b 204 876 201 886 203 881 l 304 885 b 82 92 226 619 151 356 b 72 47 75 64 72 53 b 176 -11 72 25 149 -8 b 464 418 261 175 343 290 l 351 93 b 344 63 347 79 344 68 b 392 18 344 51 346 50 b 456 -7 417 1 438 -7 b 713 238 525 -7 744 172 z "},"i":{"ha":557,"x_min":0,"x_max":0,"o":"m 401 1069 l 378 990 b 367 946 369 963 367 950 b 483 882 367 925 425 896 l 507 961 b 518 1006 515 989 518 1001 b 401 1069 518 1026 460 1056 z m 21 513 b 81 417 21 490 56 433 b 282 626 142 482 211 554 l 139 107 b 131 67 133 85 131 74 b 176 18 131 54 151 35 b 240 -7 201 1 222 -7 b 497 238 310 -7 529 172 b 422 292 490 251 464 271 b 286 143 390 233 339 179 l 444 731 b 453 768 450 749 453 763 b 339 833 453 800 364 832 b 51 553 239 744 142 646 b 21 513 25 526 21 521 z "},"í":{"ha":557,"x_min":0,"x_max":0,"o":"m 519 1092 b 311 961 450 1043 376 999 b 371 874 311 929 343 874 b 543 957 396 874 490 919 b 576 993 567 974 576 985 b 519 1092 576 1008 543 1078 z m 21 513 b 81 417 21 490 56 433 b 282 626 142 482 211 554 l 139 107 b 131 67 133 85 131 74 b 176 18 131 54 151 35 b 240 -7 201 1 222 -7 b 497 238 310 -7 529 172 b 422 292 490 251 464 271 b 286 143 390 233 339 179 l 444 731 b 453 768 450 749 453 763 b 339 833 453 800 364 832 b 51 553 239 744 142 646 b 21 513 25 526 21 521 z "},"î":{"ha":557,"x_min":0,"x_max":0,"o":"m 468 1106 b 250 983 396 1060 317 1018 b 304 896 250 951 276 896 b 436 971 322 896 385 932 b 529 888 472 925 511 888 b 611 975 556 888 603 943 b 468 1106 560 1014 511 1058 z m 21 513 b 81 417 21 490 56 433 b 282 626 142 482 211 554 l 139 107 b 131 67 133 85 131 74 b 176 18 131 54 151 35 b 240 -7 201 1 222 -7 b 497 238 310 -7 529 172 b 422 292 490 251 464 271 b 286 143 390 233 339 179 l 444 731 b 453 768 450 749 453 763 b 339 833 453 800 364 832 b 51 553 239 744 142 646 b 21 513 25 526 21 521 z "},"ï":{"ha":557,"x_min":0,"x_max":0,"o":"m 367 890 l 389 965 b 400 1008 397 992 400 1004 b 289 1069 400 1028 344 1056 l 267 993 b 256 951 258 967 256 956 b 367 890 256 932 311 904 z m 21 513 b 81 417 21 490 56 433 b 282 626 142 482 211 554 l 139 107 b 131 67 133 85 131 74 b 176 18 131 54 151 35 b 240 -7 201 1 222 -7 b 497 238 310 -7 529 172 b 422 292 490 251 464 271 b 286 143 390 233 339 179 l 444 731 b 453 768 450 749 453 763 b 339 833 453 800 364 832 b 51 553 239 744 142 646 b 21 513 25 526 21 521 z m 474 915 b 585 854 474 896 529 868 l 607 929 b 618 972 615 956 618 968 b 507 1033 618 992 563 1019 l 485 957 b 474 915 476 931 474 919 z "},"ì":{"ha":557,"x_min":0,"x_max":0,"o":"m 379 1092 b 306 993 353 1078 306 1013 b 332 960 306 986 311 978 b 483 874 376 922 458 874 b 560 961 510 874 553 929 b 379 1092 501 999 439 1043 z m 21 513 b 81 417 21 490 56 433 b 282 626 142 482 211 554 l 139 107 b 131 67 133 85 131 74 b 176 18 131 54 151 35 b 240 -7 201 1 222 -7 b 497 238 310 -7 529 172 b 422 292 490 251 464 271 b 286 143 390 233 339 179 l 444 731 b 453 768 450 749 453 763 b 339 833 453 800 364 832 b 51 553 239 744 142 646 b 21 513 25 526 21 521 z "},"ī":{"ha":557,"x_min":0,"x_max":0,"o":"m 589 1031 b 281 1018 560 1050 306 1038 b 261 914 265 1007 253 946 b 579 924 388 928 463 933 b 589 1031 592 958 607 1019 z m 21 513 b 81 417 21 490 56 433 b 282 626 142 482 211 554 l 139 107 b 131 67 133 85 131 74 b 176 18 131 54 151 35 b 240 -7 201 1 222 -7 b 497 238 310 -7 529 172 b 422 292 490 251 464 271 b 286 143 390 233 339 179 l 444 731 b 453 768 450 749 453 763 b 339 833 453 800 364 832 b 51 553 239 744 142 646 b 21 513 25 526 21 521 z "},"į":{"ha":388,"x_min":0,"x_max":0,"o":"m 386 1069 l 363 990 b 351 946 354 963 351 950 b 468 882 351 925 410 896 l 492 961 b 503 1006 500 989 503 1001 b 386 1069 503 1026 444 1056 z m -10 -175 b 1 -222 -10 -186 -7 -204 b 139 -318 25 -276 83 -318 b 268 -250 203 -318 268 -285 b 244 -158 268 -228 253 -165 b 125 -211 217 -187 164 -211 b 67 -189 101 -211 82 -204 b 329 42 100 -133 185 -58 b 336 53 335 46 336 49 b 256 89 336 60 315 76 l 429 731 b 438 768 435 749 438 763 b 324 833 438 800 349 832 l 124 107 b 115 67 118 85 115 74 b 139 35 115 58 125 46 b -10 -175 19 -57 -10 -126 z "},"j":{"ha":436,"x_min":0,"x_max":0,"o":"m 414 1069 l 390 990 b 379 946 382 963 379 950 b 496 882 379 925 438 896 l 519 961 b 531 1006 528 989 531 1001 b 414 1069 531 1026 472 1056 z m -278 -243 b -104 -336 -278 -289 -208 -336 b 443 731 164 -336 258 -67 b 450 768 447 749 450 763 b 336 833 450 800 361 832 b 49 553 236 744 139 646 b 18 513 22 526 18 521 b 78 417 18 490 53 433 b 290 638 142 486 215 563 b -118 -211 139 0 42 -211 b -233 -160 -172 -211 -206 -192 b -278 -243 -253 -176 -278 -215 z "},"k":{"ha":804,"x_min":0,"x_max":0,"o":"m 744 238 b 669 292 738 251 711 271 b 503 126 631 222 567 158 b 413 307 476 167 442 229 b 708 647 504 418 599 524 b 731 685 725 667 731 676 b 631 761 731 713 664 756 b 256 321 471 596 351 449 b 444 960 315 533 379 747 b 456 1004 453 988 456 999 b 347 1063 456 1026 372 1061 b 71 92 249 739 156 415 b 61 47 64 64 61 53 b 165 -11 61 25 138 -8 b 315 188 218 61 267 126 b 424 18 350 106 383 46 b 488 -7 449 1 469 -7 b 744 238 557 -7 776 172 z "},"ķ":{"ha":804,"x_min":0,"x_max":0,"o":"m 744 238 b 669 292 738 251 711 271 b 503 126 631 222 567 158 b 413 307 476 167 442 229 b 708 647 504 418 599 524 b 731 685 725 667 731 676 b 631 761 731 713 664 756 b 256 321 471 596 351 449 b 444 960 315 533 379 747 b 456 1004 453 988 456 999 b 347 1063 456 1026 372 1061 b 71 92 249 739 156 415 b 61 47 64 64 61 53 b 165 -11 61 25 138 -8 b 315 188 218 61 267 126 b 424 18 350 106 383 46 b 488 -7 449 1 469 -7 b 744 238 557 -7 776 172 z m 122 -278 b 214 -337 122 -297 168 -329 b 319 -125 275 -262 319 -144 b 225 -64 319 -103 271 -72 b 122 -278 167 -208 122 -260 z "},"l":{"ha":628,"x_min":0,"x_max":0,"o":"m 493 292 b 315 121 453 218 383 151 b 232 242 276 161 249 200 b 679 968 428 419 679 771 b 633 1103 679 1022 663 1063 b 579 1133 617 1126 600 1133 b 78 353 386 1133 78 657 b 83 282 78 329 79 304 b -72 143 39 239 -12 193 b 10 63 -60 113 -10 63 b 53 89 17 63 28 68 b 125 157 78 111 103 133 b 247 18 154 101 196 54 b 311 -7 272 1 293 -7 b 568 238 381 -7 600 172 b 493 292 561 251 535 271 z m 208 394 b 596 1038 224 604 404 897 l 596 1035 b 208 394 569 850 386 579 z "},"ĺ":{"ha":628,"x_min":0,"x_max":0,"o":"m 689 1360 b 467 1229 611 1311 535 1267 b 543 1142 474 1197 517 1142 b 736 1229 574 1142 682 1189 b 763 1261 758 1246 763 1254 b 689 1360 763 1281 715 1346 z m -72 143 b 10 63 -60 113 -10 63 b 53 89 17 63 28 68 b 125 157 78 111 103 133 b 247 18 154 101 196 54 b 311 -7 272 1 293 -7 b 568 238 381 -7 600 172 b 493 292 561 251 535 271 b 315 121 453 218 383 151 b 232 242 276 161 249 200 b 679 968 428 419 679 771 b 633 1103 679 1022 663 1063 b 579 1133 617 1126 600 1133 b 78 353 386 1133 78 657 b 83 282 78 329 79 304 b -72 143 39 239 -12 193 z m 208 394 b 596 1038 224 604 404 897 l 596 1035 b 208 394 569 850 386 579 z "},"ľ":{"ha":628,"x_min":0,"x_max":0,"o":"m 679 968 b 633 1103 679 1022 663 1063 b 579 1133 617 1126 600 1133 b 78 353 386 1133 78 657 b 83 282 78 329 79 304 b -72 143 39 239 -12 193 b 10 63 -60 113 -10 63 b 53 89 17 63 28 68 b 125 157 78 111 103 133 b 247 18 154 101 196 54 b 311 -7 272 1 293 -7 b 568 238 381 -7 600 172 b 493 292 561 251 535 271 b 315 121 453 218 383 151 b 232 242 276 161 249 200 b 679 968 428 419 679 771 z m 208 394 b 596 1038 224 604 404 897 l 596 1035 b 208 394 569 850 386 579 z m 739 901 b 836 829 739 872 789 842 b 901 1056 883 957 901 1038 b 797 1131 901 1090 840 1118 b 739 901 767 997 739 917 z "},"ļ":{"ha":628,"x_min":0,"x_max":0,"o":"m 493 292 b 315 121 453 218 383 151 b 232 242 276 161 249 200 b 679 968 428 419 679 771 b 633 1103 679 1022 663 1063 b 579 1133 617 1126 600 1133 b 78 353 386 1133 78 657 b 83 282 78 329 79 304 b -72 143 39 239 -12 193 b 10 63 -60 113 -10 63 b 53 89 17 63 28 68 b 125 157 78 111 103 133 b 247 18 154 101 196 54 b 311 -7 272 1 293 -7 b 568 238 381 -7 600 172 b 493 292 561 251 535 271 z m 65 -278 b 157 -337 65 -297 111 -329 b 263 -125 218 -262 263 -144 b 168 -64 263 -103 214 -72 b 65 -278 110 -208 65 -260 z m 208 394 b 596 1038 224 604 404 897 l 596 1035 b 208 394 569 850 386 579 z "},"ł":{"ha":628,"x_min":0,"x_max":0,"o":"m 493 292 b 315 121 453 218 383 151 b 232 242 276 161 249 200 b 279 288 247 256 263 271 l 286 288 b 439 282 333 288 382 286 b 457 346 447 297 457 326 b 449 368 457 357 454 364 b 364 378 440 374 408 376 b 679 968 525 564 679 814 b 633 1103 679 1022 663 1063 b 579 1133 617 1126 600 1133 b 78 368 389 1133 88 672 b 15 356 44 365 22 360 b -7 289 4 347 -7 314 b -4 272 -7 282 -6 276 b 81 279 26 275 54 276 b -72 143 38 236 -14 193 b 10 63 -60 113 -10 63 b 53 89 17 63 28 68 b 125 157 78 111 103 133 b 247 18 154 101 196 54 b 311 -7 272 1 293 -7 b 568 238 381 -7 600 172 b 493 292 561 251 535 271 z m 208 394 b 596 1038 224 604 404 897 l 596 1035 b 208 394 569 850 386 579 z "},"m":{"ha":1082,"x_min":0,"x_max":0,"o":"m 1022 238 b 947 292 1015 251 989 271 b 803 139 914 231 858 174 l 821 190 l 911 439 b 921 511 932 496 929 500 b 838 560 908 528 872 554 b 582 315 776 514 675 418 l 674 572 b 683 644 693 629 692 633 b 601 694 671 661 633 689 b 332 425 543 651 433 549 b 432 731 364 526 397 629 b 443 775 442 758 443 769 b 339 833 443 797 364 832 b 51 553 239 744 142 646 b 21 513 25 526 21 521 b 81 417 21 490 56 433 b 265 610 136 476 200 543 b 106 92 210 436 156 264 b 94 47 97 64 94 53 b 200 -11 94 25 172 -8 b 497 438 281 174 374 311 l 378 93 b 367 47 368 64 367 53 b 476 -11 367 25 444 -8 b 735 308 514 69 599 179 l 661 93 b 654 63 657 79 654 68 b 701 18 654 51 656 50 b 765 -7 726 1 747 -7 b 1022 238 835 -7 1054 172 z "},"n":{"ha":796,"x_min":0,"x_max":0,"o":"m 736 238 b 661 292 729 251 703 271 b 515 138 628 229 572 172 l 535 190 l 665 553 b 678 625 686 610 686 614 b 593 674 665 642 625 668 b 328 410 536 631 428 531 b 432 731 361 517 396 624 b 443 775 442 758 443 769 b 339 833 443 797 364 832 b 51 553 239 744 142 646 b 21 513 25 526 21 521 b 81 417 21 490 56 433 b 265 610 136 476 200 543 b 106 92 210 436 156 264 b 94 47 97 64 94 53 b 200 -11 94 25 172 -8 b 488 418 285 175 367 290 l 375 93 b 368 63 371 79 368 68 b 415 18 368 51 369 50 b 479 -7 440 1 461 -7 b 736 238 549 -7 768 172 z "},"ń":{"ha":796,"x_min":0,"x_max":0,"o":"m 499 874 b 671 957 524 874 618 919 b 704 993 694 974 704 985 b 647 1092 704 1008 671 1078 b 439 961 578 1043 504 999 b 499 874 439 929 471 874 z m 21 513 b 81 417 21 490 56 433 b 265 610 136 476 200 543 b 106 92 210 436 156 264 b 94 47 97 64 94 53 b 200 -11 94 25 172 -8 b 488 418 285 175 367 290 l 375 93 b 368 63 371 79 368 68 b 415 18 368 51 369 50 b 479 -7 440 1 461 -7 b 736 238 549 -7 768 172 b 661 292 729 251 703 271 b 515 138 628 229 572 172 l 535 190 l 665 553 b 678 625 686 610 686 614 b 593 674 665 642 625 668 b 328 410 536 631 428 531 b 432 731 361 517 396 624 b 443 775 442 758 443 769 b 339 833 443 797 364 832 b 51 553 239 744 142 646 b 21 513 25 526 21 521 z "},"ň":{"ha":796,"x_min":0,"x_max":0,"o":"m 563 875 b 781 997 635 921 714 963 b 726 1085 781 1029 754 1085 b 594 1010 708 1085 646 1049 b 501 1093 558 1056 519 1093 b 419 1006 475 1093 428 1038 b 563 875 471 967 519 922 z m 21 513 b 81 417 21 490 56 433 b 265 610 136 476 200 543 b 106 92 210 436 156 264 b 94 47 97 64 94 53 b 200 -11 94 25 172 -8 b 488 418 285 175 367 290 l 375 93 b 368 63 371 79 368 68 b 415 18 368 51 369 50 b 479 -7 440 1 461 -7 b 736 238 549 -7 768 172 b 661 292 729 251 703 271 b 515 138 628 229 572 172 l 535 190 l 665 553 b 678 625 686 610 686 614 b 593 674 665 642 625 668 b 328 410 536 631 428 531 b 432 731 361 517 396 624 b 443 775 442 758 443 769 b 339 833 443 797 364 832 b 51 553 239 744 142 646 b 21 513 25 526 21 521 z "},"ņ":{"ha":796,"x_min":0,"x_max":0,"o":"m 736 238 b 661 292 729 251 703 271 b 515 138 628 229 572 172 l 535 190 l 665 553 b 678 625 686 610 686 614 b 593 674 665 642 625 668 b 328 410 536 631 428 531 b 432 731 361 517 396 624 b 443 775 442 758 443 769 b 339 833 443 797 364 832 b 51 553 239 744 142 646 b 21 513 25 526 21 521 b 81 417 21 490 56 433 b 265 610 136 476 200 543 b 106 92 210 436 156 264 b 94 47 97 64 94 53 b 200 -11 94 25 172 -8 b 488 418 285 175 367 290 l 375 93 b 368 63 371 79 368 68 b 415 18 368 51 369 50 b 479 -7 440 1 461 -7 b 736 238 549 -7 768 172 z m 189 -278 b 281 -337 189 -297 235 -329 b 386 -125 342 -262 386 -144 b 292 -64 386 -103 338 -72 b 189 -278 233 -208 189 -260 z "},"ŋ":{"ha":700,"x_min":0,"x_max":0,"o":"m 706 625 b 621 674 693 642 653 668 b 321 389 560 628 433 519 b 432 731 357 503 393 617 b 443 775 442 758 443 769 b 339 833 443 797 364 832 b 51 553 239 744 142 646 b 21 513 25 526 21 521 b 81 417 21 490 56 433 b 265 610 136 476 200 543 b 106 92 210 436 156 264 b 94 47 97 64 94 53 b 200 -11 94 25 172 -8 b 515 418 285 175 394 290 l 403 93 b 146 -211 324 -136 250 -211 b 31 -160 92 -211 58 -192 b -14 -243 11 -176 -14 -215 b 160 -336 -14 -289 56 -336 b 533 96 360 -336 442 -165 l 693 553 b 706 625 713 610 714 614 z "},"ñ":{"ha":796,"x_min":0,"x_max":0,"o":"m 743 1054 b 671 1010 721 1026 689 1010 b 561 1067 643 1010 599 1067 b 400 957 515 1067 400 981 b 464 910 400 950 436 914 b 536 954 486 938 518 954 b 644 897 569 954 603 897 b 807 1007 694 897 807 983 b 743 1054 807 1014 771 1050 z m 21 513 b 81 417 21 490 56 433 b 265 610 136 476 200 543 b 106 92 210 436 156 264 b 94 47 97 64 94 53 b 200 -11 94 25 172 -8 b 488 418 285 175 367 290 l 375 93 b 368 63 371 79 368 68 b 415 18 368 51 369 50 b 479 -7 440 1 461 -7 b 736 238 549 -7 768 172 b 661 292 729 251 703 271 b 515 138 628 229 572 172 l 535 190 l 665 553 b 678 625 686 610 686 614 b 593 674 665 642 625 668 b 328 410 536 631 428 531 b 432 731 361 517 396 624 b 443 775 442 758 443 769 b 339 833 443 797 364 832 b 51 553 239 744 142 646 b 21 513 25 526 21 521 z "},"o":{"ha":510,"x_min":0,"x_max":0,"o":"m 656 554 b 524 482 625 525 575 497 b 543 622 536 533 543 582 b 500 756 543 678 529 713 b 383 846 450 832 414 846 b -21 178 213 846 -21 401 b 56 29 -21 110 1 67 b 163 -8 89 7 126 -8 b 483 354 288 -8 413 171 b 696 456 590 367 686 435 b 656 554 704 472 678 535 z m 115 108 b 214 489 117 217 150 361 b 357 368 239 429 294 389 b 115 108 299 235 214 119 z m 306 576 b 435 744 306 635 349 690 b 439 699 438 732 439 718 b 397 474 439 640 424 557 b 306 576 344 486 306 521 z "},"ó":{"ha":510,"x_min":0,"x_max":0,"o":"m 356 874 b 528 957 381 874 475 919 b 561 993 551 974 561 985 b 504 1092 561 1008 528 1078 b 296 961 435 1043 361 999 b 356 874 296 929 328 874 z m -21 178 b 56 29 -21 110 1 67 b 163 -8 89 7 126 -8 b 483 354 288 -8 413 171 b 696 456 590 367 686 435 b 656 554 704 472 678 535 b 524 482 625 525 575 497 b 543 622 536 533 543 582 b 500 756 543 678 529 713 b 383 846 450 832 414 846 b -21 178 213 846 -21 401 z m 115 108 b 214 489 117 217 150 361 b 357 368 239 429 294 389 b 115 108 299 235 214 119 z m 306 576 b 435 744 306 635 349 690 b 439 699 438 732 439 718 b 397 474 439 640 424 557 b 306 576 344 486 306 521 z "},"ô":{"ha":510,"x_min":0,"x_max":0,"o":"m 289 896 b 421 971 307 896 369 932 b 514 888 457 925 496 888 b 596 975 540 888 588 943 b 453 1106 544 1014 496 1058 b 235 983 381 1060 301 1018 b 289 896 235 951 261 896 z m -21 178 b 56 29 -21 110 1 67 b 163 -8 89 7 126 -8 b 483 354 288 -8 413 171 b 696 456 590 367 686 435 b 656 554 704 472 678 535 b 524 482 625 525 575 497 b 543 622 536 533 543 582 b 500 756 543 678 529 713 b 383 846 450 832 414 846 b -21 178 213 846 -21 401 z m 115 108 b 214 489 117 217 150 361 b 357 368 239 429 294 389 b 115 108 299 235 214 119 z m 306 576 b 435 744 306 635 349 690 b 439 699 438 732 439 718 b 397 474 439 640 424 557 b 306 576 344 486 306 521 z "},"ö":{"ha":510,"x_min":0,"x_max":0,"o":"m 351 890 l 374 965 b 385 1008 382 992 385 1004 b 274 1069 385 1028 329 1056 l 251 993 b 240 951 243 967 240 956 b 351 890 240 932 296 904 z m -21 178 b 56 29 -21 110 1 67 b 163 -8 89 7 126 -8 b 483 354 288 -8 413 171 b 696 456 590 367 686 435 b 656 554 704 472 678 535 b 524 482 625 525 575 497 b 543 622 536 533 543 582 b 500 756 543 678 529 713 b 383 846 450 832 414 846 b -21 178 213 846 -21 401 z m 115 108 b 214 489 117 217 150 361 b 357 368 239 429 294 389 b 115 108 299 235 214 119 z m 306 576 b 435 744 306 635 349 690 b 439 699 438 732 439 718 b 397 474 439 640 424 557 b 306 576 344 486 306 521 z m 458 915 b 569 854 458 896 514 868 l 592 929 b 603 972 600 956 603 968 b 492 1033 603 992 547 1019 l 469 957 b 458 915 461 931 458 919 z "},"ò":{"ha":510,"x_min":0,"x_max":0,"o":"m 317 960 b 468 874 361 922 443 874 b 544 961 494 874 538 929 b 364 1092 486 999 424 1043 b 290 993 338 1078 290 1013 b 317 960 290 986 296 978 z m -21 178 b 56 29 -21 110 1 67 b 163 -8 89 7 126 -8 b 483 354 288 -8 413 171 b 696 456 590 367 686 435 b 656 554 704 472 678 535 b 524 482 625 525 575 497 b 543 622 536 533 543 582 b 500 756 543 678 529 713 b 383 846 450 832 414 846 b -21 178 213 846 -21 401 z m 115 108 b 214 489 117 217 150 361 b 357 368 239 429 294 389 b 115 108 299 235 214 119 z m 306 576 b 435 744 306 635 349 690 b 439 699 438 732 439 718 b 397 474 439 640 424 557 b 306 576 344 486 306 521 z "},"ő":{"ha":510,"x_min":0,"x_max":0,"o":"m 326 888 b 417 974 351 888 394 940 b 436 1015 431 993 436 1007 b 369 1092 436 1029 396 1088 b 256 936 331 1036 293 983 b 326 888 265 910 299 888 z m -21 178 b 56 29 -21 110 1 67 b 163 -8 89 7 126 -8 b 483 354 288 -8 413 171 b 696 456 590 367 686 435 b 656 554 704 472 678 535 b 524 482 625 525 575 497 b 543 622 536 533 543 582 b 500 756 543 678 529 713 b 383 846 450 832 414 846 b -21 178 213 846 -21 401 z m 115 108 b 214 489 117 217 150 361 b 357 368 239 429 294 389 b 115 108 299 235 214 119 z m 306 576 b 435 744 306 635 349 690 b 439 699 438 732 439 718 b 397 474 439 640 424 557 b 306 576 344 486 306 521 z m 414 922 b 485 874 424 896 457 874 b 575 960 510 874 553 926 b 594 1001 589 979 594 993 b 528 1078 594 1015 554 1074 b 414 922 489 1022 451 969 z "},"ō":{"ha":510,"x_min":0,"x_max":0,"o":"m 564 924 b 574 1031 576 958 592 1019 b 265 1018 544 1050 290 1038 b 246 914 250 1007 238 946 b 564 924 372 928 447 933 z m -21 178 b 56 29 -21 110 1 67 b 163 -8 89 7 126 -8 b 483 354 288 -8 413 171 b 696 456 590 367 686 435 b 656 554 704 472 678 535 b 524 482 625 525 575 497 b 543 622 536 533 543 582 b 500 756 543 678 529 713 b 383 846 450 832 414 846 b -21 178 213 846 -21 401 z m 115 108 b 214 489 117 217 150 361 b 357 368 239 429 294 389 b 115 108 299 235 214 119 z m 306 576 b 435 744 306 635 349 690 b 439 699 438 732 439 718 b 397 474 439 640 424 557 b 306 576 344 486 306 521 z "},"ø":{"ha":510,"x_min":0,"x_max":0,"o":"m 656 554 b 524 482 625 525 575 497 b 543 622 536 533 543 582 b 507 744 543 674 532 707 l 585 878 b 601 911 599 900 601 908 b 482 963 601 926 553 956 l 411 842 b 383 846 401 844 392 846 b -21 178 213 846 -21 401 b 26 53 -21 124 -7 86 b -26 -42 8 22 -8 -10 b -42 -75 -39 -64 -42 -72 b 78 -126 -42 -90 7 -119 b 142 -7 100 -86 121 -46 b 163 -8 149 -8 156 -8 b 483 354 288 -8 413 171 b 696 456 590 367 686 435 b 656 554 704 472 678 535 z m 115 108 b 214 489 117 217 150 361 b 357 368 239 429 294 389 b 115 108 299 235 214 119 z m 306 576 b 435 744 306 635 349 690 b 439 699 438 732 439 718 b 397 474 439 640 424 557 b 306 576 344 486 306 521 z "},"õ":{"ha":510,"x_min":0,"x_max":0,"o":"m 321 910 b 393 954 343 938 375 954 b 501 897 426 954 460 897 b 664 1007 551 897 664 983 b 600 1054 664 1014 628 1050 b 528 1010 578 1026 546 1010 b 418 1067 500 1010 456 1067 b 257 957 372 1067 257 981 b 321 910 257 950 293 914 z m -21 178 b 56 29 -21 110 1 67 b 163 -8 89 7 126 -8 b 483 354 288 -8 413 171 b 696 456 590 367 686 435 b 656 554 704 472 678 535 b 524 482 625 525 575 497 b 543 622 536 533 543 582 b 500 756 543 678 529 713 b 383 846 450 832 414 846 b -21 178 213 846 -21 401 z m 115 108 b 214 489 117 217 150 361 b 357 368 239 429 294 389 b 115 108 299 235 214 119 z m 306 576 b 435 744 306 635 349 690 b 439 699 438 732 439 718 b 397 474 439 640 424 557 b 306 576 344 486 306 521 z "},"œ":{"ha":890,"x_min":0,"x_max":0,"o":"m 769 211 b 554 119 739 175 646 119 b 465 147 513 119 482 131 b 447 207 451 165 447 188 b 453 246 447 218 449 232 l 465 246 b 890 656 649 246 890 450 b 843 783 890 692 883 724 b 765 846 810 832 790 846 b 538 676 711 846 622 776 b 500 756 531 704 518 728 b 383 846 450 832 414 846 b -21 178 213 846 -21 401 b 56 29 -21 110 1 67 b 163 -8 89 7 126 -8 b 338 97 224 -8 283 33 b 379 42 347 75 363 57 b 536 -7 418 10 472 -7 b 814 129 661 -7 814 56 b 769 211 814 158 789 194 z m 115 108 b 204 469 117 213 146 347 b 321 293 224 397 264 335 b 115 108 265 194 194 117 z m 300 576 b 328 657 300 604 310 631 b 435 744 360 692 396 721 b 439 699 438 732 439 718 b 390 454 439 636 421 546 b 364 397 381 436 372 417 b 300 576 321 439 300 508 z m 500 365 b 785 726 565 492 682 642 b 786 696 785 717 786 706 b 500 365 786 529 640 390 z "},"p":{"ha":779,"x_min":0,"x_max":0,"o":"m 719 238 b 644 292 713 251 686 271 b 478 126 606 222 542 158 b 547 251 493 158 517 199 b 617 383 610 357 617 369 b 613 396 617 388 615 392 b 529 456 599 417 560 449 b 325 319 485 438 400 386 l 483 731 b 497 775 494 758 497 769 b 390 833 497 797 415 832 b 39 475 267 721 150 596 b 8 435 13 449 8 443 b 68 339 8 413 43 356 b 293 581 138 415 214 499 l 117 124 l -75 -56 b -108 -93 -103 -82 -108 -85 b -56 -183 -108 -115 -74 -174 b 29 -101 -28 -157 1 -129 l -24 -239 b -37 -283 -35 -267 -37 -278 b 69 -342 -35 -306 42 -339 l 243 107 b 425 264 304 165 364 218 b 338 85 379 188 338 101 b 399 18 338 71 347 53 b 463 -7 424 1 444 -7 b 719 238 532 -7 751 172 z "},"þ":{"ha":711,"x_min":0,"x_max":0,"o":"m 697 779 b 617 846 661 832 639 846 b 364 629 557 846 458 760 b 464 960 403 760 439 876 b 475 1004 472 988 475 999 b 364 1063 475 1026 389 1061 b 3 -231 267 744 93 114 b -7 -275 -4 -258 -7 -269 b 97 -333 -7 -297 69 -331 b 182 -11 107 -297 139 -171 b 200 51 188 10 193 31 b 335 -8 239 10 294 -8 b 742 653 521 -8 742 417 b 697 779 742 692 735 724 z m 244 172 b 636 725 338 399 489 621 b 638 703 638 718 638 711 b 324 119 638 513 431 119 b 244 172 301 119 269 136 z "},"q":{"ha":597,"x_min":0,"x_max":0,"o":"m 539 840 l 518 764 l 510 778 b 429 844 474 831 451 844 b -24 172 303 844 -24 400 b 53 32 -24 113 -1 69 b 153 -6 86 10 124 -6 b 336 126 207 -6 274 47 b 225 -239 300 6 263 -117 b 214 -283 217 -267 214 -278 b 325 -342 214 -306 300 -340 b 633 739 435 18 539 378 b 643 782 640 767 643 776 b 539 840 643 804 567 838 z m 101 101 b 449 722 103 300 293 597 b 450 701 450 715 450 708 b 101 101 450 519 257 108 z "},"r":{"ha":794,"x_min":0,"x_max":0,"o":"m 735 238 b 660 292 728 251 701 271 b 485 122 619 219 551 153 b 574 288 500 160 526 211 b 621 376 617 356 621 369 b 543 456 621 404 564 449 b 446 440 515 444 481 440 l 444 440 b 651 844 561 608 651 775 b 615 942 651 885 636 913 b 525 1010 579 994 551 1010 b 156 543 418 1010 156 749 b 247 367 156 467 192 406 b -69 88 133 231 7 111 b -7 -7 -58 40 -37 -7 b 364 321 47 -7 222 144 b 408 318 378 319 393 318 b 449 321 422 318 436 319 b 344 97 396 243 344 119 b 414 18 344 85 360 56 b 478 -7 439 1 460 -7 b 735 238 547 -7 767 172 z m 283 549 b 561 910 283 681 471 875 b 318 474 539 811 439 636 b 283 549 296 490 283 515 z "},"ŕ":{"ha":794,"x_min":0,"x_max":0,"o":"m 524 1050 b 696 1133 549 1050 643 1096 b 729 1169 719 1150 729 1161 b 672 1268 729 1185 696 1254 b 464 1138 603 1219 529 1175 b 524 1050 464 1106 496 1050 z m -69 88 b -7 -7 -58 40 -37 -7 b 364 321 47 -7 222 144 b 408 318 378 319 393 318 b 449 321 422 318 436 319 b 344 97 396 243 344 119 b 414 18 344 85 360 56 b 478 -7 439 1 460 -7 b 735 238 547 -7 767 172 b 660 292 728 251 701 271 b 485 122 619 219 551 153 b 574 288 500 160 526 211 b 621 376 617 356 621 369 b 543 456 621 404 564 449 b 446 440 515 444 481 440 l 444 440 b 651 844 561 608 651 775 b 615 942 651 885 636 913 b 525 1010 579 994 551 1010 b 156 543 418 1010 156 749 b 247 367 156 467 192 406 b -69 88 133 231 7 111 z m 283 549 b 561 910 283 681 471 875 b 318 474 539 811 439 636 b 283 549 296 490 283 515 z "},"ř":{"ha":794,"x_min":0,"x_max":0,"o":"m 588 1051 b 806 1174 660 1097 739 1139 b 751 1261 806 1206 779 1261 b 619 1186 733 1261 671 1225 b 526 1269 583 1232 544 1269 b 444 1182 500 1269 453 1214 b 588 1051 496 1143 544 1099 z m -69 88 b -7 -7 -58 40 -37 -7 b 364 321 47 -7 222 144 b 408 318 378 319 393 318 b 449 321 422 318 436 319 b 344 97 396 243 344 119 b 414 18 344 85 360 56 b 478 -7 439 1 460 -7 b 735 238 547 -7 767 172 b 660 292 728 251 701 271 b 485 122 619 219 551 153 b 574 288 500 160 526 211 b 621 376 617 356 621 369 b 543 456 621 404 564 449 b 446 440 515 444 481 440 l 444 440 b 651 844 561 608 651 775 b 615 942 651 885 636 913 b 525 1010 579 994 551 1010 b 156 543 418 1010 156 749 b 247 367 156 467 192 406 b -69 88 133 231 7 111 z m 283 549 b 561 910 283 681 471 875 b 318 474 539 811 439 636 b 283 549 296 490 283 515 z "},"ŗ":{"ha":794,"x_min":0,"x_max":0,"o":"m 735 238 b 660 292 728 251 701 271 b 485 122 619 219 551 153 b 574 288 500 160 526 211 b 621 376 617 356 621 369 b 543 456 621 404 564 449 b 446 440 515 444 481 440 l 444 440 b 651 844 561 608 651 775 b 615 942 651 885 636 913 b 525 1010 579 994 551 1010 b 156 543 418 1010 156 749 b 247 367 156 467 192 406 b -69 88 133 231 7 111 b -7 -7 -58 40 -37 -7 b 364 321 47 -7 222 144 b 408 318 378 319 393 318 b 449 321 422 318 436 319 b 344 97 396 243 344 119 b 414 18 344 85 360 56 b 478 -7 439 1 460 -7 b 735 238 547 -7 767 172 z m 111 -278 b 203 -337 111 -297 157 -329 b 308 -125 264 -262 308 -144 b 214 -64 308 -103 260 -72 b 111 -278 156 -208 111 -260 z m 283 549 b 561 910 283 681 471 875 b 318 474 539 811 439 636 b 283 549 296 490 283 515 z "},"s":{"ha":642,"x_min":0,"x_max":0,"o":"m 569 939 b 199 329 433 669 310 469 b 96 464 151 378 117 422 b 11 393 60 453 11 413 b 118 236 11 382 18 331 b -71 82 50 161 -14 111 b 1 -7 -60 39 -24 -7 b 211 147 14 -7 81 3 b 472 -7 340 33 444 -7 b 540 54 496 -7 526 24 b 631 579 529 335 549 433 b 638 597 636 586 638 593 b 621 633 639 606 635 618 l 575 682 b 674 864 606 738 639 799 b 569 939 688 890 614 936 z m 290 243 b 444 465 336 301 388 375 b 415 154 410 360 406 264 b 290 243 367 182 324 213 z "},"ś":{"ha":642,"x_min":0,"x_max":0,"o":"m 694 1197 b 486 1067 625 1149 551 1104 b 546 979 486 1035 518 979 b 718 1063 571 979 665 1025 b 751 1099 742 1079 751 1090 b 694 1197 751 1114 718 1183 z m -71 82 b 1 -7 -60 39 -24 -7 b 211 147 14 -7 81 3 b 472 -7 340 33 444 -7 b 540 54 496 -7 526 24 b 631 579 529 335 549 433 b 638 597 636 586 638 593 b 621 633 639 606 635 618 l 575 682 b 674 864 606 738 639 799 b 569 939 688 890 614 936 b 199 329 433 669 310 469 b 96 464 151 378 117 422 b 11 393 60 453 11 413 b 118 236 11 382 18 331 b -71 82 50 161 -14 111 z m 290 243 b 444 465 336 301 388 375 b 415 154 410 360 406 264 b 290 243 367 182 324 213 z "},"š":{"ha":642,"x_min":0,"x_max":0,"o":"m 610 981 b 828 1103 682 1026 761 1068 b 774 1190 828 1135 801 1190 b 642 1115 756 1190 693 1154 b 549 1199 606 1161 567 1199 b 467 1111 522 1199 475 1143 b 610 981 518 1072 567 1028 z m -71 82 b 1 -7 -60 39 -24 -7 b 211 147 14 -7 81 3 b 472 -7 340 33 444 -7 b 540 54 496 -7 526 24 b 631 579 529 335 549 433 b 638 597 636 586 638 593 b 621 633 639 606 635 618 l 575 682 b 674 864 606 738 639 799 b 569 939 688 890 614 936 b 199 329 433 669 310 469 b 96 464 151 378 117 422 b 11 393 60 453 11 413 b 118 236 11 382 18 331 b -71 82 50 161 -14 111 z m 290 243 b 444 465 336 301 388 375 b 415 154 410 360 406 264 b 290 243 367 182 324 213 z "},"ş":{"ha":642,"x_min":0,"x_max":0,"o":"m 569 939 b 199 329 433 669 310 469 b 96 464 151 378 117 422 b 11 393 60 453 11 413 b 118 236 11 382 18 331 b -71 82 50 161 -14 111 b 1 -7 -60 39 -24 -7 b 211 147 14 -7 81 3 b 274 96 232 128 254 111 b 171 -112 219 8 183 -67 b 293 -206 236 -150 274 -181 b 238 -225 278 -218 260 -225 b 118 -172 199 -225 146 -201 b 94 -264 110 -179 94 -242 b 224 -332 94 -299 160 -332 b 361 -236 279 -332 338 -290 b 372 -189 369 -218 372 -200 b 290 -65 372 -142 338 -97 b 353 43 306 -32 326 1 b 472 -7 413 7 456 -7 b 540 54 496 -7 526 24 b 631 579 529 335 549 433 b 638 597 636 586 638 593 b 621 633 639 606 635 618 l 575 682 b 674 864 606 738 639 799 b 569 939 688 890 614 936 z m 290 243 b 444 465 336 301 388 375 b 415 154 410 360 406 264 b 290 243 367 182 324 213 z "},"ș":{"ha":642,"x_min":0,"x_max":0,"o":"m 569 939 b 199 329 433 669 310 469 b 96 464 151 378 117 422 b 11 393 60 453 11 413 b 118 236 11 382 18 331 b -71 82 50 161 -14 111 b 1 -7 -60 39 -24 -7 b 211 147 14 -7 81 3 b 472 -7 340 33 444 -7 b 540 54 496 -7 526 24 b 631 579 529 335 549 433 b 638 597 636 586 638 593 b 621 633 639 606 635 618 l 575 682 b 674 864 606 738 639 799 b 569 939 688 890 614 936 z m 47 -278 b 139 -337 47 -297 93 -329 b 244 -125 200 -262 244 -144 b 150 -64 244 -103 196 -72 b 47 -278 92 -208 47 -260 z m 290 243 b 444 465 336 301 388 375 b 415 154 410 360 406 264 b 290 243 367 182 324 213 z "},"ß":{"ha":833,"x_min":0,"x_max":0,"o":"m 550 496 b 793 886 589 586 793 746 b 763 994 793 913 786 953 b 636 1074 728 1054 683 1074 b 211 638 561 1074 375 1013 b 35 92 140 475 82 272 b 25 47 28 64 25 53 b 136 -11 25 25 108 -8 b 338 604 196 188 253 414 b 682 976 425 799 510 899 b 435 567 711 850 511 689 b 406 488 417 540 406 513 b 418 429 406 468 411 444 b 621 263 478 382 583 294 b 472 128 593 169 536 128 b 293 197 417 128 353 149 b 244 110 267 179 244 136 b 447 -3 244 56 342 -3 b 708 176 553 -3 657 58 b 735 290 726 218 735 260 b 703 365 735 314 729 338 b 550 496 683 386 617 444 z "},"t":{"ha":567,"x_min":0,"x_max":0,"o":"m 286 192 l 432 719 b 593 713 474 718 533 717 b 607 790 600 733 607 768 b 601 813 607 803 606 811 b 461 822 593 817 526 821 l 489 925 b 500 969 497 953 500 965 b 396 1028 500 990 436 1021 l 339 824 b 178 811 267 822 189 817 b 160 735 165 806 160 764 b 161 713 160 725 160 718 b 310 719 214 715 267 718 b -12 358 251 589 147 493 b 63 290 -1 332 43 290 b 106 317 69 290 81 296 b 233 443 153 357 196 397 l 144 122 b 136 72 140 106 136 81 b 186 18 136 54 158 36 b 250 -7 211 1 232 -7 b 507 238 319 -7 539 172 b 432 292 500 251 474 271 b 274 131 396 225 335 164 b 286 192 276 151 281 172 z "},"ŧ":{"ha":567,"x_min":0,"x_max":0,"o":"m 461 822 l 474 872 l 478 872 b 631 867 525 872 574 871 b 649 931 639 882 649 911 b 640 953 649 942 646 949 b 504 964 629 960 574 964 l 499 964 b 500 969 500 967 500 968 b 396 1028 500 990 436 1021 l 378 961 b 207 940 293 957 219 950 b 185 874 196 932 185 899 b 188 857 185 867 186 861 b 351 869 249 863 301 867 l 339 824 b 178 811 267 822 189 817 b 160 735 165 806 160 764 b 161 713 160 725 160 718 b 310 719 214 715 267 718 b -12 358 251 589 147 493 b 63 290 -1 332 43 290 b 106 317 69 290 81 296 b 233 443 153 357 196 397 l 144 122 b 136 72 140 106 136 81 b 186 18 136 54 158 36 b 250 -7 211 1 232 -7 b 507 238 319 -7 539 172 b 432 292 500 251 474 271 b 274 131 396 225 335 164 b 286 192 276 151 281 172 l 432 719 b 593 713 474 718 533 717 b 607 790 600 733 607 768 b 601 813 607 803 606 811 b 461 822 593 817 526 821 z "},"ť":{"ha":567,"x_min":0,"x_max":0,"o":"m 656 1110 b 597 881 625 976 597 896 b 694 808 597 851 647 821 b 760 1035 742 936 760 1017 b 656 1110 760 1069 699 1097 z m -12 358 b 63 290 -1 332 43 290 b 106 317 69 290 81 296 b 233 443 153 357 196 397 l 144 122 b 136 72 140 106 136 81 b 186 18 136 54 158 36 b 250 -7 211 1 232 -7 b 507 238 319 -7 539 172 b 432 292 500 251 474 271 b 274 131 396 225 335 164 b 286 192 276 151 281 172 l 432 719 b 593 713 474 718 533 717 b 607 790 600 733 607 768 b 601 813 607 803 606 811 b 461 822 593 817 526 821 l 489 925 b 500 969 497 953 500 965 b 396 1028 500 990 436 1021 l 339 824 b 178 811 267 822 189 817 b 160 735 165 806 160 764 b 161 713 160 725 160 718 b 310 719 214 715 267 718 b -12 358 251 589 147 493 z "},"ţ":{"ha":567,"x_min":0,"x_max":0,"o":"m 286 192 l 432 719 b 593 713 474 718 533 717 b 607 790 600 733 607 768 b 601 813 607 803 606 811 b 461 822 593 817 526 821 l 489 925 b 500 969 497 953 500 965 b 396 1028 500 990 436 1021 l 339 824 b 178 811 267 822 189 817 b 160 735 165 806 160 764 b 161 713 160 725 160 718 b 310 719 214 715 267 718 b -12 358 251 589 147 493 b 63 290 -1 332 43 290 b 106 317 69 290 81 296 b 233 443 153 357 196 397 l 144 122 b 136 72 140 106 136 81 b 154 42 136 63 143 51 b 83 -112 118 -22 93 -76 b 206 -206 149 -150 186 -181 b 150 -225 190 -218 172 -225 b 31 -172 111 -225 58 -201 b 7 -264 22 -179 7 -242 b 136 -332 7 -299 72 -332 b 274 -236 192 -332 250 -290 b 285 -189 282 -218 285 -200 b 203 -65 285 -142 250 -97 b 235 -6 211 -46 222 -26 b 250 -7 240 -7 246 -7 b 507 238 319 -7 539 172 b 432 292 500 251 474 271 b 274 131 396 225 335 164 b 286 192 276 151 281 172 z "},"ț":{"ha":567,"x_min":0,"x_max":0,"o":"m 286 192 l 432 719 b 593 713 474 718 533 717 b 607 790 600 733 607 768 b 601 813 607 803 606 811 b 461 822 593 817 526 821 l 489 925 b 500 969 497 953 500 965 b 396 1028 500 990 436 1021 l 339 824 b 178 811 267 822 189 817 b 160 735 165 806 160 764 b 161 713 160 725 160 718 b 310 719 214 715 267 718 b -12 358 251 589 147 493 b 63 290 -1 332 43 290 b 106 317 69 290 81 296 b 233 443 153 357 196 397 l 144 122 b 136 72 140 106 136 81 b 186 18 136 54 158 36 b 250 -7 211 1 232 -7 b 507 238 319 -7 539 172 b 432 292 500 251 474 271 b 274 131 396 225 335 164 b 286 192 276 151 281 172 z m 54 -278 b 146 -337 54 -297 100 -329 b 251 -125 207 -262 251 -144 b 157 -64 251 -103 203 -72 b 54 -278 99 -208 54 -260 z "},"u":{"ha":825,"x_min":0,"x_max":0,"o":"m 765 238 b 690 292 758 251 732 271 b 549 140 657 231 604 175 b 565 190 554 157 560 175 l 681 553 b 693 625 699 611 701 614 b 608 674 681 642 640 668 b 249 151 525 493 368 261 b 432 731 306 344 367 538 b 443 775 442 758 443 769 b 339 833 443 797 364 832 b 51 553 239 744 142 646 b 21 513 25 526 21 521 b 81 417 21 490 56 433 b 264 608 136 476 199 543 b 104 93 208 436 154 265 b 97 64 100 79 97 68 b 144 18 97 51 99 50 b 208 -7 169 1 190 -7 b 432 181 268 -7 351 72 l 413 119 b 403 67 407 103 403 75 b 444 18 403 50 419 36 b 508 -7 469 1 490 -7 b 765 238 578 -7 797 172 z "},"ú":{"ha":825,"x_min":0,"x_max":0,"o":"m 531 874 b 703 957 556 874 650 919 b 736 993 726 974 736 985 b 679 1092 736 1008 703 1078 b 471 961 610 1043 536 999 b 531 874 471 929 503 874 z m 21 513 b 81 417 21 490 56 433 b 264 608 136 476 199 543 b 104 93 208 436 154 265 b 97 64 100 79 97 68 b 144 18 97 51 99 50 b 208 -7 169 1 190 -7 b 432 181 268 -7 351 72 l 413 119 b 403 67 407 103 403 75 b 444 18 403 50 419 36 b 508 -7 469 1 490 -7 b 765 238 578 -7 797 172 b 690 292 758 251 732 271 b 549 140 657 231 604 175 b 565 190 554 157 560 175 l 681 553 b 693 625 699 611 701 614 b 608 674 681 642 640 668 b 249 151 525 493 368 261 b 432 731 306 344 367 538 b 443 775 442 758 443 769 b 339 833 443 797 364 832 b 51 553 239 744 142 646 b 21 513 25 526 21 521 z "},"û":{"ha":825,"x_min":0,"x_max":0,"o":"m 464 896 b 596 971 482 896 544 932 b 689 888 632 925 671 888 b 771 975 715 888 763 943 b 628 1106 719 1014 671 1058 b 410 983 556 1060 476 1018 b 464 896 410 951 436 896 z m 21 513 b 81 417 21 490 56 433 b 264 608 136 476 199 543 b 104 93 208 436 154 265 b 97 64 100 79 97 68 b 144 18 97 51 99 50 b 208 -7 169 1 190 -7 b 432 181 268 -7 351 72 l 413 119 b 403 67 407 103 403 75 b 444 18 403 50 419 36 b 508 -7 469 1 490 -7 b 765 238 578 -7 797 172 b 690 292 758 251 732 271 b 549 140 657 231 604 175 b 565 190 554 157 560 175 l 681 553 b 693 625 699 611 701 614 b 608 674 681 642 640 668 b 249 151 525 493 368 261 b 432 731 306 344 367 538 b 443 775 442 758 443 769 b 339 833 443 797 364 832 b 51 553 239 744 142 646 b 21 513 25 526 21 521 z "},"ü":{"ha":825,"x_min":0,"x_max":0,"o":"m 526 890 l 549 965 b 560 1008 557 992 560 1004 b 449 1069 560 1028 504 1056 l 426 993 b 415 951 418 967 415 956 b 526 890 415 932 471 904 z m 21 513 b 81 417 21 490 56 433 b 264 608 136 476 199 543 b 104 93 208 436 154 265 b 97 64 100 79 97 68 b 144 18 97 51 99 50 b 208 -7 169 1 190 -7 b 432 181 268 -7 351 72 l 413 119 b 403 67 407 103 403 75 b 444 18 403 50 419 36 b 508 -7 469 1 490 -7 b 765 238 578 -7 797 172 b 690 292 758 251 732 271 b 549 140 657 231 604 175 b 565 190 554 157 560 175 l 681 553 b 693 625 699 611 701 614 b 608 674 681 642 640 668 b 249 151 525 493 368 261 b 432 731 306 344 367 538 b 443 775 442 758 443 769 b 339 833 443 797 364 832 b 51 553 239 744 142 646 b 21 513 25 526 21 521 z m 633 915 b 744 854 633 896 689 868 l 767 929 b 778 972 775 956 778 968 b 667 1033 778 992 722 1019 l 644 957 b 633 915 636 931 633 919 z "},"ù":{"ha":825,"x_min":0,"x_max":0,"o":"m 492 960 b 643 874 536 922 618 874 b 719 961 669 874 713 929 b 539 1092 661 999 599 1043 b 465 993 513 1078 465 1013 b 492 960 465 986 471 978 z m 21 513 b 81 417 21 490 56 433 b 264 608 136 476 199 543 b 104 93 208 436 154 265 b 97 64 100 79 97 68 b 144 18 97 51 99 50 b 208 -7 169 1 190 -7 b 432 181 268 -7 351 72 l 413 119 b 403 67 407 103 403 75 b 444 18 403 50 419 36 b 508 -7 469 1 490 -7 b 765 238 578 -7 797 172 b 690 292 758 251 732 271 b 549 140 657 231 604 175 b 565 190 554 157 560 175 l 681 553 b 693 625 699 611 701 614 b 608 674 681 642 640 668 b 249 151 525 493 368 261 b 432 731 306 344 367 538 b 443 775 442 758 443 769 b 339 833 443 797 364 832 b 51 553 239 744 142 646 b 21 513 25 526 21 521 z "},"ű":{"ha":825,"x_min":0,"x_max":0,"o":"m 501 888 b 592 974 526 888 569 940 b 611 1015 606 993 611 1007 b 544 1092 611 1029 571 1088 b 431 936 506 1036 468 983 b 501 888 440 910 474 888 z m 21 513 b 81 417 21 490 56 433 b 264 608 136 476 199 543 b 104 93 208 436 154 265 b 97 64 100 79 97 68 b 144 18 97 51 99 50 b 208 -7 169 1 190 -7 b 432 181 268 -7 351 72 l 413 119 b 403 67 407 103 403 75 b 444 18 403 50 419 36 b 508 -7 469 1 490 -7 b 765 238 578 -7 797 172 b 690 292 758 251 732 271 b 549 140 657 231 604 175 b 565 190 554 157 560 175 l 681 553 b 693 625 699 611 701 614 b 608 674 681 642 640 668 b 249 151 525 493 368 261 b 432 731 306 344 367 538 b 443 775 442 758 443 769 b 339 833 443 797 364 832 b 51 553 239 744 142 646 b 21 513 25 526 21 521 z m 589 922 b 660 874 599 896 632 874 b 750 960 685 874 728 926 b 769 1001 764 979 769 993 b 703 1078 769 1015 729 1074 b 589 922 664 1022 626 969 z "},"ū":{"ha":825,"x_min":0,"x_max":0,"o":"m 739 924 b 749 1031 751 958 767 1019 b 440 1018 719 1050 465 1038 b 421 914 425 1007 413 946 b 739 924 547 928 622 933 z m 21 513 b 81 417 21 490 56 433 b 264 608 136 476 199 543 b 104 93 208 436 154 265 b 97 64 100 79 97 68 b 144 18 97 51 99 50 b 208 -7 169 1 190 -7 b 432 181 268 -7 351 72 l 413 119 b 403 67 407 103 403 75 b 444 18 403 50 419 36 b 508 -7 469 1 490 -7 b 765 238 578 -7 797 172 b 690 292 758 251 732 271 b 549 140 657 231 604 175 b 565 190 554 157 560 175 l 681 553 b 693 625 699 611 701 614 b 608 674 681 642 640 668 b 249 151 525 493 368 261 b 432 731 306 344 367 538 b 443 775 442 758 443 769 b 339 833 443 797 364 832 b 51 553 239 744 142 646 b 21 513 25 526 21 521 z "},"ų":{"ha":825,"x_min":0,"x_max":0,"o":"m 607 38 b 765 238 692 96 788 193 b 690 292 758 251 732 271 b 549 140 657 231 604 175 b 565 190 554 157 560 175 l 681 553 b 693 625 699 611 701 614 b 608 674 681 642 640 668 b 249 151 525 493 368 261 b 432 731 306 344 367 538 b 443 775 442 758 443 769 b 339 833 443 797 364 832 b 51 553 239 744 142 646 b 21 513 25 526 21 521 b 81 417 21 490 56 433 b 264 608 136 476 199 543 b 104 93 208 436 154 265 b 97 64 100 79 97 68 b 144 18 97 51 99 50 b 208 -7 169 1 190 -7 b 432 181 268 -7 351 72 l 413 119 b 403 67 407 103 403 75 b 424 35 403 56 411 46 b 274 -175 303 -57 274 -126 b 285 -222 274 -186 276 -204 b 422 -318 308 -276 367 -318 b 551 -250 486 -318 551 -285 b 528 -158 551 -228 536 -165 b 408 -211 500 -187 447 -211 b 350 -189 385 -211 365 -204 b 607 38 383 -135 465 -60 z "},"ů":{"ha":825,"x_min":0,"x_max":0,"o":"m 557 860 b 715 1075 633 860 715 974 b 631 1167 715 1121 678 1167 b 467 944 556 1167 467 1042 b 557 860 467 896 511 860 z m 21 513 b 81 417 21 490 56 433 b 264 608 136 476 199 543 b 104 93 208 436 154 265 b 97 64 100 79 97 68 b 144 18 97 51 99 50 b 208 -7 169 1 190 -7 b 432 181 268 -7 351 72 l 413 119 b 403 67 407 103 403 75 b 444 18 403 50 419 36 b 508 -7 469 1 490 -7 b 765 238 578 -7 797 172 b 690 292 758 251 732 271 b 549 140 657 231 604 175 b 565 190 554 157 560 175 l 681 553 b 693 625 699 611 701 614 b 608 674 681 642 640 668 b 249 151 525 493 368 261 b 432 731 306 344 367 538 b 443 775 442 758 443 769 b 339 833 443 797 364 832 b 51 553 239 744 142 646 b 21 513 25 526 21 521 z m 543 944 l 543 950 b 642 1096 543 996 581 1072 b 647 1074 646 1090 647 1083 b 553 943 647 1026 599 943 b 543 944 550 943 547 943 z "},"v":{"ha":936,"x_min":0,"x_max":0,"o":"m 986 547 b 922 617 979 576 946 606 b 743 472 874 515 804 482 b 836 750 807 597 836 689 b 800 844 836 788 821 815 b 708 913 764 897 736 913 b 465 550 604 913 465 704 b 554 390 465 472 501 422 b 347 131 467 254 413 176 b 440 733 350 301 406 603 b 449 774 446 754 449 768 b 339 833 449 803 364 835 b 51 553 239 744 142 646 b 21 513 25 526 21 521 b 81 417 21 490 56 433 b 288 632 143 483 214 558 b 224 81 246 438 224 226 b 264 14 224 35 226 31 b 346 -7 300 -3 331 -7 b 676 351 386 -7 493 43 b 707 350 686 350 697 350 b 986 547 846 350 1004 476 z m 581 553 b 749 828 581 622 639 768 b 614 486 739 740 694 625 b 581 553 594 499 581 519 z "},"w":{"ha":1288,"x_min":0,"x_max":0,"o":"m 1338 547 b 1274 617 1331 576 1297 606 b 1089 471 1224 513 1151 479 b 1188 750 1154 596 1188 689 b 1151 844 1188 788 1172 815 b 1060 913 1115 897 1088 913 b 817 550 956 913 817 704 b 906 390 817 472 853 422 b 699 124 814 247 760 168 b 738 554 696 257 724 468 b 749 649 749 622 749 643 b 639 708 749 678 664 710 b 321 124 551 478 436 217 b 440 733 325 294 404 601 b 449 774 446 754 449 768 b 339 833 449 803 364 835 b 51 553 239 744 142 646 b 21 513 25 526 21 521 b 81 417 21 490 56 433 b 281 625 142 482 210 554 b 196 81 232 432 196 225 b 236 14 196 35 199 31 b 318 -7 272 -3 303 -7 b 582 271 351 -7 453 26 b 575 81 576 201 575 138 b 615 14 575 35 578 31 b 697 -7 651 -3 682 -7 b 1022 351 738 -7 839 39 b 1058 350 1035 350 1046 350 b 1338 547 1197 350 1356 476 z m 932 553 b 1100 828 932 622 990 768 b 965 486 1090 740 1046 625 b 932 553 946 499 932 519 z "},"ẃ":{"ha":1288,"x_min":0,"x_max":0,"o":"m 683 874 b 856 957 708 874 803 919 b 889 993 879 974 889 985 b 832 1092 889 1008 856 1078 b 624 961 763 1043 689 999 b 683 874 624 929 656 874 z m 21 513 b 81 417 21 490 56 433 b 281 625 142 482 210 554 b 196 81 232 432 196 225 b 236 14 196 35 199 31 b 318 -7 272 -3 303 -7 b 582 271 351 -7 453 26 b 575 81 576 201 575 138 b 615 14 575 35 578 31 b 697 -7 651 -3 682 -7 b 1022 351 738 -7 839 39 b 1058 350 1035 350 1046 350 b 1338 547 1197 350 1356 476 b 1274 617 1331 576 1297 606 b 1089 471 1224 513 1151 479 b 1188 750 1154 596 1188 689 b 1151 844 1188 788 1172 815 b 1060 913 1115 897 1088 913 b 817 550 956 913 817 704 b 906 390 817 472 853 422 b 699 124 814 247 760 168 b 738 554 696 257 724 468 b 749 649 749 622 749 643 b 639 708 749 678 664 710 b 321 124 551 478 436 217 b 440 733 325 294 404 601 b 449 774 446 754 449 768 b 339 833 449 803 364 835 b 51 553 239 744 142 646 b 21 513 25 526 21 521 z m 932 553 b 1100 828 932 622 990 768 b 965 486 1090 740 1046 625 b 932 553 946 499 932 519 z "},"ŵ":{"ha":1288,"x_min":0,"x_max":0,"o":"m 617 896 b 749 971 635 896 697 932 b 842 888 785 925 824 888 b 924 975 868 888 915 943 b 781 1106 872 1014 824 1058 b 563 983 708 1060 629 1018 b 617 896 563 951 589 896 z m 21 513 b 81 417 21 490 56 433 b 281 625 142 482 210 554 b 196 81 232 432 196 225 b 236 14 196 35 199 31 b 318 -7 272 -3 303 -7 b 582 271 351 -7 453 26 b 575 81 576 201 575 138 b 615 14 575 35 578 31 b 697 -7 651 -3 682 -7 b 1022 351 738 -7 839 39 b 1058 350 1035 350 1046 350 b 1338 547 1197 350 1356 476 b 1274 617 1331 576 1297 606 b 1089 471 1224 513 1151 479 b 1188 750 1154 596 1188 689 b 1151 844 1188 788 1172 815 b 1060 913 1115 897 1088 913 b 817 550 956 913 817 704 b 906 390 817 472 853 422 b 699 124 814 247 760 168 b 738 554 696 257 724 468 b 749 649 749 622 749 643 b 639 708 749 678 664 710 b 321 124 551 478 436 217 b 440 733 325 294 404 601 b 449 774 446 754 449 768 b 339 833 449 803 364 835 b 51 553 239 744 142 646 b 21 513 25 526 21 521 z m 932 553 b 1100 828 932 622 990 768 b 965 486 1090 740 1046 625 b 932 553 946 499 932 519 z "},"ẅ":{"ha":1288,"x_min":0,"x_max":0,"o":"m 679 890 l 701 965 b 713 1008 710 992 713 1004 b 601 1069 713 1028 657 1056 l 579 993 b 568 951 571 967 568 956 b 679 890 568 932 624 904 z m 21 513 b 81 417 21 490 56 433 b 281 625 142 482 210 554 b 196 81 232 432 196 225 b 236 14 196 35 199 31 b 318 -7 272 -3 303 -7 b 582 271 351 -7 453 26 b 575 81 576 201 575 138 b 615 14 575 35 578 31 b 697 -7 651 -3 682 -7 b 1022 351 738 -7 839 39 b 1058 350 1035 350 1046 350 b 1338 547 1197 350 1356 476 b 1274 617 1331 576 1297 606 b 1089 471 1224 513 1151 479 b 1188 750 1154 596 1188 689 b 1151 844 1188 788 1172 815 b 1060 913 1115 897 1088 913 b 817 550 956 913 817 704 b 906 390 817 472 853 422 b 699 124 814 247 760 168 b 738 554 696 257 724 468 b 749 649 749 622 749 643 b 639 708 749 678 664 710 b 321 124 551 478 436 217 b 440 733 325 294 404 601 b 449 774 446 754 449 768 b 339 833 449 803 364 835 b 51 553 239 744 142 646 b 21 513 25 526 21 521 z m 786 915 b 897 854 786 896 842 868 l 919 929 b 931 972 928 956 931 968 b 819 1033 931 992 875 1019 l 797 957 b 786 915 789 931 786 919 z m 932 553 b 1100 828 932 622 990 768 b 965 486 1090 740 1046 625 b 932 553 946 499 932 519 z "},"ẁ":{"ha":1288,"x_min":0,"x_max":0,"o":"m 644 960 b 796 874 689 922 771 874 b 872 961 822 874 865 929 b 692 1092 814 999 751 1043 b 618 993 665 1078 618 1013 b 644 960 618 986 624 978 z m 21 513 b 81 417 21 490 56 433 b 281 625 142 482 210 554 b 196 81 232 432 196 225 b 236 14 196 35 199 31 b 318 -7 272 -3 303 -7 b 582 271 351 -7 453 26 b 575 81 576 201 575 138 b 615 14 575 35 578 31 b 697 -7 651 -3 682 -7 b 1022 351 738 -7 839 39 b 1058 350 1035 350 1046 350 b 1338 547 1197 350 1356 476 b 1274 617 1331 576 1297 606 b 1089 471 1224 513 1151 479 b 1188 750 1154 596 1188 689 b 1151 844 1188 788 1172 815 b 1060 913 1115 897 1088 913 b 817 550 956 913 817 704 b 906 390 817 472 853 422 b 699 124 814 247 760 168 b 738 554 696 257 724 468 b 749 649 749 622 749 643 b 639 708 749 678 664 710 b 321 124 551 478 436 217 b 440 733 325 294 404 601 b 449 774 446 754 449 768 b 339 833 449 803 364 835 b 51 553 239 744 142 646 b 21 513 25 526 21 521 z m 932 553 b 1100 828 932 622 990 768 b 965 486 1090 740 1046 625 b 932 553 946 499 932 519 z "},"x":{"ha":651,"x_min":0,"x_max":0,"o":"m 617 842 b 375 464 551 711 468 581 b 361 654 365 525 361 588 b 365 811 361 719 365 765 b 301 838 365 829 333 838 b 244 828 281 838 258 835 b 236 660 239 775 236 717 b 269 342 236 536 250 431 b -39 96 168 233 61 147 b 32 -3 -32 46 6 -3 b 310 208 69 -3 178 72 b 461 -4 364 67 433 -4 b 547 60 485 -4 536 38 b 410 318 485 139 440 225 b 726 774 514 439 626 593 b 617 842 740 799 660 839 z "},"y":{"ha":688,"x_min":0,"x_max":0,"o":"m 690 625 b 608 674 678 642 640 668 b 249 151 525 493 368 261 b 432 731 306 344 367 538 b 443 775 442 758 443 769 b 339 833 443 797 364 832 b 51 553 239 744 142 646 b 21 513 25 526 21 521 b 81 417 21 490 56 433 b 264 608 136 476 199 543 b 104 93 208 436 154 265 b 97 64 100 79 97 68 b 144 18 97 51 99 50 b 208 -7 169 1 190 -7 b 467 231 278 -7 376 97 b 161 -211 369 -115 274 -211 b 19 -160 101 -211 42 -183 b -25 -242 0 -176 -25 -215 b 174 -336 -25 -287 50 -336 b 685 553 369 -336 504 -210 b 690 625 699 611 699 614 z "},"ý":{"ha":688,"x_min":0,"x_max":0,"o":"m 679 1092 b 471 961 610 1043 536 999 b 531 874 471 929 503 874 b 703 957 556 874 650 919 b 736 993 726 974 736 985 b 679 1092 736 1008 703 1078 z m -25 -242 b 174 -336 -25 -287 50 -336 b 685 553 369 -336 504 -210 b 690 625 699 611 699 614 b 608 674 678 642 640 668 b 249 151 525 493 368 261 b 432 731 306 344 367 538 b 443 775 442 758 443 769 b 339 833 443 797 364 832 b 51 553 239 744 142 646 b 21 513 25 526 21 521 b 81 417 21 490 56 433 b 264 608 136 476 199 543 b 104 93 208 436 154 265 b 97 64 100 79 97 68 b 144 18 97 51 99 50 b 208 -7 169 1 190 -7 b 467 231 278 -7 376 97 b 161 -211 369 -115 274 -211 b 19 -160 101 -211 42 -183 b -25 -242 0 -176 -25 -215 z "},"ŷ":{"ha":688,"x_min":0,"x_max":0,"o":"m 628 1106 b 410 983 556 1060 476 1018 b 464 896 410 951 436 896 b 596 971 482 896 544 932 b 689 888 632 925 671 888 b 771 975 715 888 763 943 b 628 1106 719 1014 671 1058 z m -25 -242 b 174 -336 -25 -287 50 -336 b 685 553 369 -336 504 -210 b 690 625 699 611 699 614 b 608 674 678 642 640 668 b 249 151 525 493 368 261 b 432 731 306 344 367 538 b 443 775 442 758 443 769 b 339 833 443 797 364 832 b 51 553 239 744 142 646 b 21 513 25 526 21 521 b 81 417 21 490 56 433 b 264 608 136 476 199 543 b 104 93 208 436 154 265 b 97 64 100 79 97 68 b 144 18 97 51 99 50 b 208 -7 169 1 190 -7 b 467 231 278 -7 376 97 b 161 -211 369 -115 274 -211 b 19 -160 101 -211 42 -183 b -25 -242 0 -176 -25 -215 z "},"ÿ":{"ha":688,"x_min":0,"x_max":0,"o":"m 526 890 l 549 965 b 560 1008 557 992 560 1004 b 449 1069 560 1028 504 1056 l 426 993 b 415 951 418 967 415 956 b 526 890 415 932 471 904 z m -25 -242 b 174 -336 -25 -287 50 -336 b 685 553 369 -336 504 -210 b 690 625 699 611 699 614 b 608 674 678 642 640 668 b 249 151 525 493 368 261 b 432 731 306 344 367 538 b 443 775 442 758 443 769 b 339 833 443 797 364 832 b 51 553 239 744 142 646 b 21 513 25 526 21 521 b 81 417 21 490 56 433 b 264 608 136 476 199 543 b 104 93 208 436 154 265 b 97 64 100 79 97 68 b 144 18 97 51 99 50 b 208 -7 169 1 190 -7 b 467 231 278 -7 376 97 b 161 -211 369 -115 274 -211 b 19 -160 101 -211 42 -183 b -25 -242 0 -176 -25 -215 z m 633 915 b 744 854 633 896 689 868 l 767 929 b 778 972 775 956 778 968 b 667 1033 778 992 722 1019 l 644 957 b 633 915 636 931 633 919 z "},"ỳ":{"ha":688,"x_min":0,"x_max":0,"o":"m 492 960 b 643 874 536 922 618 874 b 719 961 669 874 713 929 b 539 1092 661 999 599 1043 b 465 993 513 1078 465 1013 b 492 960 465 986 471 978 z m -25 -242 b 174 -336 -25 -287 50 -336 b 685 553 369 -336 504 -210 b 690 625 699 611 699 614 b 608 674 678 642 640 668 b 249 151 525 493 368 261 b 432 731 306 344 367 538 b 443 775 442 758 443 769 b 339 833 443 797 364 832 b 51 553 239 744 142 646 b 21 513 25 526 21 521 b 81 417 21 490 56 433 b 264 608 136 476 199 543 b 104 93 208 436 154 265 b 97 64 100 79 97 68 b 144 18 97 51 99 50 b 208 -7 169 1 190 -7 b 467 231 278 -7 376 97 b 161 -211 369 -115 274 -211 b 19 -160 101 -211 42 -183 b -25 -242 0 -176 -25 -215 z "},"z":{"ha":624,"x_min":0,"x_max":0,"o":"m 626 781 b 528 850 626 803 588 824 b 328 840 481 843 439 840 b 153 847 279 840 218 842 b 139 746 146 826 139 769 b 149 719 139 732 142 724 b 282 710 158 713 224 710 b 422 713 336 710 378 710 b 289 524 378 646 333 583 b 90 501 194 519 104 511 b 68 435 79 493 68 460 b 71 418 68 428 69 422 b 217 429 125 422 172 426 b -50 104 111 292 15 179 b -74 68 -65 86 -74 75 b 29 -7 -74 51 -25 15 b 482 -15 138 25 307 14 b 514 85 493 6 511 60 b 513 107 517 94 517 103 b 160 142 492 126 306 149 b 393 433 231 225 310 321 b 514 428 431 432 469 431 b 532 492 522 443 532 472 b 524 514 532 503 529 510 b 460 524 517 518 493 521 b 607 739 508 590 557 661 b 626 781 622 763 626 774 z "},"ź":{"ha":624,"x_min":0,"x_max":0,"o":"m 374 874 b 546 957 399 874 493 919 b 579 993 569 974 579 985 b 522 1092 579 1008 546 1078 b 314 961 453 1043 379 999 b 374 874 314 929 346 874 z m -74 68 b 29 -7 -74 51 -25 15 b 482 -15 138 25 307 14 b 514 85 493 6 511 60 b 513 107 517 94 517 103 b 160 142 492 126 306 149 b 393 433 231 225 310 321 b 514 428 431 432 469 431 b 532 492 522 443 532 472 b 524 514 532 503 529 510 b 460 524 517 518 493 521 b 607 739 508 590 557 661 b 626 781 622 763 626 774 b 528 850 626 803 588 824 b 328 840 481 843 439 840 b 153 847 279 840 218 842 b 139 746 146 826 139 769 b 149 719 139 732 142 724 b 282 710 158 713 224 710 b 422 713 336 710 378 710 b 289 524 378 646 333 583 b 90 501 194 519 104 511 b 68 435 79 493 68 460 b 71 418 68 428 69 422 b 217 429 125 422 172 426 b -50 104 111 292 15 179 b -74 68 -65 86 -74 75 z "},"ž":{"ha":624,"x_min":0,"x_max":0,"o":"m 438 875 b 656 997 510 921 589 963 b 601 1085 656 1029 629 1085 b 469 1010 583 1085 521 1049 b 376 1093 433 1056 394 1093 b 294 1006 350 1093 303 1038 b 438 875 346 967 394 922 z m -74 68 b 29 -7 -74 51 -25 15 b 482 -15 138 25 307 14 b 514 85 493 6 511 60 b 513 107 517 94 517 103 b 160 142 492 126 306 149 b 393 433 231 225 310 321 b 514 428 431 432 469 431 b 532 492 522 443 532 472 b 524 514 532 503 529 510 b 460 524 517 518 493 521 b 607 739 508 590 557 661 b 626 781 622 763 626 774 b 528 850 626 803 588 824 b 328 840 481 843 439 840 b 153 847 279 840 218 842 b 139 746 146 826 139 769 b 149 719 139 732 142 724 b 282 710 158 713 224 710 b 422 713 336 710 378 710 b 289 524 378 646 333 583 b 90 501 194 519 104 511 b 68 435 79 493 68 460 b 71 418 68 428 69 422 b 217 429 125 422 172 426 b -50 104 111 292 15 179 b -74 68 -65 86 -74 75 z "},"ż":{"ha":624,"x_min":0,"x_max":0,"o":"m 486 882 l 510 961 b 521 1006 518 989 521 1001 b 404 1069 521 1026 463 1056 l 381 990 b 369 946 372 963 369 950 b 486 882 369 925 428 896 z m -74 68 b 29 -7 -74 51 -25 15 b 482 -15 138 25 307 14 b 514 85 493 6 511 60 b 513 107 517 94 517 103 b 160 142 492 126 306 149 b 393 433 231 225 310 321 b 514 428 431 432 469 431 b 532 492 522 443 532 472 b 524 514 532 503 529 510 b 460 524 517 518 493 521 b 607 739 508 590 557 661 b 626 781 622 763 626 774 b 528 850 626 803 588 824 b 328 840 481 843 439 840 b 153 847 279 840 218 842 b 139 746 146 826 139 769 b 149 719 139 732 142 724 b 282 710 158 713 224 710 b 422 713 336 710 378 710 b 289 524 378 646 333 583 b 90 501 194 519 104 511 b 68 435 79 493 68 460 b 71 418 68 428 69 422 b 217 429 125 422 172 426 b -50 104 111 292 15 179 b -74 68 -65 86 -74 75 z "},"μ":{"ha":825,"x_min":0,"x_max":0,"o":"m 765 238 b 690 292 758 251 732 271 b 549 140 657 231 604 175 b 565 190 554 157 560 175 l 681 553 b 693 625 699 611 701 614 b 608 674 681 642 640 668 b 249 151 525 493 368 261 b 432 731 306 344 367 538 b 443 775 442 758 443 769 b 339 833 443 797 364 832 b 51 553 239 744 142 646 b 21 513 25 526 21 521 b 81 417 21 490 56 433 b 264 608 136 476 199 543 b 104 93 208 436 154 265 b 103 86 103 90 103 89 l 44 -111 b 38 -149 39 -129 38 -143 b 143 -214 38 -181 118 -212 l 203 -7 l 208 -7 b 432 181 268 -7 351 72 l 413 119 b 403 67 407 103 403 75 b 444 18 403 50 419 36 b 508 -7 469 1 490 -7 b 765 238 578 -7 797 172 z "},"π":{"ha":885,"x_min":0,"x_max":0,"o":"m 718 731 l 826 726 b 843 792 838 753 843 776 b 835 822 843 808 842 818 b 574 835 822 831 754 835 b 192 807 378 835 213 821 b 171 753 179 799 171 778 b 174 714 171 731 172 719 b 319 728 231 721 275 725 l 147 93 b 139 56 142 75 139 61 b 253 -10 139 24 228 -8 l 453 717 l 457 732 l 585 732 l 410 97 b 401 57 404 75 401 64 b 447 8 401 44 422 25 b 511 -17 472 -8 493 -17 b 768 228 581 -17 800 163 b 693 282 761 242 735 261 b 557 133 661 224 610 169 l 715 721 b 718 731 717 724 717 728 z "},"⓵":{"ha":1397,"x_min":0,"x_max":0,"o":"m 618 -282 b 210 -114 450 -282 308 -219 b 29 340 96 -8 29 150 b 775 1100 29 757 368 1100 b 1185 931 943 1100 1086 1038 b 1365 478 1299 825 1365 667 b 618 -282 1365 61 1026 -282 z m 71 340 b 590 -212 71 28 265 -212 b 1296 506 961 -212 1296 99 b 775 1058 1296 817 1100 1058 b 71 340 404 1058 71 747 z m 168 333 b 771 967 168 674 453 967 b 1199 513 1025 967 1199 778 b 596 -121 1199 172 914 -121 b 168 333 342 -121 168 68 z m 425 503 b 486 414 425 479 451 414 b 708 600 522 414 624 499 b 561 57 663 439 615 263 b 557 31 557 39 557 32 b 663 -12 557 18 604 -7 b 889 803 738 282 811 543 b 894 829 894 821 894 828 b 788 872 894 843 847 867 b 425 503 708 732 556 556 z "},"⓶":{"ha":1397,"x_min":0,"x_max":0,"o":"m 618 -282 b 210 -114 450 -282 308 -219 b 29 340 96 -8 29 150 b 775 1100 29 757 368 1100 b 1185 931 943 1100 1086 1038 b 1365 478 1299 825 1365 667 b 618 -282 1365 61 1026 -282 z m 71 340 b 590 -212 71 28 265 -212 b 1296 506 961 -212 1296 99 b 775 1058 1296 817 1100 1058 b 71 340 404 1058 71 747 z m 168 333 b 771 967 168 674 453 967 b 1199 513 1025 967 1199 778 b 596 -121 1199 172 914 -121 b 168 333 342 -121 168 68 z m 354 75 b 424 -4 354 56 392 10 b 574 4 476 1 515 4 b 838 -1 685 4 746 3 b 853 82 846 21 853 56 b 846 106 853 93 851 101 b 654 115 835 113 779 115 b 546 114 613 115 575 114 b 936 674 768 294 936 493 b 888 819 936 718 926 763 b 800 882 858 864 833 882 b 490 564 667 882 490 610 b 576 489 490 539 536 500 b 832 786 647 636 726 726 b 833 749 832 776 833 765 b 431 157 833 535 660 351 b 354 75 364 101 354 85 z "},"⓷":{"ha":1397,"x_min":0,"x_max":0,"o":"m 618 -282 b 210 -114 450 -282 308 -219 b 29 340 96 -8 29 150 b 775 1100 29 757 368 1100 b 1185 931 943 1100 1086 1038 b 1365 478 1299 825 1365 667 b 618 -282 1365 61 1026 -282 z m 71 340 b 590 -212 71 28 265 -212 b 1296 506 961 -212 1296 99 b 775 1058 1296 817 1100 1058 b 71 340 404 1058 71 747 z m 168 333 b 771 967 168 674 453 967 b 1199 513 1025 967 1199 778 b 596 -121 1199 172 914 -121 b 168 333 342 -121 168 68 z m 378 93 b 588 -10 378 42 476 -10 b 888 243 754 -10 888 99 b 854 364 888 292 875 329 b 814 410 842 383 829 399 b 939 674 893 476 939 586 b 890 818 939 717 928 761 b 803 881 860 865 836 881 b 500 583 671 881 500 631 b 585 511 500 560 546 521 b 836 786 654 647 732 732 b 839 744 838 776 839 763 b 568 396 839 603 768 443 b 528 351 538 388 528 382 b 546 274 528 328 532 282 b 754 313 604 294 678 313 b 810 308 771 313 790 313 b 594 104 803 208 713 104 b 419 176 513 104 449 150 b 378 93 399 160 378 119 z "},"⓸":{"ha":1397,"x_min":0,"x_max":0,"o":"m 618 -282 b 210 -114 450 -282 308 -219 b 29 340 96 -8 29 150 b 775 1100 29 757 368 1100 b 1185 931 943 1100 1086 1038 b 1365 478 1299 825 1365 667 b 618 -282 1365 61 1026 -282 z m 71 340 b 590 -212 71 28 265 -212 b 1296 506 961 -212 1296 99 b 775 1058 1296 817 1100 1058 b 71 340 404 1058 71 747 z m 168 333 b 771 967 168 674 453 967 b 1199 513 1025 967 1199 778 b 596 -121 1199 172 914 -121 b 168 333 342 -121 168 68 z m 311 236 b 315 201 311 222 313 210 b 600 217 386 211 469 217 l 656 217 b 613 57 642 165 626 113 b 608 31 608 39 608 32 b 708 -12 608 18 650 -7 b 769 214 728 65 749 140 b 885 211 806 214 844 213 b 896 276 889 231 896 257 b 889 301 896 289 894 299 b 796 311 882 307 846 310 b 938 814 844 485 890 649 b 943 842 943 832 943 839 b 844 883 943 854 901 878 b 807 758 831 843 819 801 b 742 782 799 771 771 779 b 335 293 581 472 429 332 b 311 236 315 285 311 276 z m 524 306 b 769 631 581 353 704 493 b 681 310 740 531 711 424 z "},"⓹":{"ha":1397,"x_min":0,"x_max":0,"o":"m 618 -282 b 210 -114 450 -282 308 -219 b 29 340 96 -8 29 150 b 775 1100 29 757 368 1100 b 1185 931 943 1100 1086 1038 b 1365 478 1299 825 1365 667 b 618 -282 1365 61 1026 -282 z m 71 340 b 590 -212 71 28 265 -212 b 1296 506 961 -212 1296 99 b 775 1058 1296 817 1100 1058 b 71 340 404 1058 71 747 z m 168 333 b 771 967 168 674 453 967 b 1199 513 1025 967 1199 778 b 596 -121 1199 172 914 -121 b 168 333 342 -121 168 68 z m 381 93 b 581 -8 381 42 474 -8 b 878 271 756 -8 878 115 b 843 393 878 321 865 360 b 694 475 813 443 769 475 b 611 464 671 475 646 471 b 725 764 653 561 689 661 b 801 765 750 765 779 765 b 954 761 840 765 901 764 b 965 831 960 776 965 801 b 957 865 965 849 963 861 b 832 875 943 875 881 875 b 651 864 719 875 667 869 b 610 782 640 861 633 850 b 499 496 582 694 538 578 b 467 404 476 446 467 417 b 538 333 467 390 482 371 b 690 360 583 347 639 360 b 790 326 731 360 769 353 b 594 110 781 208 711 110 b 422 179 515 110 451 154 b 381 93 403 164 381 118 z "},"⓺":{"ha":1397,"x_min":0,"x_max":0,"o":"m 618 -282 b 210 -114 450 -282 308 -219 b 29 340 96 -8 29 150 b 775 1100 29 757 368 1100 b 1185 931 943 1100 1086 1038 b 1365 478 1299 825 1365 667 b 618 -282 1365 61 1026 -282 z m 71 340 b 590 -212 71 28 265 -212 b 1296 506 961 -212 1296 99 b 775 1058 1296 817 1100 1058 b 71 340 404 1058 71 747 z m 168 333 b 771 967 168 674 453 967 b 1199 513 1025 967 1199 778 b 596 -121 1199 172 914 -121 b 168 333 342 -121 168 68 z m 407 239 b 447 75 407 165 426 111 b 599 -12 482 18 533 -12 b 883 301 742 -12 883 140 b 846 425 883 350 871 388 b 701 515 807 488 754 515 b 575 468 658 515 615 499 b 825 796 664 693 736 758 b 833 719 832 772 833 746 b 811 583 833 668 825 617 b 904 553 825 572 889 553 b 951 688 938 553 951 636 b 890 828 951 742 935 786 b 785 878 858 860 819 878 b 407 239 617 878 407 482 z m 510 108 b 704 407 514 274 589 407 b 800 378 735 407 767 397 l 800 364 b 572 94 800 239 690 94 b 510 108 553 94 529 100 z "},"⓻":{"ha":1397,"x_min":0,"x_max":0,"o":"m 618 -282 b 210 -114 450 -282 308 -219 b 29 340 96 -8 29 150 b 775 1100 29 757 368 1100 b 1185 931 943 1100 1086 1038 b 1365 478 1299 825 1365 667 b 618 -282 1365 61 1026 -282 z m 71 340 b 590 -212 71 28 265 -212 b 1296 506 961 -212 1296 99 b 775 1058 1296 817 1100 1058 b 71 340 404 1058 71 747 z m 168 333 b 771 967 168 674 453 967 b 1199 513 1025 967 1199 778 b 596 -121 1199 172 914 -121 b 168 333 342 -121 168 68 z m 478 46 b 575 -8 478 26 532 -1 b 776 390 632 115 699 246 b 897 385 813 389 851 388 b 913 464 906 407 913 440 b 906 489 913 475 911 486 b 835 497 899 494 871 496 b 982 760 881 581 929 668 b 1000 810 993 778 1000 797 b 928 875 1000 833 974 849 b 729 864 879 868 838 864 b 517 872 671 864 594 867 b 504 790 510 850 504 815 b 513 765 504 778 506 769 b 692 754 522 758 622 754 b 853 758 728 754 790 756 b 707 497 807 679 758 592 b 504 479 599 494 515 488 b 485 401 494 472 485 431 b 488 376 485 390 486 381 b 649 388 551 382 601 386 b 492 85 599 294 547 192 b 478 46 485 69 478 53 z "},"⓼":{"ha":1397,"x_min":0,"x_max":0,"o":"m 618 -282 b 210 -114 450 -282 308 -219 b 29 340 96 -8 29 150 b 775 1100 29 757 368 1100 b 1185 931 943 1100 1086 1038 b 1365 478 1299 825 1365 667 b 618 -282 1365 61 1026 -282 z m 71 340 b 590 -212 71 28 265 -212 b 1296 506 961 -212 1296 99 b 775 1058 1296 817 1100 1058 b 71 340 404 1058 71 747 z m 168 333 b 771 967 168 674 453 967 b 1199 513 1025 967 1199 778 b 596 -121 1199 172 914 -121 b 168 333 342 -121 168 68 z m 388 160 b 589 -7 388 46 476 -7 b 882 260 767 -7 882 138 b 796 392 882 335 847 372 b 960 697 890 482 960 604 b 932 794 960 735 949 763 b 833 876 892 868 861 876 b 482 465 689 876 482 626 b 517 368 482 418 494 393 b 388 160 439 322 388 246 z m 469 176 b 675 307 494 243 585 307 b 807 226 733 307 775 285 b 592 117 760 165 672 117 b 469 176 540 117 499 136 z m 594 422 b 857 774 592 553 689 694 b 863 739 861 765 863 753 b 594 422 863 597 729 415 z "},"⓽":{"ha":1397,"x_min":0,"x_max":0,"o":"m 618 -282 b 210 -114 450 -282 308 -219 b 29 340 96 -8 29 150 b 775 1100 29 757 368 1100 b 1185 931 943 1100 1086 1038 b 1365 478 1299 825 1365 667 b 618 -282 1365 61 1026 -282 z m 71 340 b 590 -212 71 28 265 -212 b 1296 506 961 -212 1296 99 b 775 1058 1296 817 1100 1058 b 71 340 404 1058 71 747 z m 168 333 b 771 967 168 674 453 967 b 1199 513 1025 967 1199 778 b 596 -121 1199 172 914 -121 b 168 333 342 -121 168 68 z m 389 82 b 565 -12 389 35 474 -12 b 925 468 772 -12 872 218 b 950 667 940 546 950 610 b 911 821 950 728 938 778 b 833 881 885 865 854 881 b 486 408 715 881 486 601 b 549 293 486 354 506 321 b 632 263 576 275 607 263 b 786 354 674 263 736 296 b 572 101 728 179 660 101 b 432 164 513 101 454 138 b 389 82 411 147 389 107 z m 583 347 b 854 788 583 490 710 707 b 858 763 858 778 858 771 b 604 346 858 636 735 346 b 583 347 597 346 590 346 z "},"⓿":{"ha":1278,"x_min":0,"x_max":0,"o":"m 547 -212 b 28 340 222 -212 28 28 b 732 1058 28 747 361 1058 b 1253 506 1057 1058 1253 818 b 547 -212 1253 99 918 -212 z m 368 204 b 460 28 368 125 392 74 b 553 -6 490 7 521 -6 b 913 631 724 -6 913 360 b 864 797 913 678 907 736 b 742 878 832 842 785 878 b 368 204 603 878 368 460 z m 489 126 b 788 790 489 386 618 674 b 797 694 794 768 797 736 b 490 97 797 404 651 124 b 489 126 489 108 489 117 z "},"❶":{"ha":1278,"x_min":0,"x_max":0,"o":"m 547 -212 b 28 340 222 -212 28 28 b 732 1058 28 747 361 1058 b 1253 506 1057 1058 1253 818 b 547 -212 1253 99 918 -212 z m 397 503 b 458 414 397 479 424 414 b 681 600 494 414 596 499 b 533 57 635 439 588 263 b 529 31 529 39 529 32 b 635 -12 529 18 576 -7 b 861 803 710 282 783 543 b 867 829 867 821 867 828 b 760 872 867 843 819 867 b 397 503 681 732 528 556 z "},"❷":{"ha":1278,"x_min":0,"x_max":0,"o":"m 547 -212 b 28 340 222 -212 28 28 b 732 1058 28 747 361 1058 b 1253 506 1057 1058 1253 818 b 547 -212 1253 99 918 -212 z m 326 75 b 396 -4 326 56 364 10 b 546 4 449 1 488 4 b 810 -1 657 4 718 3 b 825 82 818 21 825 56 b 818 106 825 93 824 101 b 626 115 807 113 751 115 b 518 114 585 115 547 114 b 908 674 740 294 908 493 b 860 819 908 718 899 763 b 772 882 831 864 806 882 b 463 564 639 882 463 610 b 549 489 463 539 508 500 b 804 786 619 636 699 726 b 806 749 804 776 806 765 b 403 157 806 535 632 351 b 326 75 336 101 326 85 z "},"❸":{"ha":1278,"x_min":0,"x_max":0,"o":"m 547 -212 b 28 340 222 -212 28 28 b 732 1058 28 747 361 1058 b 1253 506 1057 1058 1253 818 b 547 -212 1253 99 918 -212 z m 350 93 b 560 -10 350 42 449 -10 b 860 243 726 -10 860 99 b 826 364 860 292 847 329 b 786 410 814 383 801 399 b 911 674 865 476 911 586 b 863 818 911 717 900 761 b 775 881 832 865 808 881 b 472 583 643 881 472 631 b 557 511 472 560 518 521 b 808 786 626 647 704 732 b 811 744 810 776 811 763 b 540 396 811 603 740 443 b 500 351 510 388 500 382 b 518 274 500 328 504 282 b 726 313 576 294 650 313 b 782 308 743 313 763 313 b 567 104 775 208 685 104 b 392 176 485 104 421 150 b 350 93 371 160 350 119 z "},"❹":{"ha":1278,"x_min":0,"x_max":0,"o":"m 547 -212 b 28 340 222 -212 28 28 b 732 1058 28 747 361 1058 b 1253 506 1057 1058 1253 818 b 547 -212 1253 99 918 -212 z m 283 236 b 288 201 283 222 285 210 b 572 217 358 211 442 217 l 628 217 b 585 57 614 165 599 113 b 581 31 581 39 581 32 b 681 -12 581 18 622 -7 b 742 214 700 65 721 140 b 857 211 778 214 817 213 b 868 276 861 231 868 257 b 861 301 868 289 867 299 b 768 311 854 307 818 310 b 910 814 817 485 863 649 b 915 842 915 832 915 839 b 817 883 915 854 874 878 b 779 758 803 843 792 801 b 714 782 771 771 743 779 b 307 293 553 472 401 332 b 283 236 288 285 283 276 z m 496 306 b 742 631 553 353 676 493 b 653 310 713 531 683 424 z "},"❺":{"ha":1278,"x_min":0,"x_max":0,"o":"m 547 -212 b 28 340 222 -212 28 28 b 732 1058 28 747 361 1058 b 1253 506 1057 1058 1253 818 b 547 -212 1253 99 918 -212 z m 353 93 b 553 -8 353 42 446 -8 b 850 271 728 -8 850 115 b 815 393 850 321 838 360 b 667 475 785 443 742 475 b 583 464 643 475 618 471 b 697 764 625 561 661 661 b 774 765 722 765 751 765 b 926 761 813 765 874 764 b 938 831 932 776 938 801 b 929 865 938 849 935 861 b 804 875 915 875 853 875 b 624 864 692 875 639 869 b 582 782 613 861 606 850 b 471 496 554 694 510 578 b 439 404 449 446 439 417 b 510 333 439 390 454 371 b 663 360 556 347 611 360 b 763 326 703 360 742 353 b 567 110 753 208 683 110 b 394 179 488 110 424 154 b 353 93 375 164 353 118 z "},"❻":{"ha":1278,"x_min":0,"x_max":0,"o":"m 547 -212 b 28 340 222 -212 28 28 b 732 1058 28 747 361 1058 b 1253 506 1057 1058 1253 818 b 547 -212 1253 99 918 -212 z m 379 239 b 419 75 379 165 399 111 b 571 -12 454 18 506 -12 b 856 301 714 -12 856 140 b 818 425 856 350 843 388 b 674 515 779 488 726 515 b 547 468 631 515 588 499 b 797 796 636 693 708 758 b 806 719 804 772 806 746 b 783 583 806 668 797 617 b 876 553 797 572 861 553 b 924 688 910 553 924 636 b 863 828 924 742 907 786 b 757 878 831 860 792 878 b 379 239 589 878 379 482 z m 482 108 b 676 407 486 274 561 407 b 772 378 707 407 739 397 l 772 364 b 544 94 772 239 663 94 b 482 108 525 94 501 100 z "},"❼":{"ha":1278,"x_min":0,"x_max":0,"o":"m 547 -212 b 28 340 222 -212 28 28 b 732 1058 28 747 361 1058 b 1253 506 1057 1058 1253 818 b 547 -212 1253 99 918 -212 z m 450 46 b 547 -8 450 26 504 -1 b 749 390 604 115 671 246 b 869 385 785 389 824 388 b 885 464 878 407 885 440 b 878 489 885 475 883 486 b 807 497 871 494 843 496 b 954 760 853 581 901 668 b 972 810 965 778 972 797 b 900 875 972 833 946 849 b 701 864 851 868 810 864 b 489 872 643 864 567 867 b 476 790 482 850 476 815 b 485 765 476 778 478 769 b 664 754 494 758 594 754 b 825 758 700 754 763 756 b 679 497 779 679 731 592 b 476 479 571 494 488 488 b 457 401 467 472 457 431 b 460 376 457 390 458 381 b 621 388 524 382 574 386 b 464 85 571 294 519 192 b 450 46 457 69 450 53 z "},"❽":{"ha":1278,"x_min":0,"x_max":0,"o":"m 547 -212 b 28 340 222 -212 28 28 b 732 1058 28 747 361 1058 b 1253 506 1057 1058 1253 818 b 547 -212 1253 99 918 -212 z m 360 160 b 561 -7 360 46 449 -7 b 854 260 739 -7 854 138 b 768 392 854 335 819 372 b 932 697 863 482 932 604 b 904 794 932 735 921 763 b 806 876 864 868 833 876 b 454 465 661 876 454 626 b 489 368 454 418 467 393 b 360 160 411 322 360 246 z m 442 176 b 647 307 467 243 557 307 b 779 226 706 307 747 285 b 564 117 732 165 644 117 b 442 176 513 117 471 136 z m 567 422 b 829 774 564 553 661 694 b 835 739 833 765 835 753 b 567 422 835 597 701 415 z "},"❾":{"ha":1278,"x_min":0,"x_max":0,"o":"m 547 -212 b 28 340 222 -212 28 28 b 732 1058 28 747 361 1058 b 1253 506 1057 1058 1253 818 b 547 -212 1253 99 918 -212 z m 361 82 b 538 -12 361 35 446 -12 b 897 468 744 -12 844 218 b 922 667 913 546 922 610 b 883 821 922 728 910 778 b 806 881 857 865 826 881 b 458 408 688 881 458 601 b 521 293 458 354 478 321 b 604 263 549 275 579 263 b 758 354 646 263 708 296 b 544 101 700 179 632 101 b 404 164 485 101 426 138 b 361 82 383 147 361 107 z m 556 347 b 826 788 556 490 682 707 b 831 763 831 778 831 771 b 576 346 831 636 707 346 b 556 347 569 346 563 346 z "},"⓪":{"ha":1278,"x_min":0,"x_max":0,"o":"m 547 -212 b 1253 506 918 -212 1253 99 b 732 1058 1253 817 1057 1058 b 28 340 361 1058 28 747 b 547 -212 28 28 222 -212 z m 125 333 b 728 967 125 674 410 967 b 1156 513 982 967 1156 778 b 553 -121 1156 172 871 -121 b 125 333 299 -121 125 68 z m 365 204 b 457 28 365 125 389 74 b 550 -6 488 7 518 -6 b 910 631 721 -6 910 360 b 861 797 910 678 904 736 b 739 878 829 842 782 878 b 365 204 600 878 365 460 z m 486 126 b 785 790 486 386 615 674 b 794 694 792 768 794 736 b 488 97 794 404 649 124 b 486 126 486 108 486 117 z "},"①":{"ha":1278,"x_min":0,"x_max":0,"o":"m 547 -212 b 1253 506 918 -212 1253 99 b 732 1058 1253 817 1057 1058 b 28 340 361 1058 28 747 b 547 -212 28 28 222 -212 z m 125 333 b 728 967 125 674 410 967 b 1156 513 982 967 1156 778 b 553 -121 1156 172 871 -121 b 125 333 299 -121 125 68 z m 382 503 b 443 414 382 479 408 414 b 665 600 479 414 581 499 b 518 57 619 439 572 263 b 514 31 514 39 514 32 b 619 -12 514 18 561 -7 b 846 803 694 282 768 543 b 851 829 851 821 851 828 b 744 872 851 843 804 867 b 382 503 665 732 513 556 z "},"②":{"ha":1278,"x_min":0,"x_max":0,"o":"m 547 -212 b 1253 506 918 -212 1253 99 b 732 1058 1253 817 1057 1058 b 28 340 361 1058 28 747 b 547 -212 28 28 222 -212 z m 125 333 b 728 967 125 674 410 967 b 1156 513 982 967 1156 778 b 553 -121 1156 172 871 -121 b 125 333 299 -121 125 68 z m 311 75 b 381 -4 311 56 349 10 b 531 4 433 1 472 4 b 794 -1 642 4 703 3 b 810 82 803 21 810 56 b 803 106 810 93 808 101 b 611 115 792 113 736 115 b 503 114 569 115 532 114 b 893 674 725 294 893 493 b 844 819 893 718 883 763 b 757 882 815 864 790 882 b 447 564 624 882 447 610 b 533 489 447 539 493 500 b 789 786 604 636 683 726 b 790 749 789 776 790 765 b 388 157 790 535 617 351 b 311 75 321 101 311 85 z "},"③":{"ha":1278,"x_min":0,"x_max":0,"o":"m 547 -212 b 1253 506 918 -212 1253 99 b 732 1058 1253 817 1057 1058 b 28 340 361 1058 28 747 b 547 -212 28 28 222 -212 z m 125 333 b 728 967 125 674 410 967 b 1156 513 982 967 1156 778 b 553 -121 1156 172 871 -121 b 125 333 299 -121 125 68 z m 335 93 b 544 -10 335 42 433 -10 b 844 243 711 -10 844 99 b 811 364 844 292 832 329 b 771 410 799 383 786 399 b 896 674 850 476 896 586 b 847 818 896 717 885 761 b 760 881 817 865 793 881 b 457 583 628 881 457 631 b 542 511 457 560 503 521 b 793 786 611 647 689 732 b 796 744 794 776 796 763 b 525 396 796 603 725 443 b 485 351 494 388 485 382 b 503 274 485 328 489 282 b 711 313 561 294 635 313 b 767 308 728 313 747 313 b 551 104 760 208 669 104 b 376 176 469 104 406 150 b 335 93 356 160 335 119 z "},"④":{"ha":1278,"x_min":0,"x_max":0,"o":"m 547 -212 b 1253 506 918 -212 1253 99 b 732 1058 1253 817 1057 1058 b 28 340 361 1058 28 747 b 547 -212 28 28 222 -212 z m 125 333 b 728 967 125 674 410 967 b 1156 513 982 967 1156 778 b 553 -121 1156 172 871 -121 b 125 333 299 -121 125 68 z m 268 236 b 272 201 268 222 269 210 b 557 217 343 211 426 217 l 613 217 b 569 57 599 165 583 113 b 565 31 565 39 565 32 b 665 -12 565 18 607 -7 b 726 214 685 65 706 140 b 842 211 763 214 801 213 b 853 276 846 231 853 257 b 846 301 853 289 851 299 b 753 311 839 307 803 310 b 894 814 801 485 847 649 b 900 842 900 832 900 839 b 801 883 900 854 858 878 b 764 758 788 843 776 801 b 699 782 756 771 728 779 b 292 293 538 472 386 332 b 268 236 272 285 268 276 z m 481 306 b 726 631 538 353 661 493 b 638 310 697 531 668 424 z "},"⑤":{"ha":1278,"x_min":0,"x_max":0,"o":"m 547 -212 b 1253 506 918 -212 1253 99 b 732 1058 1253 817 1057 1058 b 28 340 361 1058 28 747 b 547 -212 28 28 222 -212 z m 125 333 b 728 967 125 674 410 967 b 1156 513 982 967 1156 778 b 553 -121 1156 172 871 -121 b 125 333 299 -121 125 68 z m 338 93 b 538 -8 338 42 431 -8 b 835 271 713 -8 835 115 b 800 393 835 321 822 360 b 651 475 769 443 726 475 b 568 464 628 475 603 471 b 682 764 610 561 646 661 b 758 765 707 765 736 765 b 911 761 797 765 858 764 b 922 831 917 776 922 801 b 914 865 922 849 919 861 b 789 875 900 875 838 875 b 608 864 676 875 624 869 b 567 782 597 861 590 850 b 456 496 539 694 494 578 b 424 404 433 446 424 417 b 494 333 424 390 439 371 b 647 360 540 347 596 360 b 747 326 688 360 726 353 b 551 110 738 208 668 110 b 379 179 472 110 408 154 b 338 93 360 164 338 118 z "},"⑥":{"ha":1278,"x_min":0,"x_max":0,"o":"m 547 -212 b 1253 506 918 -212 1253 99 b 732 1058 1253 817 1057 1058 b 28 340 361 1058 28 747 b 547 -212 28 28 222 -212 z m 125 333 b 728 967 125 674 410 967 b 1156 513 982 967 1156 778 b 553 -121 1156 172 871 -121 b 125 333 299 -121 125 68 z m 364 239 b 404 75 364 165 383 111 b 556 -12 439 18 490 -12 b 840 301 699 -12 840 140 b 803 425 840 350 828 388 b 658 515 764 488 711 515 b 532 468 615 515 572 499 b 782 796 621 693 693 758 b 790 719 789 772 790 746 b 768 583 790 668 782 617 b 861 553 782 572 846 553 b 908 688 894 553 908 636 b 847 828 908 742 892 786 b 742 878 815 860 776 878 b 364 239 574 878 364 482 z m 467 108 b 661 407 471 274 546 407 b 757 378 692 407 724 397 l 757 364 b 529 94 757 239 647 94 b 467 108 510 94 486 100 z "},"⑦":{"ha":1278,"x_min":0,"x_max":0,"o":"m 547 -212 b 1253 506 918 -212 1253 99 b 732 1058 1253 817 1057 1058 b 28 340 361 1058 28 747 b 547 -212 28 28 222 -212 z m 125 333 b 728 967 125 674 410 967 b 1156 513 982 967 1156 778 b 553 -121 1156 172 871 -121 b 125 333 299 -121 125 68 z m 446 46 b 543 -8 446 26 500 -1 b 744 390 600 115 667 246 b 865 385 781 389 819 388 b 881 464 874 407 881 440 b 874 489 881 475 879 486 b 803 497 867 494 839 496 b 950 760 849 581 897 668 b 968 810 961 778 968 797 b 896 875 968 833 942 849 b 697 864 847 868 806 864 b 485 872 639 864 563 867 b 472 790 478 850 472 815 b 481 765 472 778 474 769 b 660 754 490 758 590 754 b 821 758 696 754 758 756 b 675 497 775 679 726 592 b 472 479 567 494 483 488 b 453 401 463 472 453 431 b 456 376 453 390 454 381 b 617 388 519 382 569 386 b 460 85 567 294 515 192 b 446 46 453 69 446 53 z "},"⑧":{"ha":1278,"x_min":0,"x_max":0,"o":"m 547 -212 b 1253 506 918 -212 1253 99 b 732 1058 1253 817 1057 1058 b 28 340 361 1058 28 747 b 547 -212 28 28 222 -212 z m 125 333 b 728 967 125 674 410 967 b 1156 513 982 967 1156 778 b 553 -121 1156 172 871 -121 b 125 333 299 -121 125 68 z m 344 160 b 546 -7 344 46 433 -7 b 839 260 724 -7 839 138 b 753 392 839 335 804 372 b 917 697 847 482 917 604 b 889 794 917 735 906 763 b 790 876 849 868 818 876 b 439 465 646 876 439 626 b 474 368 439 418 451 393 b 344 160 396 322 344 246 z m 426 176 b 632 307 451 243 542 307 b 764 226 690 307 732 285 b 549 117 717 165 629 117 b 426 176 497 117 456 136 z m 551 422 b 814 774 549 553 646 694 b 819 739 818 765 819 753 b 551 422 819 597 686 415 z "},"⑨":{"ha":1278,"x_min":0,"x_max":0,"o":"m 547 -212 b 1253 506 918 -212 1253 99 b 732 1058 1253 817 1057 1058 b 28 340 361 1058 28 747 b 547 -212 28 28 222 -212 z m 125 333 b 728 967 125 674 410 967 b 1156 513 982 967 1156 778 b 553 -121 1156 172 871 -121 b 125 333 299 -121 125 68 z m 346 82 b 522 -12 346 35 431 -12 b 882 468 729 -12 829 218 b 907 667 897 546 907 610 b 868 821 907 728 894 778 b 790 881 842 865 811 881 b 443 408 672 881 443 601 b 506 293 443 354 463 321 b 589 263 533 275 564 263 b 743 354 631 263 693 296 b 529 101 685 179 617 101 b 389 164 469 101 411 138 b 346 82 368 147 346 107 z m 540 347 b 811 788 540 490 667 707 b 815 763 815 778 815 771 b 561 346 815 636 692 346 b 540 347 554 346 547 346 z "},"⁄":{"ha":518,"x_min":0,"x_max":0,"o":"m -3 -17 b 615 988 199 322 406 657 b 632 1021 629 1010 632 1018 b 521 1072 632 1036 592 1065 b -99 68 310 742 104 407 b -114 35 -111 46 -114 38 b -3 -17 -114 19 -74 -10 z "},".":{"ha":288,"x_min":0,"x_max":0,"o":"m 150 -33 b 169 106 164 32 169 82 b 25 164 169 150 82 164 b 6 26 11 99 6 50 b 150 -33 6 -18 93 -33 z "},",":{"ha":263,"x_min":0,"x_max":0,"o":"m 44 181 b -42 -96 -14 -22 -42 -79 b 65 -162 -42 -121 21 -149 b 156 114 119 -32 156 92 b 44 181 156 142 86 168 z "},":":{"ha":301,"x_min":0,"x_max":0,"o":"m 275 551 b 294 690 289 617 294 667 b 150 749 294 735 207 749 b 131 611 136 683 131 635 b 275 551 131 567 218 551 z m 19 26 b 164 -33 19 -18 107 -33 b 183 106 178 32 183 82 b 39 164 183 150 96 164 b 19 26 25 99 19 50 z "},";":{"ha":274,"x_min":0,"x_max":0,"o":"m 261 551 b 281 690 275 617 281 667 b 136 749 281 735 193 749 b 117 611 122 683 117 635 b 261 551 117 567 204 551 z m -42 -96 b 65 -162 -42 -121 21 -149 b 156 114 119 -32 156 92 b 44 181 156 142 86 168 b -42 -96 -14 -22 -42 -79 z "},"…":{"ha":843,"x_min":0,"x_max":0,"o":"m 150 -33 b 169 106 164 32 169 82 b 25 164 169 150 82 164 b 6 26 11 99 6 50 b 150 -33 6 -18 93 -33 z m 283 26 b 428 -33 283 -18 371 -33 b 447 106 442 32 447 82 b 303 164 447 150 360 164 b 283 26 289 99 283 50 z m 561 26 b 706 -33 561 -18 649 -33 b 725 106 719 32 725 82 b 581 164 725 150 638 164 b 561 26 567 99 561 50 z "},"!":{"ha":350,"x_min":0,"x_max":0,"o":"m 164 219 b 392 988 232 496 307 743 b 399 1021 397 1003 399 1013 b 263 1065 399 1036 338 1058 b 46 297 183 843 117 604 b 40 264 40 275 40 267 b 164 219 40 249 94 226 z m -11 26 b 133 -33 -11 -18 76 -33 b 153 106 147 32 153 82 b 8 164 153 150 65 164 b -11 26 -6 99 -11 50 z "},"¡":{"ha":350,"x_min":0,"x_max":0,"o":"m 258 1065 b 239 926 244 1000 239 950 b 383 868 239 882 326 868 b 403 1006 397 933 403 982 b 258 1065 403 1050 315 1065 z m -7 11 b 129 -33 -7 -4 54 -26 b 346 735 208 189 275 428 b 351 768 351 757 351 765 b 228 813 351 783 297 806 b 0 44 160 536 85 289 b -7 11 -6 29 -7 19 z "},"?":{"ha":597,"x_min":0,"x_max":0,"o":"m 646 817 b 592 988 646 871 633 925 b 475 1071 550 1051 521 1071 b 113 710 321 1071 113 767 b 217 621 113 681 168 633 b 521 956 300 788 396 890 b 525 904 524 943 525 926 b 232 481 525 733 454 535 b 188 447 199 472 196 467 b 132 264 172 411 132 276 b 256 219 132 249 186 226 l 297 357 b 646 817 510 413 646 590 z m 81 26 b 225 -33 81 -18 168 -33 b 244 106 239 32 244 82 b 100 164 244 150 157 164 b 81 26 86 99 81 50 z "},"¿":{"ha":597,"x_min":0,"x_max":0,"o":"m 415 1071 b 396 932 401 1006 396 956 b 540 874 396 888 483 874 b 560 1011 554 939 560 988 b 415 1071 560 1056 472 1071 z m -6 221 b 49 50 -6 167 7 113 b 165 -33 90 -14 119 -33 b 528 328 319 -33 528 271 b 424 417 528 357 472 404 b 119 82 340 250 244 147 b 115 133 117 94 115 111 b 408 557 115 304 186 503 b 453 590 442 565 444 571 b 508 774 468 626 508 761 b 385 818 508 789 454 811 l 343 681 b -6 221 131 625 -6 447 z "},"·":{"ha":335,"x_min":0,"x_max":0,"o":"m 231 321 b 250 460 244 386 250 436 b 106 518 250 504 163 518 b 86 381 92 453 86 404 b 231 321 86 336 174 321 z "},"•":{"ha":407,"x_min":0,"x_max":0,"o":"m 294 278 b 322 478 314 372 322 444 b 114 563 322 543 196 563 b 86 364 94 468 86 399 b 294 278 86 300 211 278 z "},"*":{"ha":438,"x_min":0,"x_max":0,"o":"m 457 957 b 317 935 444 960 385 950 b 331 1061 321 982 325 1025 b 249 1064 313 1071 256 1072 b 228 929 242 1053 233 996 b 107 983 182 949 140 967 b 79 906 93 968 74 915 b 196 846 88 896 136 872 b 96 738 160 806 125 767 b 161 688 106 719 150 685 b 271 800 175 692 222 742 b 344 674 300 753 326 710 b 411 719 364 676 411 708 b 344 850 411 733 382 789 b 481 878 394 863 442 872 b 457 957 483 899 468 953 z "},"⁂":{"ha":939,"x_min":0,"x_max":0,"o":"m 340 624 b 240 515 304 583 269 544 b 306 465 250 497 294 463 b 415 578 319 469 367 519 b 489 451 444 531 471 488 b 556 497 508 454 556 486 b 489 628 556 511 526 567 b 625 656 539 640 586 650 b 601 735 628 676 613 731 b 461 713 589 738 529 728 b 475 839 465 760 469 803 b 393 842 457 849 400 850 b 372 707 386 831 378 774 b 251 761 326 726 285 744 b 224 683 238 746 218 693 b 340 624 232 674 281 650 z m -60 211 b 57 151 -51 201 -3 178 b -43 43 21 111 -14 72 b 22 -7 -33 25 11 -10 b 132 106 36 -3 83 47 b 206 -21 161 58 188 15 b 272 25 225 -18 272 14 b 206 156 272 39 243 94 b 342 183 256 168 303 178 b 318 263 344 204 329 258 b 178 240 306 265 246 256 b 192 367 182 288 186 331 b 110 369 174 376 117 378 b 89 235 103 358 94 301 b -32 289 43 254 1 272 b -60 211 -46 274 -65 221 z m 440 211 b 557 151 449 201 497 178 b 457 43 521 111 486 72 b 522 -7 467 25 511 -10 b 632 106 536 -3 583 47 b 706 -21 661 58 688 15 b 772 25 725 -18 772 14 b 706 156 772 39 743 94 b 842 183 756 168 803 178 b 818 263 844 204 829 258 b 678 240 806 265 746 256 b 692 367 682 288 686 331 b 610 369 674 376 617 378 b 589 235 603 358 594 301 b 468 289 543 254 501 272 b 440 211 454 274 435 221 z "},"⁉":{"ha":708,"x_min":0,"x_max":0,"o":"m 757 810 b 703 985 757 879 743 924 b 592 1068 661 1049 632 1068 b 422 999 547 1068 490 1043 b 425 1021 424 1008 425 1015 b 289 1065 425 1036 364 1058 b 211 829 261 989 236 911 b 50 581 153 758 97 674 b 32 535 35 550 32 542 b 106 439 32 514 57 478 l 72 297 b 67 264 67 275 67 267 b 190 219 67 249 121 226 b 339 749 236 407 286 581 b 632 951 431 846 538 904 b 636 896 635 938 636 921 b 425 526 636 750 588 565 b 381 493 392 518 389 513 b 311 264 365 457 311 279 b 435 219 311 249 365 226 l 490 404 b 757 810 654 458 757 614 z m 15 26 b 160 -33 15 -18 103 -33 b 179 106 174 32 179 82 b 35 164 179 150 92 164 b 15 26 21 99 15 50 z m 260 26 b 404 -33 260 -18 347 -33 b 424 106 418 32 424 82 b 279 164 424 150 336 164 b 260 26 265 99 260 50 z "},"‼":{"ha":350,"x_min":0,"x_max":0,"o":"m 263 1065 b 46 297 183 843 117 604 b 40 264 40 275 40 267 b 164 219 40 249 94 226 b 392 988 232 496 307 743 b 399 1021 397 1003 399 1013 b 263 1065 399 1036 338 1058 z m -11 26 b 133 -33 -11 -18 76 -33 b 153 106 147 32 153 82 b 8 164 153 150 65 164 b -11 26 -6 99 -11 50 z "},"‽":{"ha":597,"x_min":0,"x_max":0,"o":"m 646 817 b 592 988 646 871 633 925 b 475 1071 550 1051 521 1071 b 113 710 321 1071 113 767 b 217 621 113 681 168 633 b 521 956 300 788 396 890 b 525 904 524 943 525 926 b 347 529 525 768 479 613 l 349 532 b 356 565 353 547 356 557 b 240 610 356 581 304 603 b 132 264 218 558 132 285 b 256 219 132 249 186 226 l 297 357 b 646 817 510 413 646 590 z m 81 26 b 225 -33 81 -18 168 -33 b 244 106 239 32 244 82 b 100 164 244 150 157 164 b 81 26 86 99 81 50 z "},"#":{"ha":894,"x_min":0,"x_max":0,"o":"m 928 622 b 936 744 938 653 956 733 b 769 756 929 749 863 753 b 838 988 792 833 814 910 b 844 1021 844 1010 844 1018 b 739 1072 844 1036 796 1065 b 649 757 708 971 679 867 b 408 758 571 758 488 758 b 476 988 431 835 454 911 b 483 1021 483 1010 483 1018 b 378 1072 483 1036 435 1065 b 286 756 347 971 318 865 b 97 742 183 753 107 749 b 78 622 79 729 71 650 b 251 629 124 625 183 628 l 194 422 b 14 408 96 419 24 415 b -6 289 -4 396 -12 317 b 161 296 39 292 96 294 l 101 68 b 96 35 96 46 96 38 b 201 -17 96 19 144 -10 l 282 297 b 522 297 361 299 443 299 b 463 68 503 225 483 149 b 457 35 457 46 457 38 b 563 -17 457 19 506 -10 l 643 296 b 844 289 722 294 793 292 b 853 411 854 319 872 400 b 676 422 846 415 775 419 b 733 629 696 492 715 561 b 928 622 810 628 878 625 z m 317 425 b 374 631 335 494 354 563 b 613 631 451 632 533 632 b 557 424 594 564 575 496 b 317 425 479 425 394 425 z "},"/":{"ha":518,"x_min":0,"x_max":0,"o":"m 53 -17 b 615 988 247 346 428 668 b 632 1021 629 1010 632 1018 b 513 1072 632 1036 583 1065 b -51 68 343 782 168 469 b -67 35 -64 46 -67 38 b 53 -17 -67 19 -18 -10 z "},"\\":{"ha":824,"x_min":0,"x_max":0,"o":"m 608 -17 b 728 35 679 -17 728 19 b 715 68 728 38 725 46 b 263 1072 568 403 418 738 b 143 1021 192 1072 143 1036 b 157 988 143 1018 146 1011 b 608 -17 311 653 463 318 z "},"⁑":{"ha":833,"x_min":0,"x_max":0,"o":"m 642 735 b 501 713 629 738 569 728 b 515 839 506 760 510 803 b 433 842 497 849 440 850 b 413 707 426 831 418 774 b 292 761 367 726 325 744 b 264 683 278 746 258 693 b 381 624 272 674 321 650 b 281 515 344 583 310 544 b 346 465 290 497 335 463 b 456 578 360 469 407 519 b 529 451 485 531 511 488 b 596 497 549 454 596 486 b 529 628 596 511 567 567 b 665 656 579 640 626 650 b 642 735 668 676 653 731 z m 163 211 b 279 151 171 201 219 178 b 179 43 243 111 208 72 b 244 -7 189 25 233 -10 b 354 106 258 -3 306 47 b 428 -21 383 58 410 15 b 494 25 447 -18 494 14 b 428 156 494 39 465 94 b 564 183 478 168 525 178 b 540 263 567 204 551 258 b 400 240 528 265 468 256 b 414 367 404 288 408 331 b 332 369 396 376 339 378 b 311 235 325 358 317 301 b 190 289 265 254 224 272 b 163 211 176 274 157 221 z "},"(":{"ha":410,"x_min":0,"x_max":0,"o":"m 35 99 b 147 -292 35 -136 100 -292 b 244 -249 158 -292 201 -282 b 161 89 186 -162 161 -43 b 624 1099 161 461 363 938 b 544 1179 600 1151 568 1179 b 510 1168 538 1179 526 1176 b 35 99 333 1081 35 593 z "},")":{"ha":408,"x_min":0,"x_max":0,"o":"m 386 789 b 274 1179 386 1024 321 1179 b 176 1136 263 1179 219 1169 b 260 799 235 1050 260 931 b -203 -211 260 426 58 -50 b -124 -292 -179 -264 -147 -292 b -89 -281 -117 -292 -106 -289 b 386 789 88 -193 386 294 z "},"{":{"ha":410,"x_min":0,"x_max":0,"o":"m 624 1099 b 544 1179 600 1151 568 1179 b 510 1168 538 1179 526 1176 b 103 526 386 1107 201 847 b -42 507 25 521 -32 514 b -64 413 -53 499 -64 449 b -61 382 -64 399 -62 388 b 67 392 -12 386 29 389 b 35 99 47 296 35 197 b 147 -292 35 -136 100 -292 b 244 -249 158 -292 201 -282 b 161 89 186 -162 161 -43 b 200 397 161 188 175 292 l 236 397 b 424 392 290 397 349 396 b 442 489 433 418 442 460 b 433 519 442 501 440 515 b 279 531 421 528 356 531 l 239 531 b 624 1099 321 775 461 999 z "},"}":{"ha":410,"x_min":0,"x_max":0,"o":"m 482 506 b 354 496 433 501 392 499 b 386 789 374 592 386 690 b 274 1179 386 1024 321 1179 b 176 1136 263 1179 219 1169 b 260 799 235 1050 260 931 b 221 490 260 700 246 596 l 185 490 b -3 496 131 490 72 492 b -21 399 -12 469 -21 428 b -12 368 -21 386 -19 372 b 142 357 0 360 65 357 l 182 357 b -203 -211 100 113 -40 -111 b -124 -292 -179 -264 -147 -292 b -89 -281 -117 -292 -106 -289 b 318 361 35 -219 219 40 b 463 381 396 367 453 374 b 485 475 474 389 485 439 b 482 506 485 489 483 500 z "},"[":{"ha":500,"x_min":0,"x_max":0,"o":"m 707 1154 b 515 1167 693 1163 625 1167 b 306 1153 415 1167 324 1160 b 267 1083 294 1149 281 1136 l -65 -187 b -71 -221 -69 -204 -71 -215 b 19 -278 -71 -236 -25 -265 b 215 -269 50 -272 124 -269 b 401 -276 268 -269 318 -271 b 421 -174 411 -250 421 -207 b 413 -160 421 -174 419 -164 b 221 -147 399 -151 331 -147 b 74 -151 167 -147 113 -149 l 385 1042 b 510 1044 419 1043 463 1044 b 696 1038 563 1044 613 1043 b 715 1126 706 1064 715 1093 b 707 1154 715 1140 714 1150 z "},"]":{"ha":596,"x_min":0,"x_max":0,"o":"m 588 1161 b 392 1153 557 1156 483 1153 b 206 1160 339 1153 289 1154 b 186 1057 196 1133 186 1090 b 194 1043 186 1057 188 1047 b 386 1031 208 1035 276 1031 b 533 1035 440 1031 494 1032 l 222 -158 b 97 -161 188 -160 144 -161 b -89 -154 44 -161 -6 -160 b -108 -243 -99 -181 -108 -210 b -100 -271 -108 -257 -107 -267 b 92 -283 -86 -279 -18 -283 b 301 -269 192 -283 283 -276 b 340 -200 313 -265 326 -253 l 672 1071 b 678 1104 676 1088 678 1099 b 588 1161 678 1119 632 1149 z "},"-":{"ha":479,"x_min":0,"x_max":0,"o":"m 33 363 b 239 369 106 368 172 369 b 439 364 304 369 369 368 b 456 468 447 389 456 435 b 447 499 456 481 454 494 b 243 511 435 507 338 511 b 53 496 154 511 67 506 b 31 390 39 486 31 429 b 33 363 31 379 32 368 z "},"–":{"ha":618,"x_min":0,"x_max":0,"o":"m 33 363 b 308 372 121 369 207 372 b 578 364 408 372 494 369 b 594 468 586 389 594 435 b 586 499 594 481 593 494 b 310 511 572 507 447 511 b 53 496 179 511 67 506 b 31 390 39 486 31 429 b 33 363 31 379 32 368 z "},"—":{"ha":757,"x_min":0,"x_max":0,"o":"m 33 363 b 378 372 122 369 236 372 b 717 363 518 372 631 369 b 733 468 725 389 733 435 b 725 499 733 481 732 494 b 369 511 713 507 551 511 b 53 496 201 511 67 506 b 31 390 39 486 31 429 b 33 363 31 379 32 368 z "},"_":{"ha":756,"x_min":0,"x_max":0,"o":"m -83 -181 b 261 -171 6 -174 119 -171 b 600 -181 401 -171 514 -174 b 617 -75 608 -154 617 -108 b 608 -44 617 -62 615 -49 b 253 -32 596 -36 435 -32 b -64 -47 85 -32 -50 -37 b -86 -153 -78 -57 -86 -114 b -83 -181 -86 -164 -85 -175 z "},"‚":{"ha":226,"x_min":0,"x_max":0,"o":"m 26 181 b -118 -103 -74 -33 -118 -85 b -12 -162 -118 -122 -65 -154 b 135 119 49 -87 135 94 b 26 181 135 142 79 172 z "},"„":{"ha":449,"x_min":0,"x_max":0,"o":"m 26 181 b -118 -103 -74 -33 -118 -85 b -12 -162 -118 -122 -65 -154 b 135 119 49 -87 135 94 b 26 181 135 142 79 172 z m 104 -103 b 210 -162 104 -122 157 -154 b 357 119 271 -87 357 94 b 249 181 357 142 301 172 b 104 -103 149 -33 104 -85 z "},"“":{"ha":447,"x_min":0,"x_max":0,"o":"m 215 726 b 360 1010 315 940 360 992 b 254 1069 360 1029 307 1061 b 107 788 193 994 107 813 b 215 726 107 765 163 735 z m 329 788 b 438 726 329 765 385 735 b 582 1010 538 940 582 992 b 476 1069 582 1029 529 1061 b 329 788 415 994 329 813 z "},"”":{"ha":449,"x_min":0,"x_max":0,"o":"m 215 1069 b 71 786 115 856 71 804 b 176 726 71 767 124 735 b 324 1008 238 801 324 983 b 215 1069 324 1031 268 1061 z m 293 786 b 399 726 293 767 346 735 b 546 1008 460 801 546 983 b 438 1069 546 1031 490 1061 b 293 786 338 856 293 804 z "},"‘":{"ha":225,"x_min":0,"x_max":0,"o":"m 215 726 b 360 1010 315 940 360 992 b 254 1069 360 1029 307 1061 b 107 788 193 994 107 813 b 215 726 107 765 163 735 z "},"’":{"ha":226,"x_min":0,"x_max":0,"o":"m 215 1069 b 71 786 115 856 71 804 b 176 726 71 767 124 735 b 324 1008 238 801 324 983 b 215 1069 324 1031 268 1061 z "},"«":{"ha":754,"x_min":0,"x_max":0,"o":"m 206 436 b 472 708 351 535 472 668 b 378 778 472 736 407 767 b 86 497 257 607 153 533 b 60 453 67 486 60 481 b 63 407 60 438 61 419 b 281 99 128 365 210 279 b 381 171 350 115 381 150 b 206 436 381 201 325 321 z m 331 431 b 333 385 331 415 332 397 b 551 76 399 343 481 257 b 651 149 621 93 651 128 b 476 414 651 179 596 299 b 743 686 622 513 743 646 b 649 756 743 714 678 744 b 357 475 528 585 424 511 b 331 431 338 464 331 458 z "},"»":{"ha":756,"x_min":0,"x_max":0,"o":"m 429 425 b 426 471 429 440 428 458 b 208 779 361 513 279 599 b 108 707 139 763 108 728 b 283 442 108 676 164 557 b 17 169 138 343 17 210 b 111 100 17 142 82 111 b 403 381 232 271 336 344 b 429 425 422 392 429 397 z m 288 147 b 382 78 288 119 353 89 b 674 358 503 249 607 322 b 700 403 693 369 700 375 b 697 449 700 418 699 436 b 479 757 632 490 550 576 b 379 685 410 740 379 706 b 554 419 379 654 435 535 b 288 147 408 321 288 188 z "},"‹":{"ha":479,"x_min":0,"x_max":0,"o":"m 203 425 b 469 697 349 524 469 657 b 375 767 469 725 404 756 b 83 486 254 596 150 522 b 57 442 64 475 57 469 b 60 396 57 426 58 408 b 278 88 125 354 207 268 b 378 160 347 104 378 139 b 203 425 378 190 322 310 z "},"›":{"ha":479,"x_min":0,"x_max":0,"o":"m 422 453 b 204 761 357 494 275 581 b 104 689 135 744 104 710 b 279 424 104 658 160 539 b 13 151 133 325 13 192 b 107 82 13 124 78 93 b 399 363 228 253 332 326 b 425 407 418 374 425 379 b 422 453 425 422 424 440 z "},"\"":{"ha":486,"x_min":0,"x_max":0,"o":"m 169 1072 b 111 801 129 876 111 817 b 219 729 111 772 172 743 b 285 997 267 857 285 976 b 169 1072 285 1032 213 1060 z m 319 801 b 428 729 319 772 381 743 b 493 997 475 857 493 976 b 378 1072 493 1032 421 1060 b 319 801 338 876 319 817 z "},"'":{"ha":278,"x_min":0,"x_max":0,"o":"m 169 1072 b 111 801 129 876 111 817 b 219 729 111 772 172 743 b 285 997 267 857 285 976 b 169 1072 285 1032 213 1060 z "}," ":{"ha":308,"x_min":0,"x_max":0,"o":""}," ":{"ha":1389,"x_min":0,"x_max":0,"o":""}," ":{"ha":1389,"x_min":0,"x_max":0,"o":""}," ":{"ha":694,"x_min":0,"x_max":0,"o":""}," ":{"ha":694,"x_min":0,"x_max":0,"o":""}," ":{"ha":728,"x_min":0,"x_max":0,"o":""}," ":{"ha":347,"x_min":0,"x_max":0,"o":""}," ":{"ha":97,"x_min":0,"x_max":0,"o":""}," ":{"ha":50,"x_min":0,"x_max":0,"o":""}," ":{"ha":288,"x_min":0,"x_max":0,"o":""}," ":{"ha":231,"x_min":0,"x_max":0,"o":""}," ":{"ha":250,"x_min":0,"x_max":0,"o":""}," ":{"ha":174,"x_min":0,"x_max":0,"o":""}," ":{"ha":463,"x_min":0,"x_max":0,"o":""},"​":{"ha":0,"x_min":0,"x_max":0,"o":""},"฿":{"ha":701,"x_min":0,"x_max":0,"o":"m 478 424 b 706 819 626 529 706 679 b 651 985 706 879 692 924 b 597 1049 631 1015 614 1036 b 619 1126 604 1075 613 1100 b 626 1160 626 1149 626 1157 b 510 1211 626 1175 582 1204 b 461 1046 494 1157 478 1103 b 418 1017 447 1039 433 1029 l 418 1021 b 288 1072 418 1036 360 1065 b 219 839 265 997 242 919 b 50 581 158 767 99 678 b 32 535 35 550 32 542 b 106 439 32 514 57 479 b 13 88 75 328 44 211 b 7 54 8 71 7 57 b 65 8 7 40 39 22 b 196 -8 104 1 149 -4 b 172 -99 188 -37 181 -68 b 167 -132 167 -121 167 -129 b 283 -183 167 -147 211 -176 b 328 -7 299 -124 313 -65 b 629 226 497 8 629 81 b 575 356 629 285 608 321 b 478 424 549 383 518 406 z m 175 138 b 224 321 190 196 206 257 b 274 322 240 322 257 322 b 519 226 385 322 482 303 b 274 129 497 164 413 129 b 175 138 231 129 200 133 z m 256 444 b 346 765 285 550 315 658 b 581 953 415 854 490 908 b 585 904 583 940 585 925 b 256 444 585 704 449 492 z "},"¢":{"ha":563,"x_min":0,"x_max":0,"o":"m 474 364 b 222 215 442 325 314 215 b 133 243 190 215 157 226 b 432 822 161 433 290 697 b 433 803 433 815 433 810 b 374 594 433 740 400 639 b 461 547 393 572 438 547 b 549 733 513 547 549 676 b 496 874 549 778 526 826 l 538 1015 b 544 1049 544 1038 544 1046 b 428 1100 544 1064 500 1093 b 381 936 413 1046 396 992 b 10 275 239 881 10 483 b 86 131 10 211 32 168 b 149 101 104 118 126 108 b 126 13 142 72 133 43 b 121 -21 121 -10 121 -18 b 238 -72 121 -36 165 -65 b 281 99 251 -15 267 43 b 518 282 392 126 518 218 b 474 364 518 311 493 347 z "},"$":{"ha":615,"x_min":0,"x_max":0,"o":"m 575 1010 l 563 1026 l 592 1126 b 599 1160 599 1149 599 1157 b 482 1211 599 1175 554 1204 b 438 1057 467 1160 453 1110 b 82 575 315 986 135 717 b 71 528 74 554 71 543 b 100 436 71 500 81 461 b 443 242 300 357 400 293 b 268 132 407 167 344 132 b 15 236 185 132 79 169 b -39 128 -11 215 -39 158 b 168 -7 -39 71 56 11 b 144 -99 160 -36 153 -67 b 139 -132 139 -121 139 -129 b 256 -183 139 -147 183 -176 b 300 -7 271 -124 285 -65 b 521 174 399 11 476 74 b 549 285 540 218 549 260 b 231 539 549 396 385 476 b 504 928 304 685 390 824 l 504 926 b 438 669 504 846 469 717 b 554 624 460 647 533 624 b 643 844 606 624 643 778 b 575 1010 643 903 614 960 z "},"€":{"ha":849,"x_min":0,"x_max":0,"o":"m 794 954 b 632 1069 744 1025 685 1069 b 226 563 507 1069 325 819 b 107 544 164 558 117 551 b 88 490 96 536 88 515 b 90 451 88 468 89 457 b 192 463 126 456 160 460 b 181 419 188 447 183 433 b 56 400 115 414 65 407 b 36 346 44 392 36 371 b 39 307 36 324 38 313 b 161 319 83 313 124 317 b 156 244 157 293 156 268 b 267 35 156 146 186 89 b 431 -12 315 3 358 -12 b 721 135 585 -12 721 63 b 663 244 721 174 688 222 b 417 138 626 208 543 138 b 307 163 378 138 340 144 b 322 325 307 215 313 271 l 358 325 b 542 319 415 325 474 324 b 557 385 553 346 557 369 b 550 415 557 401 557 411 b 397 428 539 424 475 428 l 344 428 l 357 469 l 410 469 b 593 464 467 469 525 468 b 608 529 604 490 608 514 b 601 560 608 546 608 556 b 449 572 590 568 526 572 l 393 572 b 693 969 463 743 569 892 b 706 885 700 949 706 921 b 638 650 706 793 669 700 b 749 603 657 628 725 603 b 846 815 803 603 846 740 b 794 954 846 867 826 910 z "},"₣":{"ha":624,"x_min":0,"x_max":0,"o":"m 522 926 b 728 921 590 926 663 924 b 747 1022 739 947 747 990 b 739 1050 747 1036 746 1046 b 569 1063 725 1058 657 1063 b 315 1049 410 1063 333 1056 b 276 979 304 1044 292 1032 b 139 497 239 854 193 693 b -1 478 58 492 8 485 b -24 383 -12 469 -24 419 b -21 354 -24 371 -22 360 b 104 367 24 360 65 364 b 81 281 96 339 89 310 b -56 261 10 275 -46 268 b -75 207 -67 253 -75 232 b -72 168 -75 185 -74 174 b 54 181 -26 174 15 178 l 25 68 b 19 35 19 46 19 38 b 153 -17 19 19 81 -10 b 204 186 171 53 188 119 l 247 186 b 431 181 304 186 363 185 b 446 246 442 207 446 231 b 439 276 446 263 446 272 b 286 289 428 285 364 289 l 232 289 b 254 372 239 317 247 344 l 324 372 b 521 367 385 372 447 371 b 538 460 529 393 538 431 b 529 490 538 472 536 486 b 365 503 517 499 449 503 l 289 503 b 410 924 329 646 369 785 b 522 926 442 925 481 926 z "},"₴":{"ha":775,"x_min":0,"x_max":0,"o":"m 447 1072 b 194 932 318 1072 194 1000 b 249 824 194 901 222 844 b 469 928 313 890 399 928 b 658 696 592 928 671 811 b 549 699 629 697 592 699 b 181 671 400 699 201 685 b 160 603 168 663 160 642 b 163 564 160 581 161 569 b 507 582 300 581 401 582 b 718 588 568 582 699 576 b 758 714 731 594 758 631 b 447 1072 758 886 658 1072 z m 65 349 b 381 -10 65 176 165 -10 b 657 131 519 -10 657 63 b 603 239 657 161 629 218 b 358 135 539 172 433 135 b 175 388 239 135 163 258 b 446 397 276 396 360 397 b 643 392 507 397 569 396 b 660 471 654 418 660 456 b 651 501 660 488 658 497 b 488 514 639 510 571 514 b 119 486 339 514 140 500 b 65 349 93 468 65 431 z "},"₺":{"ha":689,"x_min":0,"x_max":0,"o":"m 651 333 b 567 397 644 349 608 375 b 274 132 501 279 385 175 b 286 192 276 153 281 172 l 371 497 b 408 511 383 501 396 507 b 622 582 475 535 542 558 b 614 649 622 611 619 635 b 597 675 608 665 604 674 b 410 621 583 679 503 654 b 404 619 408 621 407 619 l 421 678 b 621 746 485 701 560 728 b 613 813 622 774 618 797 b 596 839 607 828 603 836 b 456 800 583 842 538 829 l 497 953 b 508 997 506 981 508 993 b 390 1056 508 1018 431 1049 l 303 743 b 58 626 185 694 68 642 b 58 569 50 615 50 593 b 74 533 67 549 71 538 b 269 621 146 569 210 597 l 253 558 b 60 464 153 518 68 476 b 60 406 51 451 51 429 b 75 371 67 385 72 375 b 218 436 126 396 174 418 l 131 122 b 122 72 126 106 122 81 b 186 18 122 54 158 36 b 250 -7 211 1 232 -7 b 651 333 396 -7 683 268 z "},"₱":{"ha":644,"x_min":0,"x_max":0,"o":"m 779 696 b 797 760 788 711 797 740 b 789 782 797 771 794 778 b 701 792 782 786 757 790 l 701 814 b 647 985 701 879 688 924 b 536 1068 606 1049 576 1068 b 418 1017 499 1068 461 1050 l 418 1021 b 288 1072 418 1036 360 1065 b 219 839 265 997 242 919 b 50 581 158 767 99 678 b 32 535 35 550 32 542 b 106 439 32 514 57 478 b 8 68 75 322 42 200 b 3 35 3 46 3 38 b 136 -17 3 19 64 -10 b 207 256 160 76 183 168 b 261 250 225 251 243 250 b 628 535 407 250 546 376 b 751 529 682 533 715 532 b 769 593 760 544 769 574 b 761 615 769 604 767 611 b 667 625 754 619 728 624 b 689 700 675 650 683 675 b 779 696 724 700 750 699 z m 240 382 l 278 524 b 463 535 347 529 404 533 b 240 382 404 453 328 394 z m 303 615 b 325 692 311 640 318 667 b 543 701 406 699 472 701 l 547 701 b 517 626 538 675 528 650 b 303 615 443 625 358 621 z m 363 785 b 576 951 428 861 496 910 b 581 901 579 938 581 922 b 571 793 581 865 576 829 l 569 793 b 363 785 503 793 422 790 z "},"₽":{"ha":697,"x_min":0,"x_max":0,"o":"m 314 250 b 754 814 543 250 754 561 b 700 985 754 879 740 924 b 589 1068 658 1049 629 1068 b 471 1017 551 1068 514 1050 l 471 1021 b 340 1072 471 1036 413 1065 b 272 839 318 997 294 919 b 103 581 211 767 151 678 b 85 535 88 550 85 542 b 158 439 85 514 110 478 l 94 197 b -33 179 29 193 -24 186 b -56 113 -44 171 -56 138 b -53 96 -56 106 -54 100 b 71 106 -8 100 33 103 b 61 68 68 93 64 81 b 56 35 56 46 56 38 b 189 -17 56 19 117 -10 b 221 111 200 26 211 69 l 238 111 b 390 106 285 111 333 110 b 408 169 399 121 408 150 b 400 192 408 181 406 188 b 264 203 389 199 333 203 l 246 203 b 260 256 250 221 254 239 b 314 250 278 251 296 250 z m 293 382 b 399 764 328 513 363 639 b 629 951 468 853 542 907 b 633 901 632 938 633 922 b 293 382 633 675 492 411 z "},"₹":{"ha":586,"x_min":0,"x_max":0,"o":"m 678 675 b 696 739 686 690 696 719 b 688 761 696 750 693 757 b 601 771 681 765 657 768 b 604 817 603 786 604 801 b 550 985 604 879 590 924 b 438 1068 508 1049 479 1068 b 89 686 283 1068 89 825 b 92 665 89 675 90 669 b 435 681 204 675 343 681 b 401 619 425 660 414 639 b 83 596 279 618 100 608 b 61 529 72 588 61 554 b 64 513 61 522 63 517 b 329 526 147 519 247 525 b 121 411 272 469 203 428 b 51 303 90 390 33 326 b 406 -68 136 194 281 43 b 428 -82 415 -78 422 -82 b 551 -6 447 -82 533 -29 b 226 315 468 68 332 201 b 513 528 342 342 443 424 b 650 522 575 526 610 525 b 668 586 658 538 668 567 b 660 608 668 597 665 604 b 561 618 653 613 625 617 b 583 679 569 639 578 658 b 678 675 621 679 649 678 z m 233 764 b 479 953 294 865 383 932 b 483 904 482 940 483 925 b 467 772 483 860 478 815 b 233 764 401 772 308 769 z "},"£":{"ha":788,"x_min":0,"x_max":0,"o":"m 524 607 b 633 560 543 585 613 560 b 746 813 693 560 746 726 b 696 953 746 871 722 915 b 535 1069 646 1024 589 1069 b 190 581 415 1069 190 853 b 207 435 190 529 199 479 b 64 415 132 429 75 422 b 43 347 51 407 43 386 b 46 308 43 325 44 314 b 222 324 111 317 168 321 b 83 151 219 222 115 167 b 33 88 42 132 33 119 b 78 -7 33 53 43 21 b 354 6 149 1 215 6 b 647 -4 468 6 536 3 b 667 94 657 22 667 65 b 658 125 667 111 664 121 b 407 139 642 138 517 139 b 249 135 350 139 296 138 b 361 326 306 179 357 242 l 390 326 b 588 321 451 326 514 325 b 604 400 599 347 604 385 b 596 431 604 417 603 426 b 432 443 583 439 515 443 b 347 442 406 443 376 443 b 333 567 340 479 333 521 b 594 961 333 744 436 878 b 606 872 601 935 606 901 b 524 607 606 775 558 664 z "},"₩":{"ha":1081,"x_min":0,"x_max":0,"o":"m 1203 993 b 1079 1058 1203 1017 1132 1051 l 838 568 b 736 569 804 569 769 569 b 767 906 744 682 754 794 b 769 951 768 925 769 940 b 754 1004 769 989 761 997 b 625 1057 738 1019 690 1042 b 386 567 543 896 464 732 b 290 564 354 567 321 565 b 322 1021 297 717 308 868 b 315 1051 324 1042 319 1047 b 289 1058 313 1056 304 1058 b 178 1029 264 1058 215 1047 b 147 556 165 872 156 714 b 44 543 90 551 51 547 b 24 497 32 535 24 518 b 26 458 24 475 25 464 b 143 465 69 461 107 463 b 131 82 138 338 133 210 b 133 33 131 56 131 39 b 265 -15 143 13 208 -3 b 489 476 338 150 413 314 l 597 476 b 574 92 585 315 574 144 b 578 33 574 60 576 38 b 707 -15 588 13 651 -3 l 950 472 b 1068 471 985 472 1025 471 b 1085 528 1079 497 1085 514 b 1076 558 1085 544 1083 554 b 996 564 1072 561 1042 563 l 1186 946 b 1203 993 1196 964 1203 985 z m 279 335 b 285 472 281 381 283 426 b 343 474 306 472 325 474 b 279 335 321 428 300 381 z m 533 571 b 619 746 561 629 590 688 b 604 571 615 704 610 642 z m 721 329 b 729 475 722 378 725 426 b 792 474 747 475 768 475 z "}}}
